<?xml version="1.0" encoding="utf-8"?>
<!-- Generator: Adobe Illustrator 24.2.0, SVG Export Plug-In . SVG Version: 6.00 Build 0)  -->
<svg version="1.1" id="图层_1" xmlns="http://www.w3.org/2000/svg" xmlns:xlink="http://www.w3.org/1999/xlink" x="0px" y="0px"
	 viewBox="0 0 700 700" style="enable-background:new 0 0 700 700;" xml:space="preserve">
<style type="text/css">
	.st0{fill:#E5E6EB;}
	.st1{fill:#FFFFFF;}
	.st2{fill:#155BCD;}
	.st3{fill:#84A9FF;}
	.st4{fill:#FFBD00;}
	.st5{fill:#FF654F;}
	.st6{fill:#DA5544;}
	.st7{opacity:0.3;}
	.st8{fill:#050F64;}
	.st9{fill:#DCA000;}
	.st10{fill:#F4BCC7;}
	.st11{fill:#EA8096;}
	.st12{fill:#83A8FF;}
	.st13{fill:#F5BDC8;}
	.st14{fill:#00DFFE;}
</style>
<g>
	<g>
		<g>
			<g>
				<polygon class="st0" points="586.3,149.8 578.9,160.5 427.9,380 292.9,380 106.6,605.9 102,611.5 63.3,611.5 67.9,605.9 
					278.9,350.2 412.2,350.2 554.4,143.7 561.8,132.9 				"/>
			</g>
		</g>
		<g>
			<g>
				<g>
					<polygon class="st0" points="603.4,177.4 610.4,88.5 529.9,126.8 					"/>
				</g>
			</g>
		</g>
	</g>
	<g>
		<g>
			<g>
				<path class="st0" d="M649.9,216.5v241.3c0,4.1-3.3,7.4-7.4,7.4H260c-4.1,0-7.4-3.3-7.4-7.4V216.5c0-4.1,3.3-7.4,7.4-7.4h382.4
					C646.6,209.1,649.9,212.4,649.9,216.5z"/>
			</g>
			<g>
				<path class="st1" d="M260,464.2c-3.5,0-6.3-2.8-6.3-6.3V216.5c0-3.5,2.8-6.3,6.3-6.3h382.4c3.5,0,6.3,2.8,6.3,6.3v241.3
					c0,3.5-2.8,6.3-6.3,6.3H260z"/>
			</g>
			<g>
				<path class="st2" d="M649.9,216.5v19H252.6v-19c0-4.1,3.3-7.4,7.4-7.4h382.4C646.6,209.1,649.9,212.4,649.9,216.5z"/>
			</g>
			<g>
				<circle class="st1" cx="269.9" cy="222.3" r="2.9"/>
			</g>
			<g>
				<circle class="st1" cx="285.3" cy="222.3" r="2.9"/>
			</g>
			<g>
				<circle class="st1" cx="300.6" cy="222.3" r="2.9"/>
			</g>
		</g>
		<g>
			<g>
				<g>
					<rect x="325.5" y="309.6" class="st3" width="16.3" height="67.2"/>
				</g>
				<g>
					<rect x="345.7" y="297.7" class="st4" width="16.3" height="79.2"/>
				</g>
				<g>
					<g>
						<rect x="305.2" y="337.4" class="st5" width="16.3" height="39.4"/>
					</g>
				</g>
				<g>
					<rect x="366" y="304.5" class="st3" width="16.3" height="72.3"/>
				</g>
				<g>
					<rect x="386.3" y="278.1" class="st4" width="16.3" height="98.7"/>
				</g>
				<g>
					<g>
						<g>
							<path class="st5" d="M293.8,332.3c-1.8,0-3.7-0.2-5.5-0.6c-7.3-1.7-11.4-8-13.9-12.7l2.3-1.3c3.6,6.6,7.5,10.2,12.2,11.4
								c9.6,2.3,19.7-2.3,23.5-10.7c1.5-3.2,2.2-6.8,3-10.3c0.1-0.6,0.3-1.2,0.4-1.8c1-4.7,2.7-10.7,6.7-15.6
								c4.7-5.8,11.5-8.7,18.2-7.7c2.5,0.4,4.9,1.1,7.3,1.8c4.7,1.4,9.2,2.8,13.8,1.4c7.4-2.2,12.8-8.5,18.1-14.6
								c4.5-5.2,9.2-10.6,15.1-13.6l1.2,2.4c-5.5,2.7-9.8,7.7-14.3,13c-5.5,6.4-11.2,13-19.3,15.4c-5.4,1.6-10.4,0.1-15.3-1.4
								c-2.4-0.7-4.6-1.4-6.9-1.8c-5.7-0.9-11.6,1.6-15.8,6.7c-3.6,4.4-5.2,10-6.1,14.5c-0.1,0.6-0.3,1.2-0.4,1.8
								c-0.8,3.6-1.6,7.4-3.2,10.9C311.2,327.3,302.8,332.3,293.8,332.3z"/>
						</g>
					</g>
					<g>
						<g>
							<g>
								<polygon class="st5" points="395.8,263.5 400.8,257.4 393.1,256.1 								"/>
							</g>
						</g>
					</g>
				</g>
			</g>
			<g>
				<g>
					<g>
						<g>
							<g>
								<path class="st3" d="M281.5,416.6c0.5-6.9,6-12.4,12.9-12.9v-7.2c-5.3,0.2-10.2,2.4-14,6.2s-5.9,8.7-6.2,14H281.5z"/>
							</g>
							<g>
								<path class="st3" d="M296.4,403.7c6.9,0.5,12.4,6,12.9,12.9h7.2c-0.2-5.3-2.4-10.2-6.2-14c-3.8-3.8-8.7-5.9-14-6.2V403.7z"
									/>
							</g>
							<g>
								<path class="st3" d="M294.4,431.5c-6.9-0.5-12.4-6-12.9-12.9h-7.2c0.2,5.3,2.4,10.2,6.2,14c3.8,3.8,8.7,5.9,14,6.2V431.5z"
									/>
							</g>
							<g>
								<path class="st3" d="M309.3,418.6c-0.5,6.9-6,12.4-12.9,12.9v7.2c5.3-0.2,10.2-2.4,14-6.2c3.8-3.8,5.9-8.7,6.2-14H309.3z"/>
							</g>
						</g>
						<g>
							<rect x="287.2" y="413.8" class="st0" width="16.4" height="7.5"/>
						</g>
					</g>
					<g>
						<g>
							<g>
								<path class="st3" d="M338,416.6c0.5-6.9,6-12.4,12.9-12.9v-7.2c-5.3,0.2-10.2,2.4-14,6.2c-3.8,3.8-5.9,8.7-6.2,14H338z"/>
							</g>
							<g>
								<path class="st3" d="M352.9,403.7c6.9,0.5,12.4,6,12.9,12.9h7.2c-0.2-5.3-2.4-10.2-6.2-14c-3.8-3.8-8.7-5.9-14-6.2V403.7z"
									/>
							</g>
							<g>
								<path class="st3" d="M350.9,431.5c-6.9-0.5-12.4-6-12.9-12.9h-7.2c0.2,5.3,2.4,10.2,6.2,14c3.8,3.8,8.7,5.9,14,6.2V431.5z"
									/>
							</g>
							<g>
								<path class="st3" d="M365.8,418.6c-0.5,6.9-6,12.4-12.9,12.9v7.2c5.3-0.2,10.2-2.4,14-6.2c3.8-3.8,5.9-8.7,6.2-14H365.8z"/>
							</g>
						</g>
						<g>
							<rect x="343.7" y="413.8" class="st0" width="16.4" height="7.5"/>
						</g>
					</g>
					<g>
						<g>
							<g>
								<path class="st3" d="M394.4,416.6c0.5-6.9,6-12.4,12.9-12.9v-7.2c-5.3,0.2-10.2,2.4-14,6.2c-3.8,3.8-5.9,8.7-6.2,14H394.4z"
									/>
							</g>
							<g>
								<path class="st3" d="M409.3,403.7c6.9,0.5,12.4,6,12.9,12.9h7.2c-0.2-5.3-2.4-10.2-6.2-14c-3.8-3.8-8.7-5.9-14-6.2V403.7z"
									/>
							</g>
							<g>
								<path class="st3" d="M407.3,431.5c-6.9-0.5-12.4-6-12.9-12.9h-7.2c0.2,5.3,2.4,10.2,6.2,14c3.8,3.8,8.7,5.9,14,6.2V431.5z"
									/>
							</g>
							<g>
								<path class="st3" d="M422.2,418.6c-0.5,6.9-6,12.4-12.9,12.9v7.2c5.3-0.2,10.2-2.4,14-6.2c3.8-3.8,5.9-8.7,6.2-14H422.2z"/>
							</g>
						</g>
						<g>
							<rect x="400.1" y="413.8" class="st0" width="16.4" height="7.5"/>
						</g>
					</g>
				</g>
				<g>
					<g>
						<g>
							<g>
								<path class="st3" d="M450.8,416.6c0.5-6.9,6-12.4,12.9-12.9v-7.2c-5.3,0.2-10.2,2.4-14,6.2c-3.8,3.8-5.9,8.7-6.2,14H450.8z"
									/>
							</g>
							<g>
								<path class="st3" d="M465.7,403.7c6.9,0.5,12.4,6,12.9,12.9h7.2c-0.2-5.3-2.4-10.2-6.2-14c-3.8-3.8-8.7-5.9-14-6.2V403.7z"
									/>
							</g>
							<g>
								<path class="st3" d="M463.8,431.5c-6.9-0.5-12.4-6-12.9-12.9h-7.2c0.2,5.3,2.4,10.2,6.2,14c3.8,3.8,8.7,5.9,14,6.2V431.5z"
									/>
							</g>
							<g>
								<path class="st3" d="M478.7,418.6c-0.5,6.9-6,12.4-12.9,12.9v7.2c5.3-0.2,10.2-2.4,14-6.2c3.8-3.8,5.9-8.7,6.2-14H478.7z"/>
							</g>
						</g>
						<g>
							<rect x="456.6" y="413.8" class="st0" width="16.4" height="7.5"/>
						</g>
					</g>
					<g>
						<g>
							<g>
								<path class="st3" d="M507.3,416.6c0.5-6.9,6-12.4,12.9-12.9v-7.2c-5.3,0.2-10.2,2.4-14,6.2c-3.8,3.8-5.9,8.7-6.2,14H507.3z"
									/>
							</g>
							<g>
								<path class="st3" d="M522.2,403.7c6.9,0.5,12.4,6,12.9,12.9h7.2c-0.2-5.3-2.4-10.2-6.2-14c-3.8-3.8-8.7-5.9-14-6.2V403.7z"
									/>
							</g>
							<g>
								<path class="st3" d="M520.2,431.5c-6.9-0.5-12.4-6-12.9-12.9h-7.2c0.2,5.3,2.4,10.2,6.2,14c3.8,3.8,8.7,5.9,14,6.2V431.5z"
									/>
							</g>
							<g>
								<path class="st3" d="M535.1,418.6c-0.5,6.9-6,12.4-12.9,12.9v7.2c5.3-0.2,10.2-2.4,14-6.2c3.8-3.8,5.9-8.7,6.2-14H535.1z"/>
							</g>
						</g>
						<g>
							<rect x="512" y="413.8" class="st0" width="16.4" height="7.5"/>
						</g>
					</g>
				</g>
			</g>
			<g>
				<g>
					<rect x="560.7" y="400.9" class="st0" width="56.8" height="5.7"/>
				</g>
				<g>
					<rect x="560.7" y="410.1" class="st0" width="67.5" height="5.7"/>
				</g>
				<g>
					<rect x="560.7" y="419.4" class="st0" width="50.5" height="5.7"/>
				</g>
				<g>
					<rect x="560.7" y="428.6" class="st0" width="63" height="5.7"/>
				</g>
			</g>
			<g>
				<g>
					<path class="st6" d="M461.3,320.7l7-32.9c-1.5-0.2-3-0.3-4.6-0.3c-19.5,0-35.3,15.8-35.3,35.3c0,3.2,0.4,6.3,1.2,9.2
						L461.3,320.7z"/>
				</g>
				<g>
					<path class="st4" d="M473.9,289l-7.7,36l-34.6,12.4c5.5,12.3,17.9,20.8,32.2,20.8c19.5,0,35.3-15.8,35.3-35.3
						C499.1,306.9,488.5,293.3,473.9,289z"/>
				</g>
			</g>
			<g>
				<g>
					<g>
						<g>
							<rect x="537" y="263.5" class="st0" width="65.6" height="5.7"/>
						</g>
						<g>
							<rect x="537" y="272.8" class="st0" width="77.9" height="5.7"/>
						</g>
						<g>
							<rect x="537" y="282" class="st0" width="58.2" height="5.7"/>
						</g>
						<g>
							<rect x="537" y="291.2" class="st0" width="72.7" height="5.7"/>
						</g>
					</g>
					<g>
						<path class="st3" d="M520.2,263.5L520.2,263.5c-4.1,0-7.5,3.3-7.5,7.5v0c0,4.1,3.3,7.5,7.5,7.5l0,0c4.1,0,7.5-3.3,7.5-7.5v0
							C527.7,266.9,524.3,263.5,520.2,263.5z"/>
					</g>
				</g>
				<g>
					<g>
						<g>
							<rect x="537" y="307.9" class="st0" width="53.3" height="5.7"/>
						</g>
						<g>
							<rect x="537" y="317.2" class="st0" width="65.6" height="5.7"/>
						</g>
						<g>
							<rect x="537" y="326.4" class="st0" width="80.4" height="5.7"/>
						</g>
						<g>
							<rect x="537" y="335.6" class="st0" width="72.7" height="5.7"/>
						</g>
					</g>
					<g>
						<path class="st3" d="M520.2,307.9L520.2,307.9c-4.1,0-7.5,3.3-7.5,7.5l0,0c0,4.1,3.3,7.5,7.5,7.5l0,0c4.1,0,7.5-3.3,7.5-7.5
							l0,0C527.7,311.3,524.3,307.9,520.2,307.9z"/>
					</g>
				</g>
				<g>
					<g>
						<g>
							<rect x="537" y="352.4" class="st0" width="80.4" height="5.7"/>
						</g>
						<g>
							<rect x="537" y="361.6" class="st0" width="68.9" height="5.7"/>
						</g>
						<g>
							<rect x="537" y="370.8" class="st0" width="48.9" height="5.7"/>
						</g>
						<g>
							<rect x="537" y="380" class="st0" width="63.3" height="5.7"/>
						</g>
					</g>
					<g>
						<path class="st3" d="M520.2,352.4L520.2,352.4c-4.1,0-7.5,3.3-7.5,7.5v0c0,4.1,3.3,7.5,7.5,7.5l0,0c4.1,0,7.5-3.3,7.5-7.5v0
							C527.7,355.7,524.3,352.4,520.2,352.4z"/>
					</g>
				</g>
			</g>
		</g>
	</g>
	<g class="st7">
		<path class="st8" d="M311.5,209.1v226.6c0,7.2-5.8,13-13,13h-45.9V216.5c0-4.1,3.3-7.4,7.4-7.4H311.5z"/>
	</g>
	<g>
		<g>
			<path class="st0" d="M57.6,160.8c-4.1,0-7.4,3.3-7.4,7.4v19.1v248.4c0,4.1,3.3,7.4,7.4,7.4h240.9c4.1,0,7.4-3.3,7.4-7.4V187.3
				v-19.1c0-4.1-3.3-7.4-7.4-7.4H57.6z"/>
		</g>
		<g>
			<path class="st1" d="M57.6,441.9c-3.5,0-6.3-2.8-6.3-6.3V168.2c0-3.5,2.8-6.3,6.3-6.3h240.9c3.5,0,6.3,2.8,6.3,6.3v267.4
				c0,3.5-2.8,6.3-6.3,6.3H57.6z"/>
		</g>
		<g>
			<g>
				<g>
					<g>
						<path class="st0" d="M286.8,424H69.2V206.4h217.6V424z M71,422.2H285V208.1H71V422.2z"/>
					</g>
				</g>
				<g>
					<g>
						<rect x="70.1" y="402.6" class="st0" width="215.8" height="1.8"/>
					</g>
				</g>
				<g>
					<g>
						<rect x="70.1" y="383" class="st0" width="215.8" height="1.8"/>
					</g>
				</g>
				<g>
					<g>
						<rect x="70.1" y="363.3" class="st0" width="215.8" height="1.8"/>
					</g>
				</g>
				<g>
					<g>
						<rect x="70.1" y="343.7" class="st0" width="215.8" height="1.8"/>
					</g>
				</g>
				<g>
					<g>
						<rect x="70.1" y="324.1" class="st0" width="215.8" height="1.8"/>
					</g>
				</g>
				<g>
					<g>
						<rect x="70.1" y="304.5" class="st0" width="215.8" height="1.8"/>
					</g>
				</g>
				<g>
					<g>
						<rect x="70.1" y="284.8" class="st0" width="215.8" height="1.8"/>
					</g>
				</g>
				<g>
					<g>
						<rect x="70.1" y="265.2" class="st0" width="215.8" height="1.8"/>
					</g>
				</g>
				<g>
					<g>
						<rect x="70.1" y="245.6" class="st0" width="215.8" height="1.8"/>
					</g>
				</g>
				<g>
					<g>
						<rect x="70.1" y="226" class="st0" width="215.8" height="1.8"/>
					</g>
				</g>
				<g>
					<g>
						<rect x="265.4" y="207.2" class="st0" width="1.8" height="215.8"/>
					</g>
				</g>
				<g>
					<g>
						<rect x="245.8" y="207.2" class="st0" width="1.8" height="215.8"/>
					</g>
				</g>
				<g>
					<g>
						<rect x="226.2" y="207.2" class="st0" width="1.8" height="215.8"/>
					</g>
				</g>
				<g>
					<g>
						<rect x="206.6" y="207.2" class="st0" width="1.8" height="215.8"/>
					</g>
				</g>
				<g>
					<g>
						<rect x="186.9" y="207.2" class="st0" width="1.8" height="215.8"/>
					</g>
				</g>
				<g>
					<g>
						<rect x="167.3" y="207.2" class="st0" width="1.8" height="215.8"/>
					</g>
				</g>
				<g>
					<g>
						<rect x="147.7" y="207.2" class="st0" width="1.8" height="215.8"/>
					</g>
				</g>
				<g>
					<g>
						<rect x="128.1" y="207.2" class="st0" width="1.8" height="215.8"/>
					</g>
				</g>
				<g>
					<g>
						<rect x="108.5" y="207.2" class="st0" width="1.8" height="215.8"/>
					</g>
				</g>
				<g>
					<g>
						<rect x="88.8" y="207.2" class="st0" width="1.8" height="215.8"/>
					</g>
				</g>
			</g>
			<g>
				<g>
					<g>
						<g>
							<rect x="70.9" y="227.7" class="st3" width="69.4" height="14.1"/>
						</g>
					</g>
				</g>
				<g>
					<g>
						<g>
							<rect x="70.9" y="247.4" class="st3" width="148.6" height="14.1"/>
						</g>
					</g>
				</g>
				<g>
					<g>
						<g>
							<rect x="70.9" y="267" class="st3" width="107.1" height="14.1"/>
						</g>
					</g>
				</g>
				<g>
					<g>
						<g>
							<rect x="70.9" y="286.6" class="st3" width="87" height="14.1"/>
						</g>
					</g>
				</g>
				<g>
					<g>
						<g>
							<rect x="70.9" y="306.2" class="st3" width="31" height="14.1"/>
						</g>
					</g>
				</g>
				<g>
					<g>
						<g>
							<rect x="70.9" y="325.9" class="st3" width="107.1" height="14.1"/>
						</g>
					</g>
				</g>
				<g>
					<g>
						<g>
							<rect x="70.9" y="345.5" class="st3" width="124" height="14.1"/>
						</g>
					</g>
				</g>
				<g>
					<g>
						<g>
							<rect x="70.9" y="365.1" class="st3" width="45.6" height="14.1"/>
						</g>
					</g>
				</g>
				<g>
					<g>
						<g>
							<rect x="70.9" y="384.7" class="st3" width="81.6" height="14.1"/>
						</g>
					</g>
				</g>
			</g>
			<g>
				<g>
					<g>
						<rect x="70.9" y="226" class="st5" width="69.4" height="14.1"/>
					</g>
				</g>
				<g>
					<g>
						<rect x="70.9" y="245.6" class="st5" width="148.6" height="14.1"/>
					</g>
				</g>
				<g>
					<g>
						<rect x="70.9" y="265.2" class="st5" width="107.1" height="14.1"/>
					</g>
				</g>
				<g>
					<g>
						<rect x="70.9" y="284.9" class="st5" width="87" height="14.1"/>
					</g>
				</g>
				<g>
					<g>
						<rect x="70.9" y="304.5" class="st5" width="31" height="14.1"/>
					</g>
				</g>
				<g>
					<g>
						<rect x="70.9" y="324.1" class="st5" width="107.1" height="14.1"/>
					</g>
				</g>
				<g>
					<g>
						<rect x="70.9" y="343.7" class="st5" width="124" height="14.1"/>
					</g>
				</g>
				<g>
					<g>
						<rect x="70.9" y="363.3" class="st5" width="45.6" height="14.1"/>
					</g>
				</g>
				<g>
					<g>
						<rect x="70.9" y="383" class="st5" width="81.6" height="14.1"/>
					</g>
				</g>
			</g>
		</g>
		<g>
			<path class="st2" d="M305.9,187.3H50.1v-23.7c0-1.6,1.3-2.8,2.8-2.8h250.1c1.6,0,2.8,1.3,2.8,2.8V187.3z"/>
		</g>
		<g>
			<circle class="st1" cx="67.4" cy="174" r="2.9"/>
		</g>
		<g>
			<circle class="st1" cx="82.8" cy="174" r="2.9"/>
		</g>
		<g>
			<circle class="st1" cx="98.2" cy="174" r="2.9"/>
		</g>
	</g>
	<g class="st7">
		<path class="st8" d="M603.7,209.1v150.6c0,0.7-0.1,1.3-0.1,2c-0.3,2.1-1.1,4-2.3,5.7c-2.4,3.3-6.2,5.4-10.5,5.4H409.3
			c-2.4,0-4.7-0.7-6.6-1.8c-3.8-2.3-6.4-6.4-6.4-11.2V209.1H603.7z"/>
	</g>
	<g>
		<g>
			<path class="st0" d="M409.3,184.1c-4.1,0-7.4,3.3-7.4,7.4v19.1v149c0,4.1,3.3,7.4,7.4,7.4h181.3c4.1,0,7.4-3.3,7.4-7.4v-149
				v-19.1c0-4.1-3.3-7.4-7.4-7.4H409.3z"/>
		</g>
		<g>
			<path class="st1" d="M409.3,365.9c-3.5,0-6.3-2.8-6.3-6.3v-168c0-3.5,2.8-6.3,6.3-6.3h181.3c3.5,0,6.3,2.8,6.3,6.3v168
				c0,3.5-2.8,6.3-6.3,6.3H409.3z"/>
		</g>
		<g>
			<path class="st2" d="M598.1,210.6H401.9V187c0-1.6,1.3-2.8,2.8-2.8h190.6c1.6,0,2.8,1.3,2.8,2.8V210.6z"/>
		</g>
		<g>
			<circle class="st1" cx="419.2" cy="197.4" r="2.9"/>
		</g>
		<g>
			<circle class="st1" cx="434.5" cy="197.4" r="2.9"/>
		</g>
		<g>
			<circle class="st1" cx="449.9" cy="197.4" r="2.9"/>
		</g>
		<g>
			<g>
				<g>
					<path class="st0" d="M577.9,225.6v0.9h1.8v-0.9H577.9z M558.3,225.6v0.9h1.8v-0.9H558.3z M538.7,225.6v0.9h1.8v-0.9H538.7z
						 M519.1,225.6v0.9h1.8v-0.9H519.1z M499.4,225.6v0.9h1.8v-0.9H499.4z M479.8,225.6v0.9h1.8v-0.9H479.8z M460.2,225.6v0.9h1.8
						v-0.9H460.2z M440.6,225.6v0.9h1.8v-0.9H440.6z"/>
				</g>
				<g>
					<rect x="577.9" y="225.6" class="st0" width="1.8" height="118.6"/>
				</g>
				<g>
					<rect x="558.3" y="225.6" class="st0" width="1.8" height="118.6"/>
				</g>
				<g>
					<rect x="538.7" y="225.6" class="st0" width="1.8" height="118.6"/>
				</g>
				<g>
					<rect x="519.1" y="225.6" class="st0" width="1.8" height="118.6"/>
				</g>
				<g>
					<rect x="499.4" y="225.6" class="st0" width="1.8" height="118.6"/>
				</g>
				<g>
					<rect x="479.8" y="225.6" class="st0" width="1.8" height="118.6"/>
				</g>
				<g>
					<rect x="460.2" y="225.6" class="st0" width="1.8" height="118.6"/>
				</g>
				<g>
					<rect x="440.6" y="225.6" class="st0" width="1.8" height="118.6"/>
				</g>
				<g>
					<rect x="420.7" y="225.6" class="st0" width="1.8" height="118.6"/>
				</g>
			</g>
			<g>
				<g>
					<path class="st8" d="M577.8,344.2H422.5c0.9-20.2,5.3-40.2,13-58.9c1.2-3,2.6-6,5-8.1c2.4-2.1,6.2-3,8.9-1.3
						c2.2,1.4,3.3,4.3,5.6,5.6c3.9,2.3,8.9-1.3,10.7-5.4c1.8-4.2,1.9-8.9,4-13c2.1-4,6.1-7,10.5-7.9c4.5-0.8,9.3,0.6,12.6,3.6
						c5.1,4.6,6.3,12,8.2,18.6c1.9,6.6,5.7,13.8,12.5,15c5.4,0.9,11.3-2.2,16.1,0.3c5,2.6,6.4,10.3,12,11.7c6.5,1.6,11.3-7,17.9-7.4
						c3.2-0.2,6.3,1.7,8.3,4.2c2,2.5,3.2,5.6,4.1,8.7C575.5,320.9,577.5,332.5,577.8,344.2z"/>
				</g>
				<g>
					<path class="st4" d="M577.8,344.2H421.6c0.1-0.2,0.1-0.4,0.1-0.6c1.2-5.1,3.3-10.5,6.6-14.4c4-4.7,10.9-6.9,15.7-3.3
						c4.6,3.5,6.6,11.6,12.2,11.9c3.8,0.2,6.7-3.6,8.1-7.5c1.3-3.9,1.7-8.2,3.6-11.8c1.9-3.6,6.2-6.3,9.4-4.2
						c3.1,2,3.4,6.6,4.8,10.2c3,7.3,12.7,9.8,18.3,4.7c3.7-3.3,5.2-8.6,7.1-13.4c1.9-4.8,5-9.8,9.6-10.6c5.8-1.1,10.7,4.7,13.8,10.2
						c3.1,5.5,6.3,11.9,12,13.6c4.7,1.4,9.5-0.9,14.3-1.3c8.7-0.7,17.5,5.7,20,14.9C577.5,343.1,577.7,343.6,577.8,344.2z"/>
				</g>
			</g>
		</g>
	</g>
	<g>
		<g>
			<g>
				<polygon class="st4" points="639.8,545.1 647.8,545.1 659,443 651,443 				"/>
			</g>
			<g>
				<polygon class="st9" points="560.4,606.2 565.8,606.2 582.4,545.1 577,545.1 				"/>
			</g>
			<g>
				<polygon class="st9" points="624.9,545.1 641.5,606.2 647,606.2 630.4,545.1 				"/>
			</g>
			<g>
				
					<rect x="598.1" y="498" transform="matrix(-1.836970e-16 1 -1 -1.836970e-16 1143.256 -61.2117)" class="st4" width="8.2" height="86.1"/>
			</g>
		</g>
		<g>
			<g>
				<path class="st8" d="M576.6,603c0.4-0.4,1-0.6,1.5-0.7c0.6-0.1,1.1,0,1.7,0c1.4,0,2.8-0.3,4-0.9c0.7-0.3,1.3-0.7,2-0.9l4,0.4
					c0.5,0.6,0.8,1.4,0.9,2.2c0.1,0.7,0.1,1.5,0,2.2l-0.1,0.8l-14.6-1l0.1-0.8l0,0C576.2,603.9,576.3,603.4,576.6,603z"/>
			</g>
			<g>
				<polygon class="st10" points="590.6,596.6 589.8,600.9 585.8,600.6 585.8,596.5 				"/>
			</g>
			<g>
				<path class="st8" d="M558.1,602.6c0.4-0.4,1-0.6,1.5-0.6c0.6,0,1.1,0,1.7,0.1c1.4,0.1,2.8-0.2,4.1-0.8c0.7-0.3,1.3-0.7,2-0.9
					l4,0.5c0.5,0.6,0.8,1.4,0.9,2.2c0.1,0.7,0,1.5-0.1,2.2l-0.1,0.8l-14.5-1.4l0.1-0.8l0,0C557.6,603.4,557.7,603,558.1,602.6z"/>
			</g>
			<g>
				<polygon class="st10" points="572.2,596.6 571.3,600.9 567.4,600.4 567.5,596.3 				"/>
			</g>
			<g>
				<path class="st8" d="M565.8,527.6c0.2-3.9,3.1-7.2,7-7.7l45.7-4.2c0,0,0,0,0,0c5.9-0.9,11.3,3.2,12.2,9.1
					c0.6,4.4-1.5,8.5-5,10.7l0,0c0,0,0,0,0,0c-1.2,0.7-2.6,1.3-4.1,1.5c-0.2,0-26.9,1.8-40.7,0.2l-8.4,59.5l-5.4-0.3L565.8,527.6z"
					/>
			</g>
			<g>
				<g>
					<g>
						<path class="st11" d="M548.2,490.2c0-1.1,0.8-2,1.8-2.1l2.2-0.1l2.2-0.2c1.5-0.1,2.9-0.2,4.4-0.4c2.9-0.3,5.8-0.6,8.6-1.1
							c2.8-0.5,5.6-1.1,8.3-1.9c2.7-0.8,5.2-1.8,7.5-3c2.4-1.2,4.6-2.6,6.7-4.3c2.1-1.7,4.2-3.5,6.4-5.5c2.1-2,4.2-4,6.4-6.1
							c2.2-2.1,4.4-4.1,6.7-6.2c1.5-1.3,3.4-1.7,5.2-1.4c1.8,0.3,3.6,1.3,4.8,3v0c1.2,1.7,1.7,3.7,1.6,5.5c-0.2,1.8-1,3.5-2.5,4.5
							c-2.4,1.6-4.8,3.3-7.2,4.9c-2.4,1.7-4.9,3.4-7.4,5.2c-2.5,1.7-5.2,3.5-8,5c-2.8,1.6-5.9,3-9,4c-3.1,1.1-6.3,1.8-9.4,2.2
							c-3.1,0.5-6.3,0.7-9.3,0.7c-3.1,0.1-6.1,0-9.1-0.2c-1.5-0.1-3-0.2-4.5-0.3l-2.2-0.2l-2.2-0.2
							C548.9,492.3,548.1,491.4,548.2,490.2z"/>
					</g>
				</g>
				<g>
					<path class="st1" d="M604.3,484.2l13.4-10.2c4-3.1,5.2-8.7,2.1-12.7l0,0c-3.1-4-9.2-5-13.2-1.9l-13.4,10.2L604.3,484.2z"/>
				</g>
			</g>
			<g>
				<path class="st1" d="M622.6,453L622.6,453c-12.7,1.7-19.9,14.1-17.2,26.6c2,9.1,5.9,36.8,5.9,36.8c0.9,3.8,30.9,24.8,35.3,14.2
					c5.5-13.2-1.6-46.5-3.6-61.8C641.7,458.8,632.6,451.6,622.6,453z"/>
			</g>
			<g>
				<path class="st12" d="M638.1,458.5c2.6,2.7,4.3,6.3,4.8,10.3c0.8,5.9,2.3,14.4,3.5,23.4l0.4-0.1c-0.6-4.5-1.3-8.8-1.9-12.8
					c-0.6-4.1-1.2-7.6-1.6-10.5c-0.5-4.1-2.3-7.8-5-10.6L638.1,458.5z M606.3,487.1c1.2,7,2.6,16.1,3.5,22.3l0.4-0.3
					c-0.9-6.2-2.3-15.2-3.5-22.1L606.3,487.1z M628,529.6c3,1.6,6.5,3.2,9.8,3.9l0.1-0.4c-3-0.7-6.4-2.2-9.8-4L628,529.6z
					 M647.9,525.6c0.1,0.1,0.3,0.2,0.4,0.3c0.9-5.1,0.9-11.6,0.3-18.6h-0.4C648.7,514.1,648.8,520.6,647.9,525.6z M611.8,518
					c1.4,1.6,4,3.7,6.8,5.8l0.1-0.5c-2.8-2-5.1-4-6.4-5.4L611.8,518z M604.7,478.3l0.4-0.2c-1.1-7.1,1-14,5.4-18.8l-0.5-0.1
					c-0.5,0.6-1.1,1.3-1.5,1.9C605,465.9,603.7,472.1,604.7,478.3z M616.4,454.4c0,0.1,0.1,0.3,0.1,0.4c1.9-0.9,3.9-1.5,6.1-1.8h0
					c1.3-0.2,2.6-0.2,3.8-0.1c0-0.1,0-0.3,0-0.4c-0.5,0-0.9-0.1-1.4-0.1c-0.8,0-1.7,0.1-2.5,0.2
					C620.3,452.8,618.3,453.4,616.4,454.4z"/>
			</g>
			<g>
				<g>
					<path class="st8" d="M622.9,454.6c0,0,9.4,2.2,9.2-12.8c0,0-3.5-3-3.8-3.2c-0.3-0.2-4.7,9.7-4.7,9.7L622.9,454.6z"/>
				</g>
				<g>
					<g>
						<path class="st10" d="M618.8,449.5l1.2,9.6c3,1.4,5.8,1,8.3-1.2l-1.2-9.6L618.8,449.5z"/>
					</g>
					<g>
						<path class="st11" d="M619,450.6l0.5,3.1c1.4,0.6,2.9,0.8,4.4,0.7c0.1,0,0.2,0,0.3,0c1.4-0.2,2.7-1,3.6-2.1l-0.4-2.9
							L619,450.6z"/>
					</g>
					<g>
						<path class="st10" d="M613.3,442.4l1.1,3l0.7,1.7c0.7,4.1,4.5,6.9,8.6,6.5c0.4,0,0.8-0.1,1.2-0.3c0.2-0.1,0.3-0.1,0.4-0.2
							c0,0,0.1,0,0.1,0c0.6-0.3,1-0.7,1.4-1.3c0.8-1.2,1.3-2.4,1.7-3.7c0.4-1.1,0.7-2.2,0.9-3.3c0.2-1.3,0.3-2.6,0-3.9l-1.1-7.8
							l-12.1,3.7L613.3,442.4z"/>
					</g>
					<g>
						<path class="st8" d="M614.2,439.8c0,0-0.1-2.7,1.2-5.5c1.1-2.4,5.5-5.6,9.6-3.6c0-1.4,0.6-2.7,1.7-3.6c2.1-1.7,5.2-1.3,7,0.9
							c1.8,2.2,1.5,5.3-0.6,7c-0.6,0.5-1.4,0.8-2.1,1c0.1,0.1,0.1,0.2,0.2,0.4c0.9,2,1.6,6.5-0.9,8.2c-0.8,0.6-3,0.1-3.3-2.7
							c0-0.2,0-4.9-0.6-6.1c-0.3,0.5-1.3,1.6-4.4,1.3c-1.5-0.1-2.8,0-3.9,0.5c-1.5,1.5-2.6,3.1-3.7,4.4c-1.1,1.3-0.3,2.4,0.7,3.5
							c1.4,1.6,0.4,4-1,4.8c0,0,2.1-2.5-0.4-4.4C611.8,444.2,612.7,440.3,614.2,439.8z"/>
					</g>
					<g>
						<path class="st10" d="M626.9,442.7c0.2,1.7,1.8,2.8,3.4,2.6s2.8-1.8,2.6-3.4c-0.2-1.7-1.8-2.8-3.4-2.6
							C627.8,439.5,626.7,441,626.9,442.7z"/>
					</g>
				</g>
			</g>
			<g>
				<path class="st8" d="M587.7,524.7l46.2-6.9c0,0,0,0,0,0c5.8-1.2,11.5,2.6,12.6,8.4c0.9,4.3-1,8.6-4.4,10.9l0,0c0,0,0,0,0,0
					c-1.2,0.8-2.5,1.4-4,1.7c-0.2,0-26.9,3.3-40.8,2.4l-6.4,55.3l-5.4-0.1l-3.5-64C582,528.6,584,525.5,587.7,524.7z"/>
			</g>
			<g>
				<path class="st12" d="M627.4,540l0.1,0.4c6.3-0.6,10.8-1.1,10.8-1.2c0.9-0.2,1.7-0.5,2.5-0.8l-0.5-0.3c-0.7,0.3-1.4,0.5-2.2,0.7
					C638.1,538.9,633.6,539.4,627.4,540z M581.5,532.4L581.5,532.4l0.1,1.1h0.4l-0.1-1.1c0.1-3.8,2.1-6.9,5.8-7.7l20-3l-0.2-0.4
					l-19.9,3C583.9,525,581.6,528.2,581.5,532.4z M586.3,596.5l0.1,0.4l5,0.1l1.1-9.1l-0.4-0.1l-1,8.7L586.3,596.5z M583.2,564.2
					l1.6,29.7l0.4,0.2l-1.6-29.9H583.2z M593.1,577.8l0.4,0.1l4.2-36.2c1.5,0.1,3.3,0.1,5.2,0.1c2.2,0,4.5-0.1,6.9-0.2v-0.4
					c-4.5,0.2-8.9,0.2-12.4,0L593.1,577.8z M582,542l0.6,10l0.4,0.1l-0.6-10L582,542z"/>
			</g>
		</g>
		<g>
			<g>
				<polygon class="st4" points="63.1,545.1 55.2,545.1 44,443 52,443 				"/>
			</g>
			<g>
				<polygon class="st9" points="142.6,606.2 137.2,606.2 120.5,545.1 126,545.1 				"/>
			</g>
			<g>
				<polygon class="st9" points="78.1,545.1 61.4,606.2 56,606.2 72.6,545.1 				"/>
			</g>
			<g>
				
					<rect x="96.6" y="498" transform="matrix(-1.836970e-16 1 -1 -1.836970e-16 641.7654 440.2788)" class="st4" width="8.2" height="86.1"/>
			</g>
		</g>
		<g>
			<g>
				<path class="st8" d="M150.4,605.6l22,0c0-0.8-0.2-1.5-0.6-2.1c-0.5-0.7-1.4-1-2.2-1.2c-0.8-0.1-1.7-0.1-2.5-0.1
					c-2.1-0.1-4.1-0.7-6-1.7c-0.9-0.5-1.8-1.2-2.9-1.6l-6,0.2c-0.8,0.9-1.3,2-1.6,3.2C150.3,603.4,150.3,604.5,150.4,605.6z"/>
			</g>
			<path class="st8" d="M151.4,599.6l7.6-0.6l-8-66.8l0,0l0-0.1c0-0.3-0.1-0.5-0.1-0.8l0,0c-0.6-3.3-3.2-5.8-6.4-6.5l0,0l-0.3,0
				c-0.2,0-0.3-0.1-0.5-0.1l-44.5-6.5c0,0,0,0,0,0c-5.8-1.2-11.4,2.6-12.6,8.4c-1.2,5.8,2.6,11.4,8.4,12.6c0,0,0,0,0,0l0,0l0,0
				c1.2,0.2,2.3,0.3,3.4,0.1l38.1,1.4L151.4,599.6z"/>
			<g>
				<path class="st8" d="M125.6,606l22,0.2c0-0.8-0.2-1.5-0.6-2.1c-0.5-0.7-1.4-1-2.2-1.2c-0.8-0.2-1.7-0.1-2.5-0.2
					c-2.1-0.1-4.1-0.7-5.9-1.8c-0.9-0.5-1.8-1.2-2.8-1.6l-6,0.1c-0.8,0.9-1.4,2-1.6,3.2C125.6,603.8,125.5,604.9,125.6,606z"/>
			</g>
			<g>
				<path class="st8" d="M126.6,600.5l7.6-0.8c0,0-9.6-66.6-9.6-66.6l0-0.1c0-0.3-0.1-0.5-0.1-0.8l0,0c-0.7-3.1-3-5.5-6-6.2l-0.1,0
					c-0.2,0-0.4-0.1-0.6-0.1l-44.2-8.5c0,0,0,0,0,0c-5.7-1.4-11.5,2.1-12.9,7.8c-0.9,3.5,0.1,7.2,2.5,9.8c2.8,3,6.8,3.5,10.6,3.8
					c1.8,0.1,3.5,0.3,5.3,0.4c2.6,0.2,5.2,0.4,7.8,0.6c2.9,0.2,5.7,0.4,8.6,0.6c2.6,0.2,5.2,0.4,7.8,0.6c1.8,0.1,3.6,0.3,5.4,0.4
					c0.1,0,1.5,0,1.6,0.1C110.2,541.6,126.6,600.5,126.6,600.5z"/>
			</g>
			<g>
				<path class="st2" d="M115.5,560.4l-0.6,0.1L125,597h0.7L115.5,560.4z M125.3,532.9c0-0.2,0-0.4-0.1-0.5l0-0.1h0
					c0-0.1,0-0.1,0-0.2v0l0,0c-0.7-3.1-3-5.6-5.9-6.5l0-0.1l-0.7-0.1c-0.2-0.1-0.5-0.1-0.7-0.1l-44.2-8.5c-0.9-0.2-1.8-0.3-2.7-0.3
					c-3.6,0-6.9,1.7-9,4.4l1.3-0.5c2.6-2.7,6.4-3.9,10.3-3c0,0,0,0,0,0l44.2,8.5c0.2,0,0.4,0.1,0.6,0.1l0.1,0v0c3,0.7,5.4,3.1,6,6.2
					v0c0.1,0.2,0.1,0.5,0.1,0.8l0,0.1h0l6.5,44.9l0.6-0.1L125.3,532.9z"/>
			</g>
			<g>
				<g>
					<path class="st11" d="M177.3,443c-0.8-0.9-2.3-0.9-3.3,0c-1.2,1.1-2.5,2.1-3.7,3.1l-0.9,0.7c-0.5,0.4-1,0.8-1.5,1.2
						c-0.3,0.2-0.6,0.4-0.8,0.7l-1.2,0.9l-1.2,0.9c-0.3,0.2-0.6,0.4-0.8,0.6c-0.5,0.4-1,0.8-1.5,1.1l-2.4,1.7l-2.4,1.6
						c-0.5,0.3-1.1,0.7-1.6,1c-0.3,0.2-0.6,0.4-0.9,0.6c-3.6,2.2-6.9,3.8-10.2,5.1c-3.6,1.4-7.1,2.3-10.6,2.7
						c-6.4,0.7-13.3-0.1-21.7-2.6c-3.3-1-6.9-2.2-10.9-3.7c-3.3-1.3-6.7-2.7-10.9-4.5c-2.2-0.9-4.7-0.9-6.8,0
						c-1.9,0.8-3.3,2.3-4,4.1c-0.7,1.8-0.6,3.9,0.3,5.7c1,2.1,2.9,3.7,5.3,4.5c4.6,1.4,8.4,2.5,11.9,3.4c4.7,1.2,8.6,2.1,12.4,2.7
						c4.7,0.8,9,1.3,13,1.3c0.4,0,0.8,0,1.2,0c4.2,0,8.3-0.4,12.1-1.3c4.2-0.9,8.3-2.5,12.4-4.6c3.5-1.8,7.1-4.1,10.8-6.9
						c0.3-0.2,0.6-0.5,0.9-0.7c0.5-0.4,1.1-0.8,1.6-1.3l2.4-2l2.3-2.1c0.5-0.4,1-0.9,1.5-1.4c0.3-0.2,0.5-0.5,0.8-0.7l1.1-1.1
						l1.1-1.1c0.3-0.3,0.5-0.5,0.8-0.8c0.5-0.5,0.9-0.9,1.4-1.4l0.8-0.8c1.1-1.2,2.3-2.4,3.4-3.6C178.2,445.3,178.2,443.9,177.3,443
						z"/>
				</g>
				<g>
					<g>
						<path class="st2" d="M106.2,478.7L87,472.2c-5.8-2-9.3-7.9-7.3-13.8l0.3-0.3c2-5.8,8.3-9,14.1-7l19.3,6.5L106.2,478.7z"/>
					</g>
				</g>
			</g>
			<g>
				<path class="st2" d="M79.2,449.4L79.2,449.4c11.9-1.9,22.8,6.8,23.7,18.8l3.8,51.1c-11.7,11.1-34.1,15.6-46.4,9.1l-2.3-53
					C57.4,462.6,66.5,451.4,79.2,449.4z"/>
			</g>
			<g>
				<path class="st1" d="M103.5,468.2c-0.8-11-10.1-19.6-21.1-19.6c-1.1,0-2.3,0.1-3.4,0.3c-1.2,0.2-2.3,0.5-3.5,0.8l0.2,0.6
					c1.1-0.3,2.2-0.6,3.3-0.8c1.1-0.2,2.2-0.3,3.3-0.3c10.6,0,19.7,8.2,20.5,19l1.2,16.6l0.6-0.1L103.5,468.2z M105.7,497.4h-0.6
					l1.6,21.9c-6.7,6.4-17,10.6-26.8,11.8v0.7c10.3-1.2,20.6-5.6,27.3-11.9l0.2-0.2L105.7,497.4z M58.3,470.1l-0.6-0.3
					c-0.3,1.8-0.5,3.7-0.4,5.6l1.7,40.2l0.6,0L58,475.4C57.9,473.6,58,471.8,58.3,470.1z"/>
			</g>
			<g>
				<g>
					<path class="st13" d="M82.8,442.2l2.3,14.4c-2.8,2.5-5.9,3-9.4,1.5l-2.3-14.4L82.8,442.2z"/>
				</g>
				<g>
					<path class="st11" d="M82.8,442.2l1,6.5c-0.6,0.4-1.3,0.6-2,0.8c-0.2,0.1-0.5,0.1-0.7,0.1c-2.6,0.4-5.2-0.4-7.1-2.1l-0.6-3.9
						L82.8,442.2z"/>
				</g>
				<g>
					<path class="st13" d="M85.7,432.6l1,8.5c0.4,3.4-1.8,6.6-5.1,7.4v0c-3,0.7-6.2-0.4-8-3c-1.2-1.7-2.3-3.7-3.5-5.8
						c-1.8-3.4-1.7-7.5,0.5-10.7c1.9-2.7,4.6-3.9,8.1-3.4C82.4,426.1,85.3,429,85.7,432.6z"/>
				</g>
			</g>
			<g>
				<g>
					<path class="st13" d="M160.3,472.8c-1.4,0.8-2.8,1.6-4.2,2.3l-1,0.5c-0.6,0.3-1.1,0.6-1.7,0.9c-0.3,0.2-0.6,0.3-0.9,0.5
						l-1.3,0.7l-1.3,0.6c-0.3,0.1-0.6,0.3-1,0.5c-0.6,0.3-1.1,0.6-1.7,0.8l-2.7,1.2l-2.7,1.1c-0.6,0.2-1.2,0.5-1.7,0.7
						c-0.3,0.1-0.7,0.2-1,0.4c-3.9,1.4-7.5,2.4-11,2.9c-3.8,0.6-7.5,0.8-10.9,0.5c-6.4-0.6-13-2.8-20.8-6.9c-3-1.6-6.3-3.5-10-5.9
						c-2.9-1.9-6.1-4-9.8-6.6c-2-1.3-4.4-1.8-6.6-1.4c-2,0.4-3.7,1.6-4.8,3.2c-1.1,1.7-1.4,3.7-0.9,5.7c0.6,2.3,2.1,4.2,4.3,5.5
						c4.2,2.3,7.7,4.1,11,5.7c4.3,2.1,8,3.8,11.6,5.2c4.5,1.8,8.5,3,12.4,3.9c4.5,1,9,1.5,13.3,1.4c4.3-0.1,8.7-0.8,13.1-2
						c3.8-1.1,7.7-2.6,11.9-4.6c0.3-0.2,0.6-0.3,1-0.5c0.6-0.3,1.2-0.6,1.8-0.9l2.7-1.5l2.7-1.6c0,0,0,0,0,0c0.6-0.3,1.1-0.7,1.7-1
						c0.3-0.2,0.6-0.4,0.9-0.6l1.3-0.8l1.3-0.8c0.3-0.2,0.6-0.4,0.9-0.6c0.6-0.4,1.1-0.7,1.7-1.1l0.9-0.6c1.3-0.9,2.7-1.9,4.1-2.9
						c1.1-0.8,1.4-2.2,0.8-3.2C162.9,472.5,161.5,472.2,160.3,472.8z"/>
				</g>
				<g>
					<path class="st2" d="M87.1,493.8l-17.7-9.9c-5.4-3-7.6-9.5-4.6-14.9l0.4-0.3c3-5.4,9.8-7.3,15.2-4.3l17.7,9.9L87.1,493.8z"/>
				</g>
				<g>
					<path class="st1" d="M80.6,463.8c-3.6-2-8.1-2-11.6,0.1c-0.9,0.5-1.7,1.1-2.4,1.8l0.5,0.4c3.4-3.3,8.8-4.2,13.2-1.7l4.7,2.6
						l0.3-0.5L80.6,463.8z M94.6,471.7l-0.3,0.5l3.7,2.1l-6.6,11.8l0.5,0.3l6.9-12.4L94.6,471.7z M64.2,470.1l-0.6-0.3
						c-1,2.4-1.2,5.1-0.3,7.7c0.9,2.9,3,5.4,5.8,6.9l14,7.8l0.4-0.5l-14.1-7.9C64.4,481,62.1,475.2,64.2,470.1z"/>
				</g>
			</g>
			<g>
				<path class="st8" d="M88,433.9c0.5-0.7,0.4-1.9,0.1-2.8c-0.3-0.9-0.7-1.9-0.5-2.8c0.2-1.2,1.3-2.1,1.3-3.3c0-1.2-1.1-2-2-2.5
					c-2.4-1.4-4.8-2.9-7.2-4.3c-1-0.6-2-1.2-3.1-1.4s-2.3,0.2-3,1.2c-0.4,0.5-0.6,1.2-0.9,1.7c-0.9,1.1-2.3,1.1-3.6,1.1
					c-1.6,0-3.3,0.3-4.5,1.4c-1.3,1.2-1.9,3.4-1.1,5.1c0.4,0.8,1,1.4,1.6,2c0.5,0.7,1,1.5,1,2.4c-0.1,1.2-1.1,2-1.8,2.8
					c-1,1.2-1.4,3.1-1.1,4.8c0.3,1.7,1.3,3.2,2.6,4c1.1,0.6,2.7,0.5,3.3-0.8c0.6-1.5-0.4-3.8,0.6-4.9c1.3-1.3,3.6,1.1,4.8-0.3
					c0.7-0.7,0.5-2.1,1-3c0.7-1.2,2.1-1,3.1-0.9c1.1,0.1,2.2,0,3.3-0.1c1-0.1,1.9,0.1,2.9,0.6C85.8,434.2,87.2,435,88,433.9z"/>
			</g>
			<g>
				<path class="st13" d="M73.6,438.5c0.3,1.7-1.1,3.4-3,3.7c-1.9,0.3-3.7-0.8-4-2.6s1.1-3.4,3-3.7
					C71.6,435.6,73.4,436.7,73.6,438.5z"/>
			</g>
		</g>
		<g>
			<g>
				<g>
					<rect x="133.4" y="498.7" class="st8" width="62.8" height="2.1"/>
				</g>
			</g>
			<g>
				<g>
					<polygon class="st2" points="196.2,498.7 157.2,498.7 169.2,466.8 208.2,466.8 					"/>
				</g>
			</g>
			<g>
				<g>
					<path class="st1" d="M184.9,485.6c-0.8,3.3-2.4,5.7-3.6,5.4c-1.2-0.3-1.6-3.2-0.8-6.5c0.8-3.3,2.4-5.7,3.6-5.4
						C185.3,479.4,185.7,482.3,184.9,485.6z"/>
				</g>
			</g>
		</g>
		<g>
			<g>
				<polygon class="st4" points="480.7,545.1 488.7,545.1 499.9,443 491.9,443 				"/>
			</g>
			<g>
				<polygon class="st9" points="401.2,606.2 406.7,606.2 423.3,545.1 417.9,545.1 				"/>
			</g>
			<g>
				<polygon class="st9" points="465.8,545.1 482.4,606.2 487.9,606.2 471.2,545.1 				"/>
			</g>
			<g>
				
					<rect x="439" y="498" transform="matrix(-1.836970e-16 1 -1 -1.836970e-16 984.1382 97.906)" class="st4" width="8.2" height="86.1"/>
			</g>
		</g>
		<g>
			<g>
				<path class="st8" d="M406.6,606l-22.4,0.2c0-0.8,0.2-1.5,0.6-2.1c0.5-0.7,1.4-1.1,2.2-1.2c0.9-0.2,1.7-0.1,2.6-0.2
					c2.1-0.1,4.2-0.7,6.1-1.8c1-0.5,1.9-1.2,2.9-1.6l6.1,0.1c0.8,0.9,1.4,2.1,1.7,3.3C406.6,603.8,406.7,604.9,406.6,606z"/>
			</g>
			<g>
				<path class="st8" d="M432.8,605.9l-22.4,0.3c0-0.8,0.1-1.5,0.6-2.1c0.5-0.7,1.4-1.1,2.2-1.2c0.9-0.2,1.7-0.1,2.6-0.2
					c2.1-0.1,4.2-0.8,6-1.8c1-0.6,1.9-1.2,2.9-1.6l6.1,0.1c0.8,0.9,1.4,2.1,1.7,3.3C432.9,603.7,432.9,604.8,432.8,605.9z"/>
			</g>
			<g>
				<g>
					<path class="st11" d="M446,454.5c-1.4-1.7-3.4-2.6-5.7-2.7c0,0-0.1,0-0.1,0c-2.2,0-4.4,0.7-6.1,2.2
						c-5.4,4.8-11.9,10.2-18.9,14.5c-7.3,4.5-14.2,7.2-20.9,8c-3.6,0.5-7.4,0.5-11.4,0.1c-3.6-0.3-7.5-1-11.7-2l-1.5-0.4
						c-0.5-0.1-1-0.3-1.5-0.4l-2.9-0.8l-2.9-0.9c-0.6-0.2-1.3-0.4-1.9-0.6c-0.3-0.1-0.7-0.2-1-0.3l-1.5-0.5l-1.5-0.5
						c-0.3-0.1-0.7-0.2-1-0.4c-0.6-0.2-1.3-0.4-1.9-0.7l-1.1-0.4c-1.5-0.6-3.1-1.1-4.7-1.7c-1.3-0.5-2.7,0-3.2,1.2
						c-0.5,1.1,0,2.5,1.2,3.1c1.5,0.8,3,1.5,4.5,2.3l1.1,0.6c0.6,0.3,1.2,0.6,1.9,0.9c0.3,0.2,0.7,0.3,1,0.5l1.4,0.7l1.4,0.7
						c0.3,0.2,0.7,0.3,1,0.5c0.6,0.3,1.3,0.6,1.9,0.8l2.9,1.3l3,1.2c0.5,0.2,0.9,0.4,1.5,0.6l1.5,0.6c4.5,1.6,8.6,2.8,12.6,3.6
						c3.8,0.8,7.6,1.2,11.3,1.3c0.7,0,1.5,0,2.2,0c0.1,0,0.2,0,0.3,0c0.2,0,0.4,0,0.6,0l2.6-0.2c0.8-0.1,1.6-0.2,2.3-0.3
						c0.4,0,0.7-0.1,1.1-0.1c0.3-0.1,0.7-0.1,1-0.2c0.8-0.1,1.6-0.3,2.4-0.4l1.9-0.4c0.5-0.1,1-0.2,1.4-0.4
						c4.1-1.1,8.3-2.7,12.7-4.8c3.8-1.8,7.6-3.9,11.6-6.4c3.3-2.1,6.8-4.4,10.8-7.2c2-1.4,3.3-3.5,3.7-5.7
						C448,458.4,447.4,456.2,446,454.5z"/>
				</g>
				<g>
					<g>
						<path class="st5" d="M426.9,482.4l16.7-12.3c5-3.7,6.5-10.6,2.8-15.6l-0.4-0.2c-3.7-5-10.8-6.1-15.9-2.4l-16.7,12.3
							L426.9,482.4z"/>
					</g>
				</g>
			</g>
			<g>
				<path class="st8" d="M459.1,525.3c-0.9-5.9-6.5-10-12.4-9.1c0,0,0,0,0,0l-45.8,4.6c0,0-0.1,0-0.1,0c-0.1,0-0.2,0-0.3,0l-0.2,0
					l0,0c-4,0.6-7,4.1-7,8.1l0,0c0,0.3,0,0.5,0,0.8l0,0.1h0l4.5,69.7l6.7-0.2l4.7-61.9l37.3,0.3c1.1,0.2,2.3,0.2,3.5,0l0,0l0,0
					c0,0,0,0,0,0C456,536.8,460,531.3,459.1,525.3z"/>
			</g>
			<g>
				<path class="st8" d="M485.7,525.2c-1.1-5.9-6.7-9.9-12.6-8.8c0,0,0,0,0,0l-45.5,5.7c0,0,0,0-0.1,0c-0.2,0-0.4,0-0.6,0.1l-0.1,0
					l0,0c-3.9,0.7-6.8,4.1-6.8,8.1l0,0c0,0.3,0,0.5,0,0.8l0,0.1l0,0l3.8,68.4l7.7-0.3l4.5-60.7l37.5-0.6c1.1,0.2,2.3,0.2,3.5-0.1
					l0,0l0,0l0,0C482.8,536.8,486.7,531.1,485.7,525.2z"/>
			</g>
			<g>
				<path class="st3" d="M435.9,538.5l-4.5,60.7l-7.7,0.3l-1.2-21.8l-0.6,0.1l1.2,22.3l9-0.3l4.5-60.7l27.2-0.4v-0.7L435.9,538.5z
					 M419.9,531.1L419.9,531.1c0-0.3,0-0.6,0-0.8v0c0-4,2.9-7.4,6.8-8.1v0l0.1,0c0.2,0,0.4-0.1,0.6-0.1c0,0,0,0,0.1,0l2.6-0.3
					l-0.1-0.6l-2.5,0.3l-0.1,0c-0.2,0-0.4,0-0.6,0.1l-0.7,0.1l0,0c-3.9,1-6.8,4.5-6.8,8.6c0,0,0,0.1,0,0.1h0l0,0.3
					c0,0.1,0,0.3,0,0.4l0.7,13.1h0.7L419.9,531.1L419.9,531.1z"/>
			</g>
			<g>
				<path class="st5" d="M449.9,446.7L449.9,446.7c-12.2,0.7-21.3,11.7-19.6,23.8l6.4,46.7c8,11.2,30.6,14.7,48.9,8l-9-57.2
					C474.4,455.2,463,446,449.9,446.7z"/>
			</g>
			<g>
				<path class="st1" d="M480.8,490.3l-0.6,0.2l5.5,34.7c-1.8,0.7-3.7,1.2-5.6,1.7l0.1,0.6c2-0.5,3.9-1.1,5.7-1.7l0.5-0.2
					L480.8,490.3z M451.3,446c-0.5,0-1,0-1.4,0c-6,0.3-11.7,3.2-15.5,7.8c-2.3,2.8-3.8,6.1-4.5,9.5l0.6,0.1
					c1.8-9.1,9.6-16.3,19.4-16.8c0.5,0,0.9,0,1.4,0c12.4,0,23.2,9,25.3,21.4l0,0.1c0.2,0,0.4-0.1,0.6-0.1l0-0.1
					C475.1,455.2,464.2,446,451.3,446z M436.7,517.2l-3.1-22.6l-0.7,0.1l3.1,22.8l0.1,0.1c3.2,4.5,9,8,16.1,9.9l0.2-0.6
					C445.7,525.1,440,521.8,436.7,517.2z"/>
			</g>
			<g>
				<g>
					<path class="st13" d="M444.3,443.7l2.6,14.7c3.6,1.5,6.7,1,9.6-1.7l-2.6-14.7L444.3,443.7z"/>
				</g>
				<g>
					<path class="st11" d="M444.3,443.7l1.2,6.6c0.7,0.1,1.5,0.2,2.2,0.1c0.2,0,0.5-0.1,0.7-0.1c2.6-0.5,4.9-2.1,6.1-4.4l-0.7-3.9
						L444.3,443.7z"/>
				</g>
				<g>
					<path class="st13" d="M438.4,435.5l1.8,8.6c0.7,3.4,3.9,5.8,7.4,5.4l0,0c3.2-0.3,5.9-2.5,6.7-5.5c0.6-2,1-4.3,1.4-6.7
						c0.6-3.9-0.9-7.8-4-10.1c-2.7-2-5.7-2.2-9-0.6C439.4,428.2,437.6,431.9,438.4,435.5z"/>
				</g>
			</g>
			<g>
				<path class="st8" d="M458.9,437.7c1.9-5.7,2-13.6-6.6-16.9c-3.8-1.4-7.6-3.5-7.6-3.5c-0.4,1.7,1,3.2,1,3.2
					c-2.7-0.4-4.6-3.9-4.6-3.9c-1.9,2.9-0.1,8.6-0.1,8.6c-2.3-0.1-3.6-3.6-3.6-3.6c-3,7.4,2,19.1,2,19.1l0,0c0,0-1.5-6.2,0.7-9.5
					c0.9-1.4,3.2-0.7,5.1-0.9c3.3-0.5,6.3-3.2,7.8,1.4c1.4,4.5-0.4,5.5-0.4,5.5l2.8,0.9c0,0,0.3-1.2,1.4-2.8
					C457.7,433.8,458.9,437.7,458.9,437.7z"/>
			</g>
			<g>
				
					<ellipse transform="matrix(0.9851 -0.1719 0.1719 0.9851 -68.266 84.8276)" class="st13" cx="455.6" cy="436.5" rx="3.6" ry="3.2"/>
			</g>
		</g>
		<g>
			<g>
				<polygon class="st4" points="235.7,545.1 227.7,545.1 216.5,443 224.5,443 				"/>
			</g>
			<g>
				<polygon class="st9" points="315.2,606.2 309.7,606.2 293.1,545.1 298.5,545.1 				"/>
			</g>
			<g>
				<polygon class="st9" points="250.6,545.1 234,606.2 228.6,606.2 245.2,545.1 				"/>
			</g>
			<g>
				
					<rect x="269.2" y="498" transform="matrix(-1.836970e-16 1 -1 -1.836970e-16 814.3118 267.7325)" class="st4" width="8.2" height="86.1"/>
			</g>
		</g>
		<g>
			<g>
				<g>
					<path class="st13" d="M292.3,595c-0.2,5.8,8.3,9.6,9.9,10c1,0.2,1.4-1.1,1.6-2c-1.1-0.4-2.4-0.9-4.2-3c-2.7-3.1-2.7-5-2.7-5
						L292.3,595C292.3,595,292.3,595,292.3,595z"/>
				</g>
				<g>
					<path class="st8" d="M292.3,595c0,5.7,7.8,9.1,9.4,9.5c1,0.2,2-0.6,2.1-1.5c0.4,0.1,1.6,0.5,2,0.7c1.4,0.6,0.2,1.7-1.1,2.2
						c-0.7,0.3-2,0.5-3.9,0.1c-2.9-0.6-6.8-4.1-7.6-5.4l-0.1,5.1l-1.9,0l0.1-6.2C291.3,596.4,292.2,595.1,292.3,595z"/>
				</g>
			</g>
			<g>
				<path class="st8" d="M314.3,522.5L314.3,522.5c-0.2-4.2-3.6-7.7-7.8-7.9l-47.4-0.8c0,0,0,0,0,0c-6.1-0.4-11.4,4.2-11.8,10.3
					c-0.4,6.1,10.3,11.8,10.3,11.8s30,2.4,41.6-1.3l9.4,60.5h5.1C313.6,595.2,314.3,522.8,314.3,522.5z"/>
			</g>
			<g>
				<g>
					<path class="st13" d="M308.7,595.2c-0.1,5.8,8.5,9.5,10.1,9.8c1,0.2,1.4-1.1,1.6-2c-1.1-0.3-2.4-0.9-4.2-2.9
						c-2.7-3-2.8-4.9-2.8-4.9L308.7,595.2C308.7,595.2,308.7,595.2,308.7,595.2z"/>
				</g>
				<g>
					<path class="st8" d="M308.7,595.2c0.1,5.7,8,9,9.5,9.3c1,0.2,1.9-0.6,2.1-1.5c0.4,0.1,1.7,0.5,2,0.7c1.4,0.6,0.2,1.7-1,2.2
						c-0.7,0.3-2,0.5-3.9,0.1c-3-0.6-6.9-4-7.7-5.3v5.1h-1.9v-6.3C307.7,596.6,308.6,595.3,308.7,595.2z"/>
				</g>
			</g>
			<g>
				<path class="st8" d="M256.7,442.9c0.1,3.5-0.3,8.2-0.8,10.5c-0.4,2-4.1,2.3-5.1,4c-2,3.3-3,7.2-2.9,11c0,1.3-1.1,2.2-2.2,2.8
					c-1.1,0.7-2.3,1-3.6,1.3c-3.5,0.9-7.1,1.3-10.7,1.2c-3-0.1-6.1-0.2-8.9-1c-3.6-1-5.7-4.9-7.1-8.1c-1.4-3.2-1.4-10.1-0.1-13.4
					c1.8-4.7,10.4,7.4,14.5,4.4c1.8-4.7,6.8-8.4,11.6-9.9C244.7,444.6,253.1,442.9,256.7,442.9z"/>
			</g>
			<g>
				<g>
					<path class="st11" d="M302.8,436.7l3.8,11.8c0.1-0.1,0.1-0.2,0.2-0.3c2-2.6,3.7-5.6,5.1-8.8c1.1-2.7,2-5.7,2.8-9.2
						c0.6-2.6,1.1-5.4,1.6-9c0.5-3.3,0.9-6.5,1.2-8.9c0-0.3,0-0.7-0.1-1c-0.3-0.9-1.1-1.6-2.1-1.8c-1.4-0.3-2.7,0.5-3,1.8
						c-0.9,3.5-1.7,6.1-2.4,8.5c-1,3.3-1.9,5.9-2.8,8.2c-1.1,2.9-2.3,5.3-3.5,7.4C303.3,435.8,303.1,436.3,302.8,436.7z"/>
				</g>
				<g>
					<path class="st13" d="M266.9,468.1l-1.8-5.7c-0.1,1,0.1,2,0.4,3c0.1,0.3,0.2,0.6,0.3,0.8C266,466.9,266.4,467.5,266.9,468.1z"
						/>
				</g>
				<g>
					<path class="st14" d="M275.1,470.3c4.7-2.5,9.5-5,14.2-7.8c2.4-1.4,4.7-2.9,7.1-4.6c2.3-1.7,4.6-3.5,6.8-5.6
						c2.2-2.1,4.1-4.5,5.8-7.1c1.6-2.6,2.9-5.3,3.9-8c1-2.7,1.7-5.4,2.3-8.1c0.6-2.7,1.1-5.4,1.5-8l-7.2-1.6
						c-0.7,2.5-1.5,4.9-2.3,7.3c-0.8,2.4-1.8,4.7-2.8,6.8c-1.1,2.1-2.3,4-3.7,5.7c-1.4,1.7-3,3.2-4.8,4.6c-3.6,2.7-7.9,4.9-12.5,7
						c-4.6,2-9.4,3.9-14.3,5.7c-3.2,1.2-4.5,5.5-2.7,9.5C268,469.9,272,471.9,275.1,470.3z"/>
				</g>
				<g>
					<path class="st0" d="M275.4,470.8c1.7-0.9,3.3-1.7,4.8-2.5l-1-3.2l5.9-3.2l1.5,2.9l0,0c1-0.6,2-1.2,3.1-1.8
						c2.3-1.4,4.7-2.9,7.1-4.6c2.7-1.9,4.9-3.8,6.9-5.7c0.3-0.3,0.6-0.6,1-1l-3.6-1l12.8-25.9l2.7,0.6c0.3-1.3,0.5-2.8,0.7-4.2
						l0.1-0.5l-8.2-1.8l-0.1,0.5c-0.8,2.7-1.5,5.1-2.3,7.3c-0.9,2.6-1.8,4.8-2.8,6.7c-1.1,2.1-2.3,4-3.6,5.6
						c-1.3,1.6-2.9,3.1-4.7,4.5c-0.5,0.4-1.1,0.8-1.6,1.2l1.5,2.3l-15.1,10.3l-2.3-4.7c-3.1,1.3-6.2,2.4-9.2,3.6
						c-3.2,1.2-4.7,5.2-3.4,9.2c0.1,0.3,0.2,0.7,0.4,1c1,2.3,2.8,4.1,4.9,4.9C272.3,471.6,274,471.5,275.4,470.8z"/>
				</g>
				<g>
					<path class="st3" d="M275.1,470.3c4.7-2.5,9.5-5,14.2-7.8c2.4-1.4,4.7-2.9,7.1-4.6c2.3-1.7,4.6-3.5,6.8-5.6
						c2.2-2.1,4.1-4.5,5.8-7.1c1.6-2.6,2.9-5.3,3.9-8c1-2.7,1.7-5.4,2.3-8.1c0.6-2.7,1.1-5.4,1.5-8l-7.2-1.6
						c-0.7,2.5-1.5,4.9-2.3,7.3c-0.8,2.4-1.8,4.7-2.8,6.8c-1.1,2.1-2.3,4-3.7,5.7c-1.4,1.7-3,3.2-4.8,4.6c-3.6,2.7-7.9,4.9-12.5,7
						c-4.6,2-9.4,3.9-14.3,5.7c-3.2,1.2-4.5,5.5-2.7,9.5C268,469.9,272,471.9,275.1,470.3z"/>
				</g>
			</g>
			<g>
				<path class="st3" d="M261.7,453.7L261.7,453.7c12.5,1.6,20.6,13.9,17.2,26l-7.4,34.3c-9.3,2.2-18.5,3.8-33.8,9.3l4.9-53.6
					C243.1,459.9,251.9,452.5,261.7,453.7z"/>
			</g>
			<g>
				<path class="st0" d="M240.8,489.5l-0.5-0.1l-2.5,28.4l0.6,0L240.8,489.5z M276.8,462.5c-1.5-2.2-3.3-4.1-5.4-5.6l-0.2,0.5
					c4.3,3.1,7.2,7.8,8.2,13l0.6,0C279.5,467.6,278.4,464.9,276.8,462.5z M248.9,457.4l-0.4-0.4c-0.1,0-0.1,0.1-0.2,0.1
					c-3.7,3.1-6,7.7-6.2,12.6l-1.2,12.4l0.6-0.1l1.2-12.2C242.9,464.7,245.3,460.3,248.9,457.4z"/>
			</g>
			<g>
				<path class="st8" d="M304.8,525.7L304.8,525.7c0.2-4.3-2.9-8.1-7.3-8.7c-0.1,0-47.5-3.1-47.5-3.1c0,0,0,0,0,0
					c-6.1-0.7-11.6,3.6-12.3,9.7c-0.7,6.1,3.6,11.6,9.7,12.3c0,0,29.4,3.8,41.1,0.9l3.4,58.2l5.3,0.1
					C297.2,595,304.8,526,304.8,525.7z"/>
			</g>
			<g>
				<path class="st2" d="M302.9,543.2c-0.8,7.4-1.8,16.2-2.7,24.5h0.6c0.9-8.3,1.9-17,2.7-24.4L302.9,543.2z M297.6,516.5
					c0,0,0,0-5.6-0.4v0.6c3.4,0.2,5.5,0.4,5.5,0.4c4.3,0.6,7.4,4.4,7.3,8.7l0,0c0,0-0.3,2.4-0.7,6.2l0.6-0.1
					c0.4-3.5,0.6-5.8,0.7-6.1l0,0v0C305.5,521.1,302.2,517.1,297.6,516.5z M269.1,514.6v0.6c4.1,0.3,8.4,0.6,12.3,0.8l0.1-0.5
					C278.1,515.2,274.1,514.9,269.1,514.6z M252.3,514c1.7,0.1,4.4,0.3,7.5,0.5l0.2-0.5c-2.5-0.2-5.3-0.3-8.2-0.5L252.3,514z
					 M237.6,524.8c-0.2,0-0.4,0-0.6,0c0,5.1,3.3,9.7,8.1,11.2l0.2-0.5C240.8,534,237.6,529.7,237.6,524.8z M253,536.5l-0.3,0.5
					c4.7,0.5,11.8,1.1,18.8,1.3l0.1-0.6C264.8,537.6,257.7,537,253,536.5z M288.5,536.8c-2.1,0.5-4.7,0.8-7.6,1l0.1,0.5
					c2.8-0.2,5.2-0.4,7-0.8l1,17h0.6L288.5,536.8z M299.4,575.5c-1.2,11-2.1,19.5-2.1,19.5l-4.5-0.1l0,0.6l5,0.1l0.1-0.5
					c0.4-3.4,1.2-10.8,2.1-19.5L299.4,575.5z M290.1,564c-0.1,0-0.3,0.1-0.5,0.1L291,589h0.6L290.1,564z"/>
			</g>
			<g>
				<g>
					<path class="st13" d="M283.5,496.7l-11.4,4.8c0.1,0.1,0.2,0.1,0.3,0.2c2.8,1.8,5.9,3.2,9.3,4.2c2.8,0.9,5.8,1.5,9.4,2
						c2.7,0.3,5.5,0.6,9.2,0.8c3.3,0.2,6.6,0.3,9,0.3c0.3,0,0.7-0.1,1-0.2c0.9-0.4,1.5-1.2,1.6-2.2c0.1-1.4-0.8-2.6-2-2.8
						c-3.5-0.6-6.2-1.1-8.7-1.6c-3.4-0.7-6.1-1.3-8.4-2c-3-0.8-5.5-1.8-7.7-2.8C284.5,497.2,284,497,283.5,496.7z"/>
				</g>
				<g>
					<path class="st13" d="M249,463.9l5.5-2.3c-1,0-2,0.2-2.9,0.7c-0.3,0.1-0.5,0.2-0.8,0.4C250.1,462.9,249.5,463.4,249,463.9z"/>
				</g>
				<g>
					<path class="st14" d="M247.5,472.3c2.9,4.5,5.9,9,9.1,13.4c1.6,2.2,3.3,4.4,5.2,6.6c1.9,2.2,3.9,4.3,6.2,6.2
						c2.3,1.9,4.9,3.7,7.6,5.1c2.7,1.4,5.6,2.4,8.4,3.1c2.8,0.7,5.6,1.2,8.3,1.5c2.7,0.3,5.4,0.6,8.1,0.7l0.9-7.3
						c-2.5-0.5-5.1-1-7.5-1.6c-2.4-0.6-4.8-1.3-7-2.2c-2.2-0.9-4.2-1.9-6.1-3.2c-1.8-1.2-3.5-2.7-5-4.4c-3-3.3-5.7-7.4-8.1-11.8
						c-2.4-4.4-4.7-9-7-13.7c-1.5-3.1-5.9-3.9-9.7-1.8C247.2,465.2,245.6,469.4,247.5,472.3z"/>
				</g>
				<g>
					<path class="st0" d="M247,472.6c1,1.6,2,3.1,3,4.6l3.1-1.3l3.7,5.5l-2.7,1.8l0,0c0.7,1,1.4,1.9,2.1,2.9
						c1.6,2.1,3.3,4.4,5.3,6.6c2.2,2.5,4.2,4.5,6.3,6.3c0.3,0.3,0.7,0.6,1.1,0.9l0.7-3.7l27,10.3l-0.4,2.7c1.4,0.1,2.8,0.2,4.3,0.3
						l0.5,0l1-8.4l-0.5-0.1c-2.7-0.5-5.2-1-7.5-1.6c-2.7-0.7-5-1.4-6.9-2.2c-2.2-0.9-4.2-1.9-6-3.1c-1.8-1.2-3.4-2.6-4.9-4.3
						c-0.4-0.5-0.9-1-1.3-1.5l-2.1,1.7l-11.7-14.1l4.5-2.7c-1.5-3-3-5.9-4.4-8.8c-1.5-3.1-5.7-4.2-9.5-2.5c-0.3,0.1-0.6,0.3-0.9,0.5
						c-2.2,1.2-3.8,3.2-4.4,5.4C245.9,469.6,246.2,471.3,247,472.6z"/>
				</g>
				<g>
					<path class="st3" d="M247.5,472.3c2.9,4.5,5.9,9,9.1,13.4c1.6,2.2,3.3,4.4,5.2,6.6c1.9,2.2,3.9,4.3,6.2,6.2
						c2.3,1.9,4.9,3.7,7.6,5.1c2.7,1.4,5.6,2.4,8.4,3.1c2.8,0.7,5.6,1.2,8.3,1.5c2.7,0.3,5.4,0.6,8.1,0.7l0.9-7.3
						c-2.5-0.5-5.1-1-7.5-1.6c-2.4-0.6-4.8-1.3-7-2.2c-2.2-0.9-4.2-1.9-6.1-3.2c-1.8-1.2-3.5-2.7-5-4.4c-3-3.3-5.7-7.4-8.1-11.8
						c-2.4-4.4-4.7-9-7-13.7c-1.5-3.1-5.9-3.9-9.7-1.8C247.2,465.2,245.6,469.4,247.5,472.3z"/>
				</g>
			</g>
			<g>
				<g>
					<path class="st10" d="M268.4,448.5l-3,12.2c-3.1,1.1-5.7,0.4-7.9-2l3-12.2L268.4,448.5z"/>
				</g>
				<g>
					<path class="st11" d="M268.1,449.6l-0.8,3c-1.4,0.4-2.8,0.5-4.3,0.2c-0.1,0-0.2,0-0.2-0.1c-1.4-0.3-2.6-1.2-3.3-2.4l0.7-2.8
						L268.1,449.6z"/>
				</g>
				<g>
					<path class="st10" d="M274.5,437.9l-2.4,8.6c-1.1,3.9-5,6.3-9,5.5l0,0c-1.2-0.2-2.3-1-2.9-2.1c-0.7-1.2-1-2.5-1.3-3.7
						c-0.5-2.4-0.9-4.7-0.1-7.1l1.1-2.6l13.1-2.1L274.5,437.9z"/>
				</g>
				<g>
					<path class="st8" d="M222.9,443.5c6.9-3.1,13.7-5.3,19.2-10.8c4.8-4.9,9.7-11,17-11.9c1.9-0.2,3.9-0.1,5.7,0.3
						c3.6,0.8,7.4,2.8,10.2,5.2c1.9,1.6,3.4,3.8,4,6.2c0.5,2.4-0.6,5.2-3,6.2c-2.2,0.9-4.4,0.1-6.5-0.7c-1.6-0.6-3.2-1.3-4.9-1.2
						c-2.6,0-6.1,1.2-7.4,3.6c-0.5,0.9-0.6,1.9-0.7,2.9c0,0.3-0.1,0.5-0.1,0.8c0.1,0.8,0.1,1.6-0.1,2.4c-0.8,3.2-4.7,4.4-8,4.1
						c-6.8-0.7-8,2.4-8.9,8.5c-1.9,13.5-26.6,4.9-24.7-6.8c0.1-0.3,0.1-0.6,0.2-0.9C216.2,447.6,219.5,445,222.9,443.5z"/>
				</g>
				<g>
					<path class="st10" d="M261.1,441.1c-0.4,1.6-2,2.6-3.6,2.2c-1.6-0.4-2.6-2-2.2-3.6s2-2.6,3.6-2.2
						C260.6,437.9,261.5,439.5,261.1,441.1z"/>
				</g>
			</g>
		</g>
		<g>
			<g>
				<rect x="107.1" y="500.8" class="st3" width="489.5" height="5.9"/>
			</g>
			<g>
				<rect x="119.6" y="506.7" class="st2" width="464.5" height="5.9"/>
			</g>
			<g>
				<polygon class="st2" points="133.3,606.2 126.3,606.2 139.7,512.6 155.5,512.6 				"/>
			</g>
			<g>
				<polygon class="st8" points="193.5,606.2 200.4,606.2 187.1,512.6 171.3,512.6 				"/>
			</g>
			<g>
				<polygon class="st2" points="577.2,606.2 584.1,606.2 570.7,512.6 554.9,512.6 				"/>
			</g>
			<g>
				<polygon class="st8" points="516.9,606.2 510,606.2 523.4,512.6 539.2,512.6 				"/>
			</g>
		</g>
		<g>
			<g>
				<path class="st13" d="M470.3,463.7c-1.3-1.7-3.3-2.8-5.6-2.9c-2.3-0.2-4.5,0.5-6.3,2c-5.6,4.6-12.3,9.8-19.4,13.8
					c-7.5,4.3-14.4,6.6-21.2,7.2c-3.6,0.3-7.4,0.2-11.4-0.3c-3.6-0.5-7.4-1.3-11.7-2.5l-1.5-0.4c-0.5-0.1-1-0.3-1.5-0.4l-2.9-0.9
					l-2.9-1c-0.6-0.2-1.3-0.4-1.9-0.7c-0.3-0.1-0.7-0.3-1-0.4l-1.4-0.5l-1.4-0.6c-0.3-0.1-0.7-0.3-1-0.4c-0.6-0.2-1.2-0.5-1.9-0.7
					l-1.1-0.5c-1.5-0.6-3.1-1.3-4.6-1.9c-1.2-0.5-2.7-0.1-3.2,1v0c-0.6,1.1-0.1,2.5,1.1,3.2c1.5,0.8,3,1.7,4.4,2.5l1.1,0.6
					c0.6,0.3,1.2,0.6,1.8,1c0.3,0.2,0.7,0.3,1,0.5l1.4,0.7l1.4,0.7c0.3,0.2,0.7,0.3,1,0.5c0.6,0.3,1.2,0.6,1.9,0.9l2.9,1.4l2.9,1.3
					c0.4,0.2,0.9,0.4,1.5,0.6l1.5,0.6c4.4,1.8,8.5,3.1,12.4,4.1c4.6,1.1,9.1,1.7,13.4,1.8c0.1,0,0.2,0,0.3,0c0.2,0,0.4,0,0.5,0
					c0,0,0,0,0,0l2.6-0.1c0.8,0,1.6-0.1,2.4-0.2c0.4,0,0.7-0.1,1.1-0.1c0.3,0,0.7-0.1,1-0.1c0.8-0.1,1.6-0.2,2.4-0.3l1.9-0.4
					c0.5-0.1,1-0.2,1.5-0.3c4.2-1,8.4-2.4,12.9-4.3c3.9-1.7,7.7-3.6,11.8-5.9c3.4-1.9,6.9-4.1,11.1-6.7c2-1.4,3.4-3.4,3.9-5.6
					C472.1,467.6,471.7,465.5,470.3,463.7z"/>
			</g>
			<g>
				<path class="st5" d="M450.2,490.8l17.2-11.6c5.2-3.5,6.9-10.3,3.4-15.5l-0.4-0.3c-3.5-5.2-10.6-6.5-15.8-3L437.4,472
					L450.2,490.8z"/>
			</g>
			<g>
				<path class="st1" d="M460.9,457.8c-2.4,0-4.7,0.7-6.6,2.1l-11.8,8l0.4,0.5l11.7-7.9c4.4-3,10.2-2.4,14,1l0.5-0.4
					C466.9,459,464,457.8,460.9,457.8z M472.7,466.5l-0.6,0.4c1.2,4.5-0.7,9.5-4.9,12.3l-5.1,3.5l0.4,0.5l5.1-3.5
					C472.3,476.6,474.2,471.2,472.7,466.5z M450.2,490.8l-8-11.8l-0.5,0.4l8.4,12.3l3.9-2.6l-0.4-0.5L450.2,490.8z"/>
			</g>
		</g>
		<g>
			<g>
				<g>
					<rect x="517.2" y="498.7" class="st8" width="62.8" height="2.1"/>
				</g>
			</g>
			<g>
				<g>
					<polygon class="st2" points="517.2,498.7 556.2,498.7 544.2,466.8 505.2,466.8 					"/>
				</g>
			</g>
			<g>
				<g>
					<path class="st1" d="M528.5,485.6c0.8,3.3,2.4,5.7,3.6,5.4s1.6-3.2,0.8-6.5c-0.8-3.3-2.4-5.7-3.6-5.4
						C528,479.4,527.7,482.3,528.5,485.6z"/>
				</g>
			</g>
		</g>
		<g>
			<g>
				<g>
					<rect x="267.9" y="498.7" class="st6" width="62.8" height="2.1"/>
				</g>
			</g>
			<g>
				<g>
					<polygon class="st5" points="330.7,498.7 291.7,498.7 303.8,466.8 342.7,466.8 					"/>
				</g>
			</g>
			<g>
				<g>
					<path class="st1" d="M319.4,485.6c-0.8,3.3-2.4,5.7-3.6,5.4c-1.2-0.3-1.6-3.2-0.8-6.5c0.8-3.3,2.4-5.7,3.6-5.4
						C319.9,479.4,320.2,482.3,319.4,485.6z"/>
				</g>
			</g>
		</g>
		<g>
			<g>
				<g>
					<path class="st10" d="M567.4,497.2c0-1.1,0.7-2.1,1.7-2.2l2.2-0.3l2.2-0.3c1.5-0.2,2.9-0.4,4.4-0.7c2.9-0.5,5.7-1,8.5-1.7
						c2.8-0.7,5.5-1.5,8.1-2.4c2.6-1,5.1-2.1,7.3-3.5c2.3-1.4,4.4-2.9,6.4-4.8c2-1.8,4-3.8,6-5.9c2-2.1,4-4.3,6-6.5
						c2-2.2,4.1-4.4,6.2-6.6c1.4-1.4,3.2-1.9,5.1-1.8c1.9,0.2,3.7,1.1,5,2.7s2,3.6,1.9,5.4c-0.1,1.8-0.8,3.5-2.2,4.7
						c-2.3,1.8-4.6,3.6-6.9,5.4c-2.3,1.9-4.6,3.8-7,5.7c-2.4,1.9-4.9,3.8-7.6,5.6c-2.7,1.8-5.6,3.4-8.7,4.6c-3,1.3-6.2,2.2-9.3,2.9
						c-3.1,0.7-6.2,1.1-9.3,1.4c-3.1,0.3-6.1,0.4-9.1,0.5c-1.5,0-3,0-4.5,0l-2.3,0l-2.3-0.1C568.3,499.2,567.4,498.3,567.4,497.2z"
						/>
				</g>
			</g>
			<g>
				<path class="st1" d="M623,487.4l12.6-11.1c3.8-3.3,4.6-9,1.2-12.8l0,0c-3.3-3.8-9.5-4.4-13.3-1l-12.6,11.1L623,487.4z"/>
			</g>
			<g>
				<path class="st12" d="M610.4,473.5l2.2,2.5l0.3-0.2l-2-2.2l2.9-2.6l-0.2-0.3L610.4,473.5z M617.2,468l5.3-4.6l-0.2-0.3l-5.3,4.6
					L617.2,468z M626.6,460.4l0,0.4c3.5-1.1,7.7-0.1,10.2,2.8c1.5,1.7,2.2,3.8,2.1,5.9l0.4,0c0.1-2.3-0.7-4.4-2.2-6.1
					c-0.4-0.4-0.8-0.8-1.3-1.2C633.2,460,629.7,459.4,626.6,460.4z M614.9,478.1l-0.3,0.2l4.3,4.9l0.3-0.2L614.9,478.1z
					 M634.7,477.2l-9.9,8.7l0.3,0.2l9.9-8.7L634.7,477.2z"/>
			</g>
		</g>
	</g>
	<g>
		<path class="st8" d="M685,608.7c0,0.8-0.3,1.5-0.8,2c-0.5,0.5-1.2,0.8-2,0.8H17.8c-1.5,0-2.8-1.3-2.8-2.8c0-0.8,0.3-1.5,0.8-2
			c0.5-0.5,1.2-0.8,2-0.8h664.4C683.7,605.9,685,607.1,685,608.7z"/>
	</g>
</g>
</svg>
