<?xml version="1.0" encoding="utf-8"?>
<!-- Generator: Adobe Illustrator 24.2.0, SVG Export Plug-In . SVG Version: 6.00 Build 0)  -->
<svg version="1.1" id="图层_1" xmlns="http://www.w3.org/2000/svg" xmlns:xlink="http://www.w3.org/1999/xlink" x="0px" y="0px"
	 viewBox="0 0 700 700" style="enable-background:new 0 0 700 700;" xml:space="preserve">
<style type="text/css">
	.st0{fill:#DAEBFF;}
	.st1{fill:#B0D8FF;}
	.st2{fill:#EBF5FF;}
	.st3{fill:#D3E2F9;}
	.st4{fill:#D1E3FF;}
	.st5{fill:#F5FCFF;}
	.st6{fill:#006DFE;}
	.st7{fill:url(#SVGID_1_);}
	.st8{fill:#FFFFFF;}
	.st9{fill:#00B77B;}
	.st10{fill:#0ACE68;}
	.st11{fill:#153077;}
	.st12{fill:#FEA587;}
	.st13{fill:#0E2354;}
	.st14{clip-path:url(#SVGID_3_);fill:#141F72;}
	.st15{clip-path:url(#SVGID_5_);fill:#141F72;}
	.st16{clip-path:url(#SVGID_7_);fill:#EA756C;}
	.st17{fill:#1E2889;}
	.st18{fill:#0054FC;}
	.st19{fill:#EA756C;}
	.st20{fill:#FFACA6;}
	.st21{clip-path:url(#XMLID_20_);fill:#084684;}
	.st22{clip-path:url(#SVGID_9_);fill:#EA756C;}
	.st23{clip-path:url(#SVGID_11_);fill:#1E2889;}
	.st24{fill:#E3EEFF;}
	.st25{fill:#E2EEFF;}
	.st26{clip-path:url(#XMLID_21_);fill:#06438C;}
	.st27{clip-path:url(#XMLID_21_);fill:#115FBC;}
	.st28{clip-path:url(#SVGID_13_);fill:#EA756C;}
	.st29{clip-path:url(#SVGID_15_);fill:#EA756C;}
	.st30{clip-path:url(#SVGID_17_);fill:#FE8E00;}
	.st31{opacity:0.35;clip-path:url(#SVGID_19_);fill:#393D3C;}
	.st32{fill:#273263;}
	.st33{clip-path:url(#SVGID_21_);fill:#053FA5;}
	.st34{fill:#0542BF;}
	.st35{fill:#2B3568;}
	.st36{fill:#0A0D26;}
	.st37{fill:#191E56;}
	.st38{clip-path:url(#SVGID_23_);fill:#172375;}
	.st39{fill:#FC8300;}
	.st40{clip-path:url(#SVGID_25_);fill:#FF9E22;}
	.st41{fill:#FE8E00;}
	.st42{clip-path:url(#SVGID_27_);fill:#EA756C;}
	.st43{clip-path:url(#SVGID_29_);fill:#172272;}
	.st44{clip-path:url(#SVGID_31_);fill:#EA756C;}
	.st45{opacity:0.35;clip-path:url(#SVGID_33_);fill:#393D3C;}
	.st46{clip-path:url(#SVGID_35_);fill:#053FA5;}
	.st47{fill:none;}
	.st48{fill:#053FA5;}
</style>
<g>
	<g>
		<g>
			<rect x="545" y="271.3" class="st0" width="146.4" height="3.6"/>
			<rect x="562.8" y="274.3" class="st0" width="2.7" height="17.4"/>
			<rect x="670.2" y="274.3" class="st0" width="2.7" height="17.4"/>
		</g>
		<g>
			<rect x="562.3" y="247.1" class="st1" width="8.4" height="25.4"/>
			<rect x="572" y="247.1" class="st1" width="8.4" height="25.4"/>
			<rect x="581.8" y="247.1" class="st1" width="8.4" height="25.4"/>
			<rect x="591.5" y="247.1" class="st1" width="8.4" height="25.4"/>
			<rect x="601.3" y="247.1" class="st1" width="8.4" height="25.4"/>
			<rect x="611" y="247.1" class="st1" width="8.4" height="25.4"/>
		</g>
		<rect x="628.2" y="220.1" class="st1" width="56.9" height="52"/>
		<rect x="633.1" y="224.6" class="st0" width="47.2" height="43.1"/>
		<circle class="st2" cx="656.5" cy="246.2" r="11.8"/>
	</g>
	<ellipse class="st0" cx="122.2" cy="552.8" rx="60.7" ry="15.2"/>
	<ellipse class="st0" cx="220.9" cy="534.4" rx="52.4" ry="13.1"/>
	<ellipse class="st0" cx="464.6" cy="535.8" rx="36.3" ry="12.6"/>
	<ellipse class="st0" cx="526.9" cy="546.2" rx="36.3" ry="12.6"/>
	<rect x="35.9" y="511.8" class="st3" width="541.1" height="4.3"/>
	<g>
		<g>
			<g>
				<rect x="579.2" y="364.6" class="st2" width="119.8" height="159.8"/>
				<rect x="585.4" y="371.1" class="st4" width="107.2" height="37.2"/>
				<rect x="585.4" y="414.9" class="st4" width="107.2" height="37.2"/>
				<rect x="585.4" y="459.9" class="st4" width="107.2" height="37.2"/>
				<path class="st5" d="M642.8,379.1c0,2.2-1.7,3.9-3.7,3.9c-2.1,0-3.7-1.8-3.7-3.9s1.7-3.9,3.7-3.9
					C641.1,375.1,642.8,376.9,642.8,379.1z"/>
				<path class="st5" d="M642.8,422.7c0,2.2-1.7,3.9-3.7,3.9c-2.1,0-3.7-1.8-3.7-3.9s1.7-3.9,3.7-3.9
					C641.1,418.7,642.8,420.5,642.8,422.7z"/>
				<path class="st5" d="M642.8,467.5c0,2.2-1.7,3.9-3.7,3.9c-2.1,0-3.7-1.8-3.7-3.9c0-2.2,1.7-3.9,3.7-3.9
					C641.1,463.5,642.8,465.3,642.8,467.5z"/>
			</g>
			<rect x="552.9" y="364.6" class="st4" width="28.7" height="159.8"/>
		</g>
	</g>
	<path class="st1" d="M520.7,192.5H208.6c-7.1,0-12.8,5.7-12.8,12.8v19.9v206.6c0,7.1,5.7,12.8,12.8,12.8h312.1
		c7.1,0,12.8-5.7,12.8-12.8V225.2v-19.9C533.4,198.2,527.7,192.5,520.7,192.5z"/>
	<g>
		<g>
			<path class="st6" d="M516.5,198.1H208.4c-7,0-12.6,5.6-12.6,12.6v19.7h333.3v-19.7C529.1,203.7,523.4,198.1,516.5,198.1z"/>
			<linearGradient id="SVGID_1_" gradientUnits="userSpaceOnUse" x1="195.7965" y1="338.6649" x2="529.0712" y2="338.6649">
				<stop  offset="0" style="stop-color:#B0D8FF"/>
				<stop  offset="1.537955e-02" style="stop-color:#B3D9FF"/>
				<stop  offset="0.145" style="stop-color:#C4E1FF"/>
				<stop  offset="0.3014" style="stop-color:#D1E7FF"/>
				<stop  offset="0.5117" style="stop-color:#D8EAFF"/>
				<stop  offset="1" style="stop-color:#DAEBFF"/>
			</linearGradient>
			<path class="st7" d="M195.8,230.4v204c0,7,5.6,12.6,12.6,12.6h308.1c7,0,12.6-5.6,12.6-12.6v-204H195.8z"/>
		</g>
		<g>
			<path class="st8" d="M335.6,259.7H221.2c-0.8,0-1.4-0.6-1.4-1.4v-4.7c0-0.8,0.6-1.4,1.4-1.4h114.4c0.8,0,1.4,0.6,1.4,1.4v4.7
				C337,259.1,336.3,259.7,335.6,259.7z"/>
			<path class="st8" d="M335.6,275.8H221.2c-0.8,0-1.4-0.6-1.4-1.4v-4.7c0-0.8,0.6-1.4,1.4-1.4h114.4c0.8,0,1.4,0.6,1.4,1.4v4.7
				C337,275.2,336.3,275.8,335.6,275.8z"/>
			<path class="st8" d="M335.6,291.9H221.2c-0.8,0-1.4-0.6-1.4-1.4v-4.7c0-0.8,0.6-1.4,1.4-1.4h114.4c0.8,0,1.4,0.6,1.4,1.4v4.7
				C337,291.3,336.3,291.9,335.6,291.9z"/>
			<path class="st8" d="M335.6,308.1H221.2c-0.8,0-1.4-0.6-1.4-1.4V302c0-0.8,0.6-1.4,1.4-1.4h114.4c0.8,0,1.4,0.6,1.4,1.4v4.7
				C337,307.4,336.3,308.1,335.6,308.1z"/>
			<path class="st8" d="M335.6,324.2H221.2c-0.8,0-1.4-0.6-1.4-1.4v-4.7c0-0.8,0.6-1.4,1.4-1.4h114.4c0.8,0,1.4,0.6,1.4,1.4v4.7
				C337,323.6,336.3,324.2,335.6,324.2z"/>
		</g>
		<g>
			<path class="st8" d="M506.5,418H334.4c-0.8,0-1.5-0.7-1.5-1.5v-71.7c0-0.8,0.7-1.5,1.5-1.5h172.1c0.8,0,1.5,0.7,1.5,1.5v71.7
				C508,417.3,507.3,418,506.5,418z"/>
			<path class="st0" d="M503.3,383.3v28.4c0,1.3-1,2.3-2.3,2.3H339.3c-1.3,0-2.3-1-2.3-2.3v-62.4c14.9,0,22.4,5.6,26.7,12.9
				c0.3,0.5,0.6,0.9,0.8,1.4c7.4,14,5.2,33.1,21.4,33.1c0.6,0,1.2-0.1,1.7-0.2c0.3-0.1,0.7-0.2,1-0.3c10.9-4.6,9.2-37.2,28.6-37
				c4.1,0.1,7.2,1.6,9.7,4.2c0.2,0.3,0.5,0.5,0.7,0.8c8.7,10.2,8.8,32.9,22.2,37.1c4.8,1.5,9.1-0.5,13.3-3.9
				c0.3-0.2,0.5-0.4,0.8-0.7c8.9-7.4,17.7-20,31.4-16.9c0.4,0.1,0.8,0.2,1.2,0.3C498.6,380.8,500.9,381.8,503.3,383.3z"/>
			<path class="st9" d="M503.3,377.5c-2.9,0-5.1,1-6.9,2.6c-3.3,2.9-5.1,7.9-6.8,12.8c-2.6,7.3-5.3,14.8-13.1,14.8
				c-0.4,0-0.9,0-1.3-0.1c-5.1-0.5-8.9-4.7-12.2-10.4c-2.1-3.5-3.9-7.7-5.9-11.9c-5.4-11.9-11-24.2-21.4-24.5c-0.1,0-0.2,0-0.3,0
				c-3.1,0-5.7,1.2-7.8,3.2c-4.4,4-7.2,11.2-9.9,18.2c-4,10.4-8.2,21.2-17.6,21.4c-6.7,0.1-9.8-2.4-12.6-7.2
				c-1.1-1.9-2.1-4.1-3.2-6.6c-2.1-4.6-4.8-10.4-9.2-17.2c-2.9-4.5-6.7-7.4-10.7-9.1c-10.8-4.7-23.6-1.3-27.5,0v-1.1
				c4.3-1.3,16.2-4.4,26.7-0.4c4.6,1.7,9,4.8,12.3,10c4.4,6.8,7.1,12.6,9.2,17.3c1.2,2.6,2.2,4.9,3.3,6.7c2.6,4.5,5.4,6.7,11.5,6.5
				c8.7-0.2,12.6-10.2,16.6-20.7c2.8-7.2,5.6-14.5,10.1-18.6c2.4-2.2,5.3-3.5,8.9-3.4c11,0.3,16.7,12.9,22.3,25.1
				c1.9,4.1,3.7,8.2,5.7,11.6c3.2,5.5,6.7,9.5,11.5,10c8.1,0.8,10.6-6.4,13.4-14.1c1.7-4.8,3.4-9.6,6.6-12.8c2-2,4.6-3.3,8.1-3.3
				L503.3,377.5z"/>
		</g>
		<g>
			<g>
				<path class="st10" d="M308.5,371.8c-4.5-19.8-22.1-34.5-43.2-34.5v44.3L308.5,371.8z"/>
				<path class="st8" d="M265.3,381.6v-44.3c-24.5,0-44.3,19.8-44.3,44.3c0,24.5,19.8,44.3,44.3,44.3c24.5,0,44.3-19.8,44.3-44.3
					c0-3.4-0.4-6.6-1.1-9.8L265.3,381.6z"/>
			</g>
			<circle class="st0" cx="265.3" cy="382.4" r="33.9"/>
		</g>
		<g>
			<path class="st8" d="M505.8,328.4H348c-1,0-1.8-0.8-1.8-1.8v-78.3c0-1,0.8-1.8,1.8-1.8h157.8c1,0,1.8,0.8,1.8,1.8v78.3
				C507.5,327.6,506.7,328.4,505.8,328.4z"/>
			<path class="st10" d="M499.4,257.6c-1.7,0-3,1.6-3,3.7c0,0.7,0.2,1.3,0.4,1.8l-24.7,33.5c-0.4-0.2-0.7-0.3-1.1-0.3
				c-0.4,0-0.9,0.1-1.2,0.3l-26.5-31.4c0.2-0.5,0.3-1,0.3-1.5c0-2-1.4-3.6-3-3.6s-3,1.6-3,3.6c0,0.6,0.1,1.1,0.3,1.5l-34.1,44.4
				c-0.5-0.4-1.1-0.7-1.7-0.7c-0.5,0-1,0.2-1.5,0.5l-18.7-29.3c0.4-0.6,0.6-1.3,0.6-2.1c0-2-1.4-3.6-3-3.6c-1.7,0-3,1.6-3,3.6
				c0,0.7,0.2,1.3,0.4,1.8l-20.9,32.7c-0.3-0.1-0.7-0.2-1.1-0.2c-1.7,0-3,1.6-3,3.6c0,2,1.4,3.6,3,3.6c1.7,0,3-1.6,3-3.6
				c0-0.7-0.2-1.4-0.5-2l20.9-32.6c0.4,0.2,0.8,0.3,1.2,0.3c0.3,0,0.6-0.1,0.9-0.2l18.9,29.7c-0.2,0.4-0.3,0.9-0.3,1.5
				c0,2,1.4,3.6,3,3.6c1.7,0,3-1.6,3-3.6c0-0.4-0.1-0.7-0.2-1.1l34.3-44.6c0.4,0.3,0.9,0.4,1.4,0.4c0.5,0,1-0.2,1.4-0.5l26.4,31.3
				c-0.2,0.5-0.4,1.1-0.4,1.8c0,2,1.4,3.6,3,3.6c1.7,0,3-1.6,3-3.6c0-0.7-0.2-1.3-0.4-1.9l24.6-33.5c0.4,0.2,0.8,0.3,1.2,0.3
				c1.7,0,3-1.6,3-3.6C502.4,259.2,501.1,257.6,499.4,257.6z"/>
		</g>
	</g>
	<g>
		<g>
			<path class="st11" d="M200,532.9c0,0-1.8,3.9-4.2,5.7c-11.8-6.1-22.4-15-26.3-18.5c0.3-0.9,0.9-1.9,1.7-3c1.5-2,5.5-7.8,8.3-11.8
				c0.8,2.2,3.2,5.8,10,8.5c-2.7,5.1,4,11,7.7,13.9C201.1,530.8,200,532.9,200,532.9z"/>
			<path class="st12" d="M193.3,508.1c0,0-0.2,0.3-3.5,5.4c-0.1,0.1-0.2,0.3-0.2,0.4c-6.8-2.7-9.2-6.4-10-8.5c1.6-2.3,2.8-4,2.8-4
				L193.3,508.1z"/>
			<path class="st13" d="M195.8,538.6c-0.6,0.5-1.2,0.8-1.8,0.9c-3.2,0.6-20.5-12.3-23.1-14.5c-1.7-1.5-2-3-1.4-4.9
				C173.4,523.6,184,532.5,195.8,538.6z"/>
		</g>
		<g>
			<path class="st11" d="M270.5,530.2c0,0,0.2,4.3-1,7c-13.3,0.2-26.8-2.7-31.9-3.9c-0.2-1-0.1-2.1,0.1-3.4
				c0.3-2.4,1.2-9.5,1.8-14.3c1.8,1.5,5.6,3.6,12.9,2.8c0,5.8,8.7,7.8,13.4,8.6C270.6,527.8,270.5,530.2,270.5,530.2z"/>
			<path class="st12" d="M252.9,511.5c0,0-0.1,0.3-0.5,6.4c0,0.2,0,0.3,0,0.4c-7.3,0.8-11.1-1.3-12.9-2.8c0.3-2.8,0.6-4.9,0.6-4.9
				L252.9,511.5z"/>
			<path class="st13" d="M269.5,537.2c-0.3,0.7-0.7,1.3-1.2,1.7c-2.5,2.1-23.9-1.2-27.2-1.9c-2.2-0.5-3.2-1.7-3.5-3.6
				C242.7,534.5,256.2,537.4,269.5,537.2z"/>
		</g>
		<g>
			<defs>
				<path id="SVGID_2_" d="M237.7,386.1c0,0-2.2,29.1-5,42.9c-2.8,13.8-3,25.8-13.5,43.3s-27.1,38.4-27.1,38.4s-10.7-2-10-10.7
					c0,0,19.8-29.8,22-56.4c2.2-26.7,3.6-54.6,3.6-54.6L237.7,386.1z"/>
			</defs>
			<use xlink:href="#SVGID_2_"  style="overflow:visible;fill:#1E2889;"/>
			<clipPath id="SVGID_3_">
				<use xlink:href="#SVGID_2_"  style="overflow:visible;"/>
			</clipPath>
			<path class="st14" d="M218.5,385.2c0,0-1.1,63.6-5.6,74.3c-4.4,10.7-26.5,48.7-26.5,48.7l-11.6-9.1l27.3-111.5L218.5,385.2z"/>
		</g>
		<g>
			<defs>
				<path id="SVGID_4_" d="M250.9,382.4l1.8,0.8c0,0,6.2,35.1,8,49.9c1.8,14.8-1.6,46.7-3.8,59.8c-2.2,13.1-3.8,21.5-3.8,21.5
					s-9.7,2-15.6-3.4c0,0,4.2-50.5,0.2-65.2c-4-14.7-5-21.1-5-21.1l1.2-42.3H250.9z"/>
			</defs>
			<use xlink:href="#SVGID_4_"  style="overflow:visible;fill:#1E2889;"/>
			<clipPath id="SVGID_5_">
				<use xlink:href="#SVGID_4_"  style="overflow:visible;"/>
			</clipPath>
			<path class="st15" d="M256.6,392.5c0,0-13.2,35.3-15.9,73.4c-2.7,38.1-4.4,6.3-4.4,6.3l-9-52.9l0.2-34.1c0,0,20.8-5.2,21.2-5.3
				c0.4-0.1,5.9-0.9,5.7,0C254.1,380.8,256.6,392.5,256.6,392.5z"/>
		</g>
		<g>
			<defs>
				<path id="SVGID_6_" d="M267.9,316.1c0,0,7,5.3,8.9,3.6c2.1-1.8,14.5-23.7,14.5-23.7s1-5.3,2.8-8.4c1.7-2.8,5.5-7.2,8.8-3.4
					c1,1.1,4.2,7.8,1.7,10.2c-2.8,2.6-1.7,1.2-6.3,4.2c-1.9,1.2-12.7,33.7-22,34.7c-4,0.4-14.3-7.4-14.3-7.4L267.9,316.1z"/>
			</defs>
			<use xlink:href="#SVGID_6_"  style="overflow:visible;fill:#FFACA6;"/>
			<clipPath id="SVGID_7_">
				<use xlink:href="#SVGID_6_"  style="overflow:visible;"/>
			</clipPath>
			<path class="st16" d="M267.6,331.9c0,0,7.4-1.9,7.2-14.6c-0.2-12.7-8.8-3.2-8.8-3.2l-5.7,10.7L267.6,331.9z"/>
		</g>
		
			<rect x="312.8" y="233.6" transform="matrix(0.8226 0.5686 -0.5686 0.8226 207.382 -131.1741)" class="st17" width="2.3" height="66.3"/>
		<path class="st18" d="M211.1,337.8c6.4-8.4,5.5-20.8,4.9-25.4c0.4,6.6-3.6,20.3-3.6,20.3s-0.1,0.4-0.3,1.2
			C211.8,334.9,211.5,336.2,211.1,337.8z"/>
		<path class="st18" d="M216,312.5c0-0.7-0.1-1.3-0.3-1.8C215.7,310.7,215.8,311.3,216,312.5z"/>
		<path class="st18" d="M249.8,308.7c3.1,7.7,2.1,14.2,2.1,14.2l1.4,0.9c0.2-1.6,0.4-3.4,0.4-5C253.9,314.4,249.8,308.7,249.8,308.7
			z"/>
		<path class="st6" d="M268.2,312.8c0,0-9.4-8.7-12.7-13.6c-4.1-6-16.3-7.2-16.3-7.2l-11.6,0.1l-2-0.3c0,0-16.5,1-21.4,12.9
			c-4.9,11.9-6.9,23.3-6.9,23.3s0.3,0.4,0.9,0.9c1.7,1.6,5.6,4.6,10.6,4.5c1.2,0,2.4-0.2,3.6-0.6c0,0,4.1-13.8,3.6-20.3
			c-0.2-1.1-0.3-1.8-0.3-1.8c0.2,0.5,0.2,1.1,0.3,1.8c0.6,4.6,1.6,16.9-4.9,25.4c-1.1,4.8-2.7,12.6-3.8,21.2
			c-0.7,5.4-1.1,11.2-1,16.7c0.1,4.7,0.5,9.2,1.4,13.2c0,0,1.1,0.9,3.4,1.8c2,0.8,5,1.5,9,1.7c7.3,0.3,18-1.5,32.6-9.2
			c0,0-3.8-15.3-2.1-34.6c1.7-19.3,1.3-25.7,1.3-25.7s1-6.6-2.1-14.2c0,0,4.1,5.7,3.9,10.1c-0.1,1.7-0.2,3.5-0.4,5l8,5.1
			C261.3,328.9,269.5,320.8,268.2,312.8z"/>
		<g>
			<path class="st19" d="M206,342.2c0.9-3,2-6.3,2.8-8.8c-5,0-8.9-3-10.6-4.5c-0.5,1.5-1.2,3.4-1.8,5.3
				C199.5,335.3,204.1,337.6,206,342.2z"/>
			<path class="st20" d="M216,378.8c0,0-5.2-10.8-8.7-19.7c-2-5.1-4.3-6.9-3.9-8.4c0.3-1.3,1.8-6.1,2.5-8.5c-1.8-4.5-6.4-6.9-9.6-8
				c-1.7,5.4-4.4,14.4-4.2,17.3c0.3,3.8,9.3,15.8,14.2,24.4c2.1,3.7,3.6,6.3,3.6,6.3s0.9,4.2,1.2,8.7c0.1,1.2,0.1,2.5,0.1,3.6
				c-0.2,5.5,6.8,4.7,8.3,0.6c0.3-0.8,0.5-1.6,0.5-2.6C220.5,388.6,218.9,383.7,216,378.8z"/>
		</g>
		<path class="st19" d="M238.1,286.7c-0.2-1.8-0.2-4,0-6.2l-5.7-7.4l-7.2,2.9c0,0,1.6,4.4,1.3,9.7
			C229,285.2,233.4,284.8,238.1,286.7z"/>
		<g>
			<defs>
				<path id="XMLID_230_" d="M247.4,258.2c0,0,7.1-4.1,6.8-11.3c-0.3-7.2-3.6-12.6-10.5-12c-6.9,0.6-6.9-3.3-10.9-4.5
					c-3.9-1.2-12.1,0.9-12.4,6.7c-0.3,5.8-8,2.6-10.4,6.3c-2.4,3.7-3.2,8.7-1.6,12.4s-0.9,5.1-0.8,9.3c0.1,4.2,5.5,9.6,10.9,8.7
					c5.3-0.9,3.5,5.1,11.2,4.1C237.4,276.7,247.4,258.2,247.4,258.2z"/>
			</defs>
			<use xlink:href="#XMLID_230_"  style="overflow:visible;fill:#054AA9;"/>
			<clipPath id="XMLID_20_">
				<use xlink:href="#XMLID_230_"  style="overflow:visible;"/>
			</clipPath>
			<path class="st21" d="M229.6,278.7c0,0,0-0.8-2.2-2.5c-2.2-1.7-3.7-4.6-3.7-7.4c0-2.9,1.3-2.8,3-5.5c1.8-2.7-0.2-5,4.2-6.1
				c4.4-1,16-2.2,17.1-5.6c1.2-3.4,3,4.2,3,4.2l-13.7,12L229.6,278.7z"/>
		</g>
		<g>
			<defs>
				<path id="SVGID_8_" d="M248.5,254c0,0,3.5,18.5-0.5,25.9c-4,7.4-13.6,1.9-16.8-5.3c0,0-4,1.3-5.4-4.7c-1.4-5.9,4.4-4.8,4.9-3.1
					c0,0-2.4-5.9,0.4-7.1C234,258.7,248.1,258.6,248.5,254z"/>
			</defs>
			<use xlink:href="#SVGID_8_"  style="overflow:visible;fill:#FFACA6;"/>
			<clipPath id="SVGID_9_">
				<use xlink:href="#SVGID_8_"  style="overflow:visible;"/>
			</clipPath>
			<path class="st22" d="M229.6,277.3c0,0-5.3-7.3-1.6-7.9c3.8-0.6,4.4-0.9,4.3-2.5c-0.1-1.7-1.4-4.1,1.4-4.4
				c2.8-0.3,15.2-2.7,16.5-4.8c1.3-2.1-0.7-4.9-0.7-4.9l-5.2,2.9l-14.8,2.9l-2.4,5.1l-2.8,4l2.4,7.9L229.6,277.3z"/>
		</g>
		<g>
			<path class="st20" d="M226.6,285.7c-0.1,2-0.4,4-1.1,6.1c0,0,4.4,6.5,13.6,0.3c0,0-0.7-2.2-1-5.3
				C233.4,284.8,229,285.2,226.6,285.7z"/>
		</g>
	</g>
	<path class="st19" d="M525.8,402.6c0,0-32.4-6.5-34.5-8.7s-9.3-8.5-16.4-5.9c-7.1,2.6-7.2,6.6,1.2,8.4c8.4,1.8,6.9,4.4,13.7,3.8
		c0,0,18.1,10.4,37.2,14.1L525.8,402.6z"/>
	<g>
		<defs>
			<path id="SVGID_10_" d="M511.8,336.4c0,0-10.4-6.7-11.1-15.2c-0.7-8.5,5.9-13.3,10.1-13.3c0,0,4.5-14.1,18.8-10.7
				c14.3,3.3,19,19.4,19.7,25.2c0.6,5.8,8.7,21.7,3.5,26.1c-5.2,4.4-15.8,9.7-15.8,9.7s-20.2,4.1-24.3,1.1c0,0,5.6-6,3.9-13.9
				C515,337.5,511.8,336.4,511.8,336.4z"/>
		</defs>
		<use xlink:href="#SVGID_10_"  style="overflow:visible;fill:#0542BF;"/>
		<clipPath id="SVGID_11_">
			<use xlink:href="#SVGID_10_"  style="overflow:visible;"/>
		</clipPath>
		<path class="st23" d="M505.7,335.3c0,0,0.6-18.3,5.6-20c0,0,9.1,9.8,22.2,9.4c2.8-0.4,6.5,2.2,2.8,13.1
			c-3.7,10.9,9.7,18.3,9.7,18.3l-20.7,10.7l-15.6-5.6L505.7,335.3z"/>
	</g>
	<g>
		
			<rect x="19.5" y="201.3" transform="matrix(-1 -1.224647e-16 1.224647e-16 -1 190.4987 583.3617)" class="st4" width="151.5" height="180.8"/>
		
			<rect x="12.5" y="201.3" transform="matrix(-1 -1.224647e-16 1.224647e-16 -1 180.3263 583.3617)" class="st24" width="155.2" height="180.8"/>
		
			<rect x="19.5" y="382.1" transform="matrix(-1 -1.224647e-16 1.224647e-16 -1 190.4987 777.0449)" class="st4" width="151.5" height="12.9"/>
		
			<rect x="1" y="382.1" transform="matrix(-1 -1.224647e-16 1.224647e-16 -1 157.2269 777.0449)" class="st24" width="155.2" height="12.9"/>
		
			<rect x="9.5" y="223.8" transform="matrix(-1.836970e-16 1 -1 -1.836970e-16 381.8441 201.5177)" class="st5" width="161.4" height="135.8"/>
		<polygon class="st8" points="141.4,372.4 84.4,211 57.5,211 114.5,372.4 		"/>
		<path class="st25" d="M153.6,317.6c0.4,0,0.7-0.3,0.7-0.7v-99.6c0-0.4-0.3-0.7-0.7-0.7c-0.4,0-0.7,0.3-0.7,0.7v99.6
			C152.9,317.3,153.2,317.6,153.6,317.6z"/>
		<polygon class="st8" points="108.7,372.4 51.8,211 41.3,211 98.2,372.4 		"/>
		
			<rect x="-57.8" y="291.1" transform="matrix(-1.836970e-16 1 -1 -1.836970e-16 314.5529 268.809)" class="st4" width="161.4" height="1.2"/>
		<polygon class="st4" points="10.3,223.4 161.8,223.4 162.7,214.8 11.1,214.8 		"/>
		<polygon class="st4" points="10.3,229.7 161.8,229.7 162.7,221.1 11.1,221.1 		"/>
		<polygon class="st4" points="10.3,237.3 161.8,237.3 162.7,228.7 11.1,228.7 		"/>
		<polygon class="st4" points="10.3,245.8 161.8,245.8 162.7,237.1 11.1,237.1 		"/>
		<polygon class="st4" points="10.3,255.9 161.8,255.9 162.7,247.3 11.1,247.3 		"/>
		<polygon class="st4" points="10.3,267.3 161.8,267.3 162.7,258.6 11.1,258.6 		"/>
	</g>
	<rect x="334.7" y="458.9" class="st0" width="38.9" height="17.2"/>
	<rect x="350.4" y="476.1" class="st2" width="38.9" height="17.2"/>
	<g>
		<defs>
			<path id="XMLID_223_" d="M533.2,350.4l2.3,0.6c0,0,3.5-0.8,8.8,7.8s12.5,29.2,9.4,57.3c0,0-12.7,7.1-27.3,0
				c0,0-0.6-11.7-5.6-21.2c-5-9.5-3-20.7-2.2-22.7c0.8-1.9,8.4-19.9,8.4-19.9L533.2,350.4z"/>
		</defs>
		<use xlink:href="#XMLID_223_"  style="overflow:visible;fill:#054AA9;"/>
		<clipPath id="XMLID_21_">
			<use xlink:href="#XMLID_223_"  style="overflow:visible;"/>
		</clipPath>
		<path class="st26" d="M516,398.9l22.5-26.3c0,0,9.4,39.4-2.5,49l-13.2-4L516,398.9z"/>
		<path class="st27" d="M552.1,419.7l-1.3-2.4c0,0,3.3-15.2-1-31.1c-4.2-15.8-7.9-23.6-16.2-34.7l5.2-2.9l10,8.3l9.2,29.3
			c0,0,0.4,19.2,0.4,19.9c0,0.7-3.2,12.5-3.2,12.5L552.1,419.7z"/>
	</g>
	<path class="st20" d="M539.9,360.5L539.9,360.5c-2.7-1.8-6.4-1-8.2,1.7l-23.4,36.1c-3.9,0.5-32.5,4.5-35,3.3
		c-2.7-1.3-11.6-5-17.4-0.1c-5.9,4.8-4.6,8.6,3.9,7.5c8.6-1.1,8,1.8,14.2-0.9c0,0,18.6,3.4,37,1.3c2.3,0.4,4.7-0.5,6-2.6l24.7-38
		C543.5,366,542.7,362.3,539.9,360.5z"/>
	<path class="st19" d="M526.9,348.2c-0.1-2.6-0.5-5.7-1.6-7.6l6.6-8.6l1.2,2.5c0,0,0.5,3.8,1.2,7.7
		C532.4,342.8,529.4,344.3,526.9,348.2z"/>
	<path class="st20" d="M534.3,342.2c0.7,3.9,1.6,8.1,2.2,8.8c0,0-3.9,3.7-9.6,1.3c0,0,0.1-1.8,0-4.1
		C529.4,344.3,532.4,342.8,534.3,342.2z"/>
	<g>
		<defs>
			<path id="SVGID_12_" d="M511.7,317.7c0,0-4.1,23.7,4.7,27.8c8.8,4.1,15.2-8.6,15.2-9.6c0,0,4.6-0.4,3.8-5.3s-4.5-3-4.5-3
				S517,326,511.7,317.7z"/>
		</defs>
		<use xlink:href="#SVGID_12_"  style="overflow:visible;fill:#FFACA6;"/>
		<clipPath id="SVGID_13_">
			<use xlink:href="#SVGID_12_"  style="overflow:visible;"/>
		</clipPath>
		<path class="st28" d="M535.5,335.4c0,0-1.6-4.6-5.3-4c-3.7,0.6-15.3-2.5-20.6-10.1l0.2-5.5l15.1,5.9l11.8,5l0.5,7.2L535.5,335.4z"
			/>
	</g>
	<g>
		<g>
			<defs>
				<path id="SVGID_14_" d="M490.5,524.4c-8.8,13.8-17.2,11.2-17.2,11.2l-1.1-0.9c0.1,0,0.1,0,0.1,0s2.8-5.1,5-9.3
					c1.7-3.3-2.4-35.1-4.2-56.6c-0.5-5.6-0.8-10.6-0.7-14.1c0.1-9.9,2.9-13.5,5.3-14.8c1.7-0.9,3.1-0.6,3.1-0.6l9.3,19.3l-3.2,2.8
					c3.9,13.7,1.9,31.8,0.8,45c-1.1,13.2,1.4,16.1,1.4,16.1C489.6,523.1,490.1,523.8,490.5,524.4z"/>
			</defs>
			<use xlink:href="#SVGID_14_"  style="overflow:visible;fill:#FFACA6;"/>
			<clipPath id="SVGID_15_">
				<use xlink:href="#SVGID_14_"  style="overflow:visible;"/>
			</clipPath>
			<path class="st29" d="M477.5,517.4c0,0,2.2-37.3,5.5-45c3.3-7.7,3.9-10.3,7.4-9.7l2.9-5.7c0,0-5.9-13.4-5.8-13.8
				s-8.1-3.9-8.1-3.9l-7.3,9.9v19.2l-1,16.9L477.5,517.4z"/>
		</g>
		<path class="st17" d="M490.5,524.4c-8.8,13.8-17.2,11.2-17.2,11.2l-1.1-0.9c-0.8,0.5-7.2,4.3-8,8.2c-0.8,4.1,15.1,4.2,18.1,0.1
			l4.3-7.5l1.1,8.3l2.1,0l1.6-10.2C491.4,533.5,493.2,529.2,490.5,524.4z"/>
	</g>
	<g>
		<path class="st17" d="M446.1,521.7l-0.1-0.1c-0.9,0.2-7.8,2.1-9.4,5.4c-1.8,3.6,12.8,7.8,16.6,4.8l5.9-5.8l-1.1,7.9l2,0.5l4.2-9
			c0,0,2.6-3.2,1.6-8C452.9,526.9,446.1,521.7,446.1,521.7z"/>
		<path class="st20" d="M478.9,436.7l-0.3-0.8c0,0-7.2-3.5-11.7,12c-4.5,15.5-10.7,63.1-13.8,66.3c-3.1,3.2-7,7.2-7,7.2s0,0-0.1,0
			l0.1,0.1c0,0,6.8,5.2,19.6-4.3c-0.2-0.9-0.5-1.8-0.9-2.8c0,0-1.5-3.3,2.9-15.2c3.5-9.4,9.3-22.4,11.2-34.4l2.2-9.9l0.7-4.4
			L478.9,436.7z"/>
	</g>
	<g>
		<defs>
			<path id="SVGID_16_" d="M553.3,414.3l0.3,1.7c0,0,1.4,8.1,3.6,15.4c2.6,8.8-1.5,22.5-12.8,24.9c-11.3,2.5-54.9,2.4-54.9,2.4
				s-13.9-12.9-14.4-23.5c0,0,27-7.8,49.2-10.1l2.5-11.6L553.3,414.3z"/>
		</defs>
		<use xlink:href="#SVGID_16_"  style="overflow:visible;fill:#FFAB00;"/>
		<clipPath id="SVGID_17_">
			<use xlink:href="#SVGID_16_"  style="overflow:visible;"/>
		</clipPath>
		<path class="st30" d="M540.6,413.6c0,0,3.4,23.6-13,27.7c-16.5,4.1-51.5,9.2-51.5,9.2s-4.7-15.2-4.9-17.2
			c-0.2-2.1,19.7-11,21.8-11.2c2.1-0.2,27.5-1,27.5-2c0-1,1.4-10,1.4-10L540.6,413.6z"/>
	</g>
	<g>
		<g>
			<g>
				<defs>
					<path id="SVGID_18_" d="M529.1,473v41.6h-6.6v-39.7C524.8,473.2,527.2,472.9,529.1,473z"/>
				</defs>
				<use xlink:href="#SVGID_18_"  style="overflow:visible;fill:#0542BF;"/>
				<clipPath id="SVGID_19_">
					<use xlink:href="#SVGID_18_"  style="overflow:visible;"/>
				</clipPath>
				<path class="st31" d="M530.6,476.5c0,0-5.7,0.9-8.9,6.6c-3.2,5.6-5.9-0.7-5.3-3.2c0.6-2.6,0.3-5.2,2-7.2c1.7-2,4.9-4.8,9.2-3.7
					c4.4,1.1,4.9,0.5,4.7,2.9c-0.2,2.4-0.7,5-0.7,5"/>
			</g>
			<ellipse class="st32" cx="549.7" cy="543.9" rx="5.1" ry="5.3"/>
			<path class="st32" d="M520.4,548.6c0,2.9,2.3,5.3,5.1,5.3c2.8,0,5.1-2.4,5.1-5.3c0-2.9-2.3-5.3-5.1-5.3
				C522.7,543.4,520.4,545.7,520.4,548.6z"/>
			<path class="st32" d="M496.4,543.9c0,2.9,2.3,5.3,5.1,5.3c2.8,0,5.1-2.4,5.1-5.3c0-2.9-2.3-5.3-5.1-5.3
				C498.7,538.6,496.4,541,496.4,543.9z"/>
			<path class="st17" d="M530.3,514.5c0,0-4.4-1.7-9.1,0l-0.1,5.9l-23.1,17.8v4.2h6.8l0.1-3.3l17.7-12.9l-0.1,16.2l0.9,3.8h4.6
				l0.8-3.8l0.2-15.8l17.6,12.3l0.1,3.2l6.3,0v-4.5l-22.6-17.3v-3.6L530.3,514.5z"/>
		</g>
		<path class="st32" d="M575.1,417.1v17.3c0,0,1.1,11.2-4,16.8c-4.6,5.1-15,8.9-16.9,9.5c-0.2,0.1-0.3,0.1-0.3,0.1l-2.4-5.4
			c-0.7-0.1,6.7-2,14-8.3c2.4-2.1,2.7-7.7,2.8-12.1c0.1-4.4,0-18.4,0-18.4l6.9-0.5L575.1,417.1z"/>
		<g>
			<defs>
				<path id="SVGID_20_" d="M494.6,475.1H558c0.9,0,1.6-0.7,1.6-1.6v-16.7c0-0.9-0.7-1.6-1.6-1.6h-63.4c-0.9,0-1.6,0.7-1.6,1.6v16.7
					C493,474.3,493.7,475.1,494.6,475.1z"/>
			</defs>
			<use xlink:href="#SVGID_20_"  style="overflow:visible;fill:#0542BF;"/>
			<clipPath id="SVGID_21_">
				<use xlink:href="#SVGID_20_"  style="overflow:visible;"/>
			</clipPath>
			<polygon class="st33" points="491.2,464.5 567.9,464.5 563.3,450.8 493.3,453.6 			"/>
		</g>
		<path class="st34" d="M563.7,417.6h17.6c0.9,0,1.6-0.7,1.6-1.6v-47.4c0-0.9-0.7-1.6-1.6-1.6h-17.6c-0.9,0-1.6,0.7-1.6,1.6v47.4
			C562.1,416.9,562.8,417.6,563.7,417.6z"/>
	</g>
	<g>
		<g>
			<path class="st34" d="M192.7,410l-3.6-1c-0.2-0.1-0.3-0.3-0.3-0.5l13.6-48.2c0.1-0.2,0.3-0.3,0.5-0.3l3.6,1
				c0.2,0.1,0.3,0.3,0.3,0.5l-13.6,48.2C193.1,409.9,192.9,410,192.7,410z"/>
			<path class="st34" d="M189.1,413.8h-52.3c-0.2,0-0.3-0.1-0.3-0.3V409c0-0.2,0.1-0.3,0.3-0.3h52.3c0.2,0,0.3,0.1,0.3,0.3v4.4
				C189.3,413.6,189.2,413.8,189.1,413.8z"/>
		</g>
	</g>
	<g>
		<path class="st35" d="M424.2,409.8l2.7-0.8c0.5-0.1,0.7-0.6,0.6-1.1l-13.4-47.3c-0.1-0.5-0.6-0.7-1.1-0.6l-2.7,0.8
			c-0.5,0.1-0.7,0.6-0.6,1.1l13.4,47.3C423.3,409.7,423.7,410,424.2,409.8z"/>
		<path class="st35" d="M427.3,413.8h52.3c0.2,0,0.3-0.1,0.3-0.3V409c0-0.2-0.1-0.3-0.3-0.3h-52.3c-0.2,0-0.3,0.1-0.3,0.3v4.4
			C427.1,413.6,427.2,413.8,427.3,413.8z"/>
	</g>
	<path class="st36" d="M149.8,526.8c0,0,0.1,4.5-0.3,8c-0.4,3.6-3.1,6.1-2.2,9.6c0.9,3.5,11,4.6,18.2,6.2c7.1,1.6,13.7,0.7,13.3-4.8
		c-0.4-5.5-12.3-4.6-16.2-11.8c-3.9-7.2-2.4-8.2-2.4-8.2L149.8,526.8z"/>
	<path class="st37" d="M161.3,439.1c0,0,3.6,1.9,3.6,8s-1.8,81.5-1.8,81.5s-7,5.7-15.7-0.8l-2.1-41.8L161.3,439.1z"/>
	<g>
		<defs>
			<path id="SVGID_22_" d="M115.5,430.7c0,0,30.5,0.8,41.5,3.3c13.2,3,12.9,14.5,9.8,24c-3.1,9.5-34.6,70.4-34.6,70.4
				s-6.6,3.6-15-4.4c0,0,24.3-56.8,22.4-60.8s-44.9,1.2-51.5-6.7c-1.2-1.4,2.7-7,2.7-7L115.5,430.7z"/>
		</defs>
		<use xlink:href="#SVGID_22_"  style="overflow:visible;fill:#1E2889;"/>
		<clipPath id="SVGID_23_">
			<use xlink:href="#SVGID_22_"  style="overflow:visible;"/>
		</clipPath>
		<path class="st38" d="M99.1,461.5c0,0,10.9-0.2,23.1-10.6c12.2-10.4,34.2-15.1,41.9,7.1c4.5,11.2,4.5,11.2,4.5,11.2
			s4.4-22.7,4.4-23.2c0-0.5-2.7-13.8-3.7-15.3c-1-1.5-55.8-5.1-55.8-5.1l-18.2,13.4l-7.5,18.7L99.1,461.5z"/>
	</g>
	<g>
		<path class="st19" d="M182.6,400.2c-6.1-5-15.3-1.2-18.2,0.1c-2.2,1-23.3-1.6-32.6-2.9l-25-38.5c-1.9-3-5.9-3.8-8.9-1.9l-0.4,0.3
			c-3,1.9-3.8,5.9-1.9,8.9l25.5,39.2c0.5,0.7,1,1.3,1.7,1.7l-0.5,1c20,3,41.4-1.2,41.4-1.2c6.5,2.9,5.9-0.2,14.8,1
			S188.7,405.2,182.6,400.2z"/>
		<path class="st39" d="M100.5,389.5c0,0-7.6-13-10.7-20.4c-3.1-7.4-4.9-16.4-1.1-19.7c3.9-3.3,10.4-3.1,13.9,1.8
			c3.5,4.8,16.5,25.6,16.5,25.6S114.5,392.2,100.5,389.5z"/>
	</g>
	<g>
		<defs>
			<path id="SVGID_24_" d="M89.7,341.9l-1.7,0.2c0,0-5.6,1.1-8.8,9.2c-3.2,8.1-7.4,25.5-7.7,33.7c-0.4,8.3-2.2,38.7,3.4,54.1
				c5.5,15.3,10.8,18.9,14.9,18.9c0,0,26.2,0.8,28.8-27.2c0,0-7.8-1-9.7-7.7c-1.9-6.7-3.5-19.9-3.6-26.7c-0.1-11.3,2.3-28-2.3-45
				c-0.4-2.6-2.7-4.3-2.7-4.3L89.7,341.9z"/>
		</defs>
		<use xlink:href="#SVGID_24_"  style="overflow:visible;fill:#FFAB00;"/>
		<clipPath id="SVGID_25_">
			<use xlink:href="#SVGID_24_"  style="overflow:visible;"/>
		</clipPath>
		<path class="st40" d="M85.2,361.3l-2.4,0.4c0,0,0.5,13.1,3.2,24.4c2.6,11.3,4.3,21.3,5.1,36.2c0.7,15,18.2,31.7,18.2,31.7
			l16.2-26.6c0,0-12-21.6-12.2-23.5c-0.2-1.9-10.8-30.8-10.8-30.8L85.2,361.3z"/>
	</g>
	<path class="st20" d="M178.9,405.4c-6.1-5-15.3-1.2-18.2,0.1c-2.5,1.2-28.3-2.3-35.3-3.2l-24.8-38.1c-1.9-3-5.9-3.8-8.9-1.9
		l-0.4,0.3c-3,1.9-3.8,5.9-1.9,8.9l25.5,39.2c0.9,1.4,2.2,2.3,3.7,2.7l0,0.1c20,3,41.4-1.2,41.4-1.2c6.5,2.9,5.9-0.2,14.8,1
		C183.7,414.4,185,410.5,178.9,405.4z"/>
	<path class="st41" d="M96.7,394.8c0,0-7.6-13-10.7-20.4c-3.1-7.4-4.9-16.4-1.1-19.7c3.9-3.3,10.4-3.1,13.9,1.8
		c3.5,4.8,16.5,25.6,16.5,25.6S110.7,397.4,96.7,394.8z"/>
	<g>
		<defs>
			<path id="SVGID_26_" d="M90.9,329.4l0.5,3.2c0,0-0.8,6.2-3.4,9.5c0,0,0.4,2.7,4.5,4.7c4.2,2,7.6,0.4,7.6,0.4s-0.7-4.7,1.2-10.5
				s2-6,2-6l-7.4-8.6L90.9,329.4z"/>
		</defs>
		<use xlink:href="#SVGID_26_"  style="overflow:visible;fill:#FFACA6;"/>
		<clipPath id="SVGID_27_">
			<use xlink:href="#SVGID_26_"  style="overflow:visible;"/>
		</clipPath>
		<path class="st42" d="M86.2,334.1c0,0,11.5,1.8,14.9,10.1l4.3-11.9l1.3-6.9L93.8,323c0,0-2.6,3.1-3.6,5.5S86.2,334.1,86.2,334.1z"
			/>
	</g>
	<g>
		<defs>
			<path id="SVGID_28_" d="M110.1,306.8l1.3-1.9c0,0,7.2-3.2,8.8-11c1.6-7.8-0.8-10.5-0.8-10.5s-6.4,5.8-14.9,5.4
				c-8.6-0.4-18.9-3.5-27.4,8.1c-8.5,11.6,1,23.5,3.2,26.4c2.2,2.9,11.2,9.3,11.2,9.3l6.9-10.3L110.1,306.8z"/>
		</defs>
		<use xlink:href="#SVGID_28_"  style="overflow:visible;fill:#1E2889;"/>
		<clipPath id="SVGID_29_">
			<use xlink:href="#SVGID_28_"  style="overflow:visible;"/>
		</clipPath>
		<path class="st43" d="M77.6,322.2c0,0,6.7,2,9-5.5c2.3-7.6,8.9-10.9,18.6-14.1c9.7-3.2,15.9-6.9,17.9-10.8l-3.2,16.3L108,324.3
			l-14.7,12.2l-12-4.6L77.6,322.2z"/>
	</g>
	<g>
		<defs>
			<path id="SVGID_30_" d="M111.2,304.2c0,0,3.6,13.7,2.6,22c-0.9,8.3-10.7,11.4-18.3-1.5c0,0-4.6-0.1-4.7-6.7
				c0-2.7,1.9-3.7,4.3-2.8c0,0,0.6-3.3,3.4-3.4c2.9-0.1,2.5-3.5,4.1-4.3C104.3,306.6,109.2,307.8,111.2,304.2z"/>
		</defs>
		<use xlink:href="#SVGID_30_"  style="overflow:visible;fill:#FFACA6;"/>
		<clipPath id="SVGID_31_">
			<use xlink:href="#SVGID_30_"  style="overflow:visible;"/>
		</clipPath>
		<path class="st44" d="M90.2,322.2c0,0,1.5-3,5.5-3.4c4-0.4,18.3-10.2,18.3-10.2l-2.1-6.5l-16.2,3.4l-8.2,8.6L90.2,322.2z"/>
	</g>
	<g>
		<g>
			<g>
				<defs>
					<path id="SVGID_32_" d="M98.7,477.2v41.6h6.6V479C103,477.4,100.5,477.1,98.7,477.2z"/>
				</defs>
				<use xlink:href="#SVGID_32_"  style="overflow:visible;fill:#0542BF;"/>
				<clipPath id="SVGID_33_">
					<use xlink:href="#SVGID_32_"  style="overflow:visible;"/>
				</clipPath>
				<path class="st45" d="M97.2,480.7c0,0,5.7,0.9,8.9,6.6c3.2,5.6,5.9-0.7,5.3-3.2c-0.6-2.6-0.3-5.2-2-7.2c-1.7-2-4.9-4.8-9.2-3.7
					c-4.4,1.1-4.9,0.5-4.7,2.9c0.2,2.4,0.7,5,0.7,5"/>
			</g>
			<ellipse class="st32" cx="78" cy="548.1" rx="5.1" ry="5.3"/>
			<path class="st32" d="M107.4,552.8c0,2.9-2.3,5.3-5.1,5.3c-2.8,0-5.1-2.4-5.1-5.3c0-2.9,2.3-5.3,5.1-5.3
				C105.1,547.5,107.4,549.9,107.4,552.8z"/>
			<path class="st32" d="M131.4,548.1c0,2.9-2.3,5.3-5.1,5.3c-2.8,0-5.1-2.4-5.1-5.3c0-2.9,2.3-5.3,5.1-5.3
				C129.1,542.8,131.4,545.2,131.4,548.1z"/>
			<path class="st17" d="M97.5,518.6c0,0,4.4-1.7,9.1,0l0.1,5.9l23.1,17.8v4.2H123l-0.1-3.3l-17.7-12.9l0.1,16.2l-0.9,3.8h-4.6
				l-0.8-3.8l-0.2-15.8l-17.6,12.3l-0.1,3.2l-6.3,0V542l22.6-17.3v-3.6L97.5,518.6z"/>
		</g>
		<path class="st32" d="M52.7,421.3v17.3c0,0-1.1,11.2,4,16.8c4.6,5.1,15,8.9,16.9,9.5c0.2,0.1,0.3,0.1,0.3,0.1l2.4-5.4
			c0.7-0.1-6.7-2-14-8.3c-2.4-2.1-2.7-7.7-2.8-12.1c-0.1-4.4,0-18.4,0-18.4l-6.9-0.5L52.7,421.3z"/>
		<g>
			<defs>
				<path id="SVGID_34_" d="M133.2,479.2H69.8c-0.9,0-1.6-0.7-1.6-1.6v-16.7c0-0.9,0.7-1.6,1.6-1.6h63.4c0.9,0,1.6,0.7,1.6,1.6v16.7
					C134.8,478.5,134.1,479.2,133.2,479.2z"/>
			</defs>
			<use xlink:href="#SVGID_34_"  style="overflow:visible;fill:#0542BF;"/>
			<clipPath id="SVGID_35_">
				<use xlink:href="#SVGID_34_"  style="overflow:visible;"/>
			</clipPath>
			<polygon class="st46" points="65.7,467.9 136.4,467.9 134.8,456.3 63.2,457 			"/>
		</g>
		<path class="st34" d="M64.1,421.8H46.5c-0.9,0-1.6-0.7-1.6-1.6v-47.4c0-0.9,0.7-1.6,1.6-1.6h17.6c0.9,0,1.6,0.7,1.6,1.6v47.4
			C65.7,421.1,65,421.8,64.1,421.8z"/>
	</g>
	<g>
		<path class="st47" d="M117.2,524c0.4,0.3,0.7,0.7,1.1,1c2.1-2.4,3.9-5.1,3.9-5.1l8.9,5.4c0,0-1.1-0.1-2.2,4c2-0.1,3.3-0.8,3.3-0.8
			s31.5-60.9,34.6-70.4s3.5-21.1-9.8-24c-11-2.5-41.5-3.3-41.5-3.3l-24.8,18.7c0,0-3.9,5.6-2.7,7c6.6,7.9,49.6,2.7,51.5,6.7"/>
		<path class="st36" d="M129,529.2c-2.5,0.1-6.3-0.5-10.7-4.3c-0.3,0.4-0.7,0.8-1.1,1.2c-2.4,2.6-6.1,3.1-7.5,6.4
			c-1.3,3.3,6.1,10.3,10.9,15.8c4.8,5.5,10.6,8.7,13.6,4c3-4.7-7.2-11-6-19.1C128.4,531.6,128.7,530.2,129,529.2z"/>
	</g>
	<g>
		<g>
			<rect x="118.5" y="414.3" class="st48" width="409.2" height="4.9"/>
			<rect x="118.5" y="419.2" class="st34" width="409.2" height="6.5"/>
		</g>
		<rect x="142.1" y="425.7" class="st32" width="5.1" height="134.3"/>
		<rect x="498.1" y="425.7" class="st32" width="5.1" height="134.3"/>
	</g>
	<g>
		<polygon class="st1" points="514.7,194.4 514,196.4 364.6,134.4 215.3,196.4 214.5,194.4 362.9,132.8 364.6,132.1 366.4,132.8 		
			"/>
	</g>
</g>
</svg>
