<?xml version="1.0" ?><!DOCTYPE svg  PUBLIC '-//W3C//DTD SVG 1.1//EN'  'http://www.w3.org/Graphics/SVG/1.1/DTD/svg11.dtd'><svg enable-background="new 0 0 126 126" id="Layer_1" version="1.1" viewBox="0 0 126 126" xml:space="preserve" xmlns="http://www.w3.org/2000/svg" xmlns:xlink="http://www.w3.org/1999/xlink"><g><path d="M20.217,85.4745c1.4882-0.2166,15.6165,4.4122,17.114,10.7417   c1.4976,6.3382,12.8003,12.9354,17.6132,11.306s11.1234,0.1131,11.1234,0.1131l3.9746,1.9214l0.9042,0.4332h0.0094L125,78.7863   l-67.4382-39.199L5.232,69.8022c-1.6483,0.9511-3.0233,2.3638-3.7392,4.1252C-2.4819,83.6473,18.8513,85.663,20.217,85.4745z" fill="#F3F6FD"/><g><path d="M70.9465,109.9899h0.0094l10.73-6.1953c0.2553-0.4395,0.5438-1.0674,0.6858-1.8379    c0.1595-0.916,0.516-1.8564,1.1846-2.814l3.4594-5.5566c0,0-0.0316-0.0122-0.0991-0.0298    c0.1221-0.1318,0.2147-0.2217,0.2147-0.2217c1.1743-0.0776,1.2958-1.0537,1.1754-1.2397    c-0.1163-0.1914,0.3282-0.7422,0.3282-0.7422h-0.38c0,0-0.2486,0.4849-0.3505,0.6167c-0.1021,0.1318-0.57,0.3296-0.3661-0.2637    c0.2037-0.5923,0.1212-0.5024-0.7907-0.772c-0.6823-0.1978-1.1359-0.0059-1.3212,0.1021c-0.0608,0.0298-0.07,0.0713-0.0468,0.0952    c0.1463,0.1201,0.4246,0.5093,0.4246,0.5093c0.1818,0.2695-0.0044,0.8081-0.1682,1.4009    c-0.0496,0.1855-0.1057,0.3232-0.2102,0.4731c-0.0927,0.0181-0.1894,0.042-0.2903,0.0718c0,0-1.9402,1.9341-3.8817,4.0415    l1.6143-2.5986c0,0-0.0474-0.0181-0.1349-0.0356c0.1137-0.1201,0.1979-0.1978,0.1979-0.1978    c1.1643-0.0776,1.2858-1.0537,1.1796-1.2456c-0.1204-0.1855,0.3141-0.7363,0.3141-0.7363h-0.38c0,0-0.2386,0.4849-0.3506,0.6167    c-0.1019,0.1318-0.5698,0.3296-0.3659-0.2637c0.2037-0.5923,0.1211-0.5024-0.7907-0.7725    c-0.6823-0.1973-1.1319-0.0112-1.3212,0.1025c-0.0609,0.0293-0.07,0.0713-0.0367,0.0952    c0.1463,0.1201,0.4186,0.5034,0.4186,0.5034c0.1877,0.2754,0.0016,0.814-0.1624,1.4072c-0.0453,0.1792-0.1056,0.3228-0.206,0.4668    c-0.0824,0.0176-0.1552,0.0356-0.2418,0.0596c0,0-5.4865,4.6646-8.0536,10.0171c-0.0292,0.042-0.0527,0.0898-0.0719,0.1318    c-0.0419,0.0596-0.0345,0.0776-0.0345,0.0776l-1.1423,1.8081l-0.2845,0.0781l-0.9175,1.1138    c-0.1012-0.2275-0.5059-0.3354-1.0369-0.2339c-0.5091,0.0967-1.0992,0.25-1.6986,0.4263l2.2938,1.1089L70.9465,109.9899z" fill="#E1E9F4"/></g><path d="M66.6642,93.4407c2.709-3.2212,5.967-10.3941,6.0678-10.7534c0.0192-0.0418,0.0143-0.0778-0.0148-0.1076   l0.845-1.0241c0.0333-0.0477,0.0326-0.0898,0.0035-0.1196c0,0-0.3999-0.4011-0.804-0.4669   c-0.0873-0.0181-0.4626,0.1614-0.4626,0.1614c-0.5169-0.7063-0.7524-0.856-1.563-0.8981   c-0.3376-0.0178-2.2141,0.2637-2.0354,0.4374c0.0541,0.0658,0.1481,0.1316,0.2963,0.1915c0.4537,0.2096,1.0783,1.1197,1.428,1.6644   c-0.0483,0.012-0.081,0.0301-0.0935,0.048c-0.15,0.4011-2.8737,3.4428-4.7544,5.5205c1.2133-2.1675,2.1734-4.0295,2.2089-4.2093   c0.0019-0.0599-0.0349-0.1076-0.1323-0.1257h-0.0099l1.0126-1.1495c0.0335-0.0479,0.027-0.0959-0.0206-0.1137l-1.2969-0.3052   c-0.1123-0.0541-0.3665,0.0237-0.4377,0.1257l-0.0384,0.0836c-1.3468-0.7063-2.4658-0.7364-3.4081-0.5327   c-0.5435,0.1196-0.9223,0.2754-0.6084,0.4131c0.1025,0.0538,0.539,0.1017,0.733,0.1675c0.7685,0.2456,1.1448,0.8382,1.3254,1.2814   c-0.1084,0.012-0.1768,0.024-0.1768,0.024c0.0259,0.3353-3.1722,4.6581-4.2415,5.8316c-0.6533,0.7066-1.9809,2.5508-2.7082,3.5925   l-9.5803,2.6645c-0.4137,0.1199-0.9409,0.3593-1.1762,0.5388l-0.2764,0.2096c-0.03,0-0.0657-0.0061-0.0958-0.0061   c-0.14,0-1.2936,0.7785-1.4221,0.9341l-0.0043,0.0061c-0.0333,0.0477-0.1453,0.1795,0.0212,0.2274l-1.5418,1.1914   c-0.0902,0.0719-0.1177,0.1257-0.0988,0.1558l0.0057,0.0061l0.2255,0.2213c0.0349,0.036,0.1832,0.024,0.4291-0.0418l4.7639-1.3232   l1.8975,0.0178c0.5847,0.1079,1.0434,0.2815,0.9918,0.6707c-0.1397,0.9879-1.1755,3.1732-0.495,4.0175   c0.0043-0.0061,0.0043-0.0061,0.0084-0.012c0.2555,0.5508,1.2552,0.6227,1.8052,0.6227c-0.0041,0.0058-0.0227,0.0181-0.0368,0.024   l-0.0084,0.012c-0.1667,0.0956-0.3496,0.1856-0.548,0.2693c-0.1845,0.0781-0.3431,0.2336-0.3504,0.545   c0.0057,0.0778-0.0472,0.1678-0.1614,0.2456c-0.2186,0.1555-0.5309,0.4309-0.7399,0.6587   c-0.9802,0.1435-0.9528,0.892-0.1857,1.4548c1.113,0.8265,2.7255,0.0781,2.7255,0.0781c1.858-0.1976,2.7027-1.8085,2.7027-1.8085   c0.2936-0.4491,0.0807-0.6885-0.1887-0.6464c-0.0163-0.1199-0.0709-0.2994-0.176-0.5929c-0.0016-0.012-0.0192-0.0298-0.0482-0.0599   c0.0282-0.0117,0.0508-0.0298,0.0835-0.0479c1.1849-0.3652,3.3936-0.9218,4.0501-1.2033c0.0568-0.024,0.1035-0.0479,0.1502-0.0719   c0.0424-0.0178,0.0849-0.0357,0.1316-0.0596c0.0894-0.0421,0.1786-0.0839,0.262-0.1319c0.0468-0.024,0.0835-0.0479,0.1202-0.0719   c0.6944-0.4073,0.9685-0.8142,1.0961-1.2691c0.0043-0.0061,0.0043-0.0061,0.0043-0.0061c0.5807-1.018,1.4922-3.1256,1.9038-4.1734   c0.0235-0.0479,0.0327-0.0898,0.0319-0.1316c0.9175-1.042,1.9472-2.0298,2.4264-2.4727   C66.6185,93.6924,66.7357,93.5246,66.6642,93.4407z" fill="#E1E9F4"/><polygon fill="#FAFCFF" points="5.5942,69.5931 43.977,91.6033 53.162,86.3003 14.7787,64.29 15.3301,63.9718 53.7133,85.9821    82.3609,69.4425 43.9765,47.4313 44.5278,47.1131 82.9123,69.1243 92.0922,63.824 53.7074,41.8128 54.2588,41.4945    121.9577,80.5426 121.4064,80.8613 92.5265,64.0765 83.3466,69.3763 112.2266,86.1611 111.6753,86.4798 82.7952,69.6945    73.5308,75.0435 102.4111,91.8284 102.0187,92.0551 73.1384,75.2703 63.7945,80.6648 92.6751,97.4501 92.2875,97.6736    63.4071,80.8883 54.1476,86.2346 83.0283,103.0199 82.477,103.3381 53.5962,86.5528 44.4113,91.8558 73.2923,108.6411    72.7409,108.9594 5.0428,69.9113  "/><path d="M66.7918,52.6071c0.0154,0.0684,0,0.1401,0,0.2002c-0.0154,0.082-0.0308,0.1337-0.0615,0.2072   l-0.5382,1.7364c-0.0922,0.2711-0.2921,0.5158-0.615,0.7151l-39.1453,24.313c-0.615,0.3655-1.3991,0.3513-1.7528-0.0652   l-7.1956-6.8071c-0.1845-0.1971-0.2153-0.4536-0.1383-0.7228l0.5689-1.77c0.0461-0.1258,0.1076-0.2329,0.1845-0.3425   c0.0461-0.0657,0.1076-0.1436,0.1845-0.2028c0.0461-0.0457,0.0922-0.0811,0.1537-0.119c0.0308-0.0238,0.0616-0.0471,0.0922-0.0611   l39.1299-24.3009c0.1537-0.0887,0.3229-0.1597,0.492-0.2103c0.1537-0.0491,0.3229-0.0596,0.4766-0.0585   c0.246-0.0004,0.4612,0.0635,0.6303,0.1824c0.0616,0.0325,0.123,0.085,0.1692,0.1394l7.1956,6.8071   c0.0461,0.0544,0.0922,0.1088,0.1076,0.1767C66.761,52.4708,66.7764,52.5392,66.7918,52.6071z" fill="#E1E9F4"/><g><g><g><g><g enable-background="new    "><g><path d="M64.152,46.2056c0.008,0.7007-0.4835,1.547-1.0878,1.8933l-38.484,22.2234         c-0.3142,0.1774-0.5963,0.1936-0.7977,0.0724l-1.3421-0.7935c-0.2014-0.1208-0.3223-0.3624-0.3223-0.709l-0.0564-28.6213         c0-0.6929,0.4834-1.5388,1.0878-1.8937l38.492-22.2152c0.3062-0.1774,0.5801-0.1932,0.7816-0.0807l1.3583,0.8018         c-0.0161-0.0083-0.0242-0.0161-0.0403-0.0161c0.2175,0.1047,0.3545,0.3545,0.3545,0.7173L64.152,46.2056z" fill="#6262AA"/></g><path d="M23.4193,41.0738l0.0573,28.616c0,0.6967,0.4963,0.9829,1.0977,0.6301l38.4865-22.2157        c0.6108-0.3533,1.0976-1.2029,1.0976-1.8996l-0.0573-28.616c0-0.6967-0.4963-0.9736-1.0976-0.6301L24.517,39.184        C23.9061,39.5275,23.4193,40.3771,23.4193,41.0738z" fill="#3A3A77"/><g><polygon fill="#FFFFFF" points="24.9306,40.6911 24.9865,68.3413 62.6495,46.5951 62.5937,18.937        "/></g></g></g></g></g><g><g><polygon fill="#3887E5" points="61.3443,33.8567 61.375,45.4637 59.3407,46.6383 59.3157,36.4596     "/></g><g><polygon fill="#6B9EF9" points="49.1472,44.2482 51.1836,43.8061 51.2011,51.3377 49.1667,52.5122     "/></g><g><polygon fill="#3887E5" points="53.2143,40.5754 53.2375,50.1619 51.2011,51.3377 51.1836,43.8061     "/></g><g><polygon fill="#6B9EF9" points="53.2143,40.5754 55.2507,40.131 55.2719,48.9874 53.2375,50.1619     "/></g><g><polygon fill="#3887E5" points="57.2793,36.9017 57.3063,47.8128 55.2719,48.9874 55.2507,40.131     "/></g><g><polygon fill="#6B9EF9" points="57.2793,36.9017 59.3157,36.4596 59.3407,46.6383 57.3063,47.8128     "/></g><g><polygon fill="#6B9EF9" points="45.0822,47.9219 47.1186,47.4799 47.1323,53.6868 45.0979,54.8613     "/></g><g><polygon fill="#3887E5" points="49.1472,44.2482 49.1667,52.5122 47.1323,53.6868 47.1186,47.4799     "/></g></g><g><g><path d="M30.4451,57.5905c0.0858,0.5876,0.3047,1.0656,0.6423,1.3867l-2.0801,3.6026      c-0.8787-0.6773-1.401-1.8026-1.5104-3.287L30.4451,57.5905z" fill="#A6C2FF"/></g><g><path d="M33.3081,48.0471l0.0096,3.3796c-1.4909,1.1188-2.6566,3.1378-2.8758,4.989l-2.9483,1.7022      C27.7355,54.3998,30.2065,50.1198,33.3081,48.0471z" fill="#6B9EF9"/></g><g><path d="M35.8868,57.0362l2.0937,1.1932c-1.1523,1.7935-2.6072,3.2623-4.1198,4.1356      c-1.5056,0.8693-2.9711,1.0865-4.1297,0.6273l2.0801-3.603c0.5967,0.1632,1.2978,0.0326,2.0401-0.396      C34.5935,58.5648,35.293,57.8868,35.8868,57.0362z" fill="#B6CBEA"/></g><g><polygon fill="#6B9EF9" points="34.1505,43.3452 34.1529,44.1821 27.465,48.0434 27.4626,47.2065     "/></g><g><polygon fill="#6B9EF9" points="40.1745,37.868 40.1768,38.7049 27.4593,46.0474 27.4569,45.2104     "/></g><g><path d="M34.3305,47.4568c1.3449-0.6558,2.5931-0.7879,3.6184-0.3723l-2.0731,3.5985      c-0.4563-0.1231-0.9822-0.0696-1.5357,0.1533L34.3305,47.4568z" fill="#3887E5"/></g><g><path d="M38.6796,47.5005c0.9841,0.7537,1.5282,2.1245,1.5331,3.8626c0.0049,1.7302-0.5296,3.7232-1.5062,5.6169      l-2.0937-1.1928c0.4392-0.9388,0.6681-1.8852,0.6657-2.73c-0.0024-0.8531-0.2358-1.5325-0.679-1.9615L38.6796,47.5005z" fill="#1E72C6"/></g><g><polygon fill="#6B9EF9" points="40.1688,35.8724 40.1712,36.7093 27.4537,44.0518 27.4513,43.2148     "/></g></g><g><g><path d="M52.0815,32.151v0.5237c0,0.1208-0.0886,0.266-0.1934,0.3305c-0.0483,0.3222-0.0967,0.6366-0.1692,0.951      c0.1209-0.0165,0.1692,0.0885,0.129,0.2254l-0.1773,0.5882c-0.0322,0.1047-0.1047,0.2014-0.1772,0.2416      c-0.0242,0.0161-0.0564,0.0244-0.0806,0.0244c-0.129,0.3305-0.274,0.6527-0.4271,0.9667      c0.0886,0.0484,0.0886,0.1936,0.0161,0.3222l-0.3223,0.5563c-0.0403,0.0645-0.0886,0.1208-0.137,0.1448      c-0.0483,0.0323-0.1048,0.0405-0.137,0.0161c-0.2095,0.2821-0.4271,0.5721-0.6447,0.838c0.0483,0.105,0,0.266-0.0967,0.3706      l-0.419,0.4434c-0.0242,0.024-0.0483,0.0401-0.0725,0.0563c-0.0806,0.0484-0.1531,0.0405-0.1853-0.0323      c-0.2498,0.2014-0.4916,0.4029-0.7494,0.5803c0,0.1448-0.0806,0.2982-0.1934,0.3545l-0.4593,0.266      c-0.1048,0.0641-0.1934,0.0161-0.1934-0.105c-0.2498,0.0889-0.4996,0.1774-0.7413,0.2337      c-0.0403,0.1291-0.1128,0.2258-0.1853,0.266c-0.0242,0.0161-0.0483,0.0244-0.0725,0.0244l-0.427,0.048      c-0.0967,0.0083-0.145-0.0964-0.1048-0.2337c-0.2095-0.0401-0.419-0.0803-0.6205-0.1448      c-0.0483,0.0885-0.1048,0.1369-0.1531,0.1692c-0.0483,0.0244-0.0967,0.0323-0.137,0.0079l-0.3223-0.1849      c-0.0806-0.0405-0.0806-0.1774,0-0.3144c-0.145-0.153-0.2901-0.3144-0.411-0.4997c-0.0403,0.0401-0.0644,0.0645-0.0886,0.0807      c-0.0725,0.0401-0.145,0.0323-0.1772-0.0405l-0.1773-0.3785c-0.0403-0.0885,0-0.2498,0.0967-0.3545      c-0.0483-0.2581-0.1048-0.5075-0.1208-0.7896c-0.137,0.0807-0.2176,0.024-0.2176-0.0968l-0.0081-0.5237      c0-0.1212,0.0886-0.2742,0.1934-0.3305c0.0483-0.3222,0.0967-0.6366,0.1692-0.951c-0.1209,0.0161-0.1692-0.0885-0.1209-0.2333      l0.1692-0.5803c0.0322-0.1047,0.1048-0.2014,0.1853-0.242c0.0242-0.0157,0.0483-0.024,0.0725-0.0323      c0.137-0.3222,0.2739-0.6445,0.4351-0.9584c-0.0967-0.0567-0.0967-0.2014-0.0161-0.3305l0.3223-0.5481      c0.0323-0.0724,0.0806-0.1208,0.137-0.1452c0.0484-0.0323,0.0967-0.0401,0.137-0.0157c0.2095-0.2904,0.419-0.5721,0.6365-0.838      c-0.0483-0.1129,0-0.266,0.0967-0.3706l0.419-0.4434c0.0241-0.024,0.0483-0.0484,0.0806-0.0645      c0.0725-0.0401,0.145-0.0323,0.1773,0.0405c0.2498-0.2097,0.4915-0.4029,0.7494-0.5803c0-0.1531,0.0886-0.2982,0.1934-0.3624      l0.4593-0.2581c0.1048-0.0645,0.1934-0.0161,0.1934,0.1047c0.2579-0.0885,0.4996-0.1771,0.7413-0.2337      c0.0403-0.1287,0.1128-0.2254,0.1854-0.2656c0.0241-0.0161,0.0483-0.0244,0.0725-0.0323L49.64,29.371      c0.0967-0.0079,0.145,0.0968,0.1048,0.2337c0.2175,0.0405,0.427,0.0724,0.6204,0.1452      c0.0564-0.0885,0.1048-0.1369,0.1531-0.1692c0.0483-0.0244,0.0967-0.0323,0.137-0.0161l0.3223,0.1853      c0.0806,0.0401,0.0806,0.1853,0,0.3144c0.145,0.1609,0.2901,0.314,0.411,0.5075c0.0403-0.0484,0.0645-0.0645,0.0886-0.0807      c0.0806-0.0401,0.1531-0.0323,0.1854,0.0323l0.1692,0.3868c0.0483,0.0885,0,0.2498-0.0967,0.3545      c0.0483,0.2498,0.1048,0.5075,0.129,0.7818C51.9928,31.9736,52.0815,32.022,52.0815,32.151z" fill="#9EB5DF"/><path d="M61.3721,26.7844v0.5241c0,0.1208-0.0806,0.2656-0.1934,0.3301      c-0.0403,0.3222-0.0967,0.6366-0.1612,0.951c0.1208-0.0161,0.1612,0.0885,0.1208,0.2254l-0.1692,0.5882      c-0.0323,0.1047-0.1048,0.2014-0.1854,0.242c-0.0241,0.0161-0.0483,0.024-0.0725,0.024      c-0.137,0.3305-0.274,0.6527-0.4351,0.9671c0.0886,0.048,0.0967,0.1932,0.0161,0.3222l-0.3223,0.5559      c-0.0403,0.0645-0.0887,0.1208-0.137,0.1452c-0.0483,0.0319-0.0967,0.0401-0.137,0.0161      c-0.2095,0.2817-0.419,0.5721-0.6446,0.838c0.0483,0.1047,0.0081,0.2656-0.0886,0.3706l-0.4271,0.443      c-0.0241,0.0244-0.0483,0.0401-0.0725,0.0563c-0.0725,0.0484-0.1451,0.0405-0.1773-0.0319      c-0.2498,0.2014-0.4996,0.4029-0.7494,0.5799c0,0.1452-0.0886,0.2982-0.2014,0.3628l-0.4512,0.2577      c-0.1048,0.0645-0.1934,0.0161-0.1934-0.1047c-0.2579,0.0885-0.5076,0.1771-0.7414,0.2337      c-0.0403,0.1287-0.1128,0.2254-0.1934,0.2656c-0.0241,0.0165-0.0483,0.0244-0.0725,0.0244l-0.419,0.0484      c-0.0967,0.0079-0.145-0.0968-0.1048-0.2337c-0.2176-0.0405-0.427-0.0807-0.6205-0.1452      c-0.0564,0.0889-0.1047,0.1369-0.153,0.1692c-0.0484,0.0244-0.1048,0.0323-0.137,0.0083l-0.3223-0.1774      c-0.0806-0.0484-0.0806-0.1853-0.0081-0.314c-0.137-0.1613-0.2821-0.3226-0.4029-0.5079      c-0.0403,0.0405-0.0645,0.0645-0.0967,0.0807c-0.0725,0.0401-0.145,0.0323-0.1773-0.0401l-0.1772-0.3789      c-0.0403-0.0885,0.0081-0.2498,0.1048-0.3545c-0.0483-0.2577-0.1048-0.5075-0.129-0.7814      c-0.1289,0.0724-0.2175,0.0157-0.2175-0.105v-0.5237c0-0.1208,0.0886-0.2738,0.1934-0.3305      c0.0483-0.3222,0.0967-0.6366,0.1612-0.9506c-0.1128,0.0079-0.1612-0.0968-0.1209-0.2337l0.1772-0.5803      c0.0242-0.1047,0.0967-0.2014,0.1773-0.2416c0.0241-0.0161,0.0483-0.0244,0.0725-0.0323      c0.137-0.3222,0.2821-0.6449,0.4352-0.9588c-0.0886-0.0567-0.0886-0.2014-0.0161-0.3226l0.3223-0.5555      c0.0403-0.0728,0.0886-0.1212,0.137-0.1452c0.0483-0.0323,0.0967-0.0405,0.137-0.0161c0.2095-0.2904,0.419-0.5721,0.6446-0.838      c-0.0483-0.1129,0-0.266,0.0967-0.3706l0.419-0.443c0.0242-0.0244,0.0483-0.0488,0.0725-0.0645      c0.0806-0.0405,0.1531-0.0323,0.1853,0.0401c0.2417-0.2093,0.4915-0.4029,0.7413-0.5799c0-0.1534,0.0887-0.2982,0.1934-0.3628      l0.4593-0.2581c0.1128-0.0641,0.2014-0.0157,0.2014,0.1051c0.2498-0.0968,0.4996-0.1774,0.7414-0.2337      c0.0322-0.1291,0.1048-0.2258,0.1853-0.2742c0.0242-0.0079,0.0483-0.0157,0.0725-0.024l0.419-0.0401      c0.1048-0.0083,0.145,0.0964,0.1048,0.2333c0.2176,0.0405,0.4352,0.0728,0.6285,0.1452      c0.0483-0.0885,0.0967-0.1369,0.145-0.1692c0.0564-0.024,0.1048-0.0323,0.145-0.0161l0.3223,0.1853      c0.0725,0.0405,0.0725,0.1853,0,0.3144c0.145,0.1613,0.282,0.3144,0.4109,0.5075c0.0323-0.0484,0.0645-0.0645,0.0887-0.0807      c0.0725-0.0401,0.145-0.0319,0.1772,0.0323l0.1773,0.3868c0.0403,0.0889,0,0.2498-0.1048,0.3549      c0.0564,0.2494,0.1048,0.5075,0.1289,0.7814C61.2835,26.6074,61.3721,26.6554,61.3721,26.7844z" fill="#9EB5DF"/></g><g><g><path d="M60.2521,27.6949c0,1.9987-1.402,4.4318-3.1426,5.439c-1.7405,1.0072-3.1586,0.2014-3.1667-1.8047       c-0.0081-1.9983,1.4101-4.44,3.1426-5.439C58.8258,24.8829,60.244,25.6887,60.2521,27.6949z" fill="#DEE7F8"/></g><g><path d="M50.9615,33.0536c0,1.9983-1.4101,4.4479-3.1426,5.4469c-1.7405,1.0072-3.1586,0.1936-3.1667-1.8047       c-0.0081-1.9983,1.402-4.44,3.1425-5.439C49.5272,30.2495,50.9534,31.0553,50.9615,33.0536z" fill="#DEE7F8"/></g></g><g><path d="M58.3018,29.0353c0.0844,0.2485,0.0586,0.5521-0.1078,0.8972c-0.1172,0.2427-0.2956,0.4112-0.474,0.5536      c-0.1101,0.0899-0.2202,0.162-0.3342,0.2453l0.0017,0.6025l-0.3229,0.1864l-0.0017-0.5937l-0.2469,0.1425l0.0017,0.5937      l-0.3229,0.1864l-0.0017-0.6155l-0.6382,0.3685c0.0224-0.1617,0.041-0.3078,0.0596-0.4628      c0.0646-0.0373,0.1254-0.0724,0.1861-0.1075c0.1292-0.0746,0.1632-0.1381,0.1628-0.2821      c-0.0014-0.5063-0.0029-1.0084-0.0043-1.5104c-0.0005-0.1745-0.0539-0.2092-0.2058-0.1215      c-0.0684,0.035-0.1368,0.0744-0.2013,0.1117l-0.0011-0.3884l0.6344-0.3663l-0.0017-0.598l0.3229-0.1864l0.0016,0.5805      l0.2469-0.1425l-0.0016-0.5805l0.3229-0.1864l0.0017,0.6022c0.2317-0.1338,0.4371-0.1518,0.5171-0.1368      c0.2931,0.0495,0.325,0.5425,0.1356,0.8662c-0.0378,0.0698-0.0871,0.1376-0.1288,0.201l0.0381-0.0001      C58.0996,28.8678,58.248,28.8694,58.3018,29.0353z M57.502,30.1353c0.148-0.1554,0.2084-0.2909,0.208-0.4524      c-0.0042-0.1463-0.0805-0.2114-0.225-0.1936c-0.1711,0.0288-0.3459,0.1297-0.5282,0.235      c-0.0304,0.0176-0.0625,0.038-0.094,0.0562c-0.0158,0.0091-0.0314,0.0176-0.0466,0.025l0.0023,0.8121      c0.0561-0.0315,0.1118-0.0624,0.1671-0.0943C57.1623,30.4212,57.3344,30.3087,57.502,30.1353 M56.8131,28.7099l0.0021,0.7289      c0.0465-0.0259,0.0924-0.0512,0.1376-0.0773c0.1357-0.0783,0.266-0.1633,0.3941-0.2866      c0.1366-0.1268,0.2123-0.2843,0.2156-0.4305c-0.0004-0.144-0.0729-0.2157-0.206-0.1958      c-0.1126,0.0171-0.2282,0.0706-0.346,0.1386C56.9453,28.6249,56.8795,28.6669,56.8131,28.7099" fill="#9EB5DF"/></g><g><path d="M48.0618,32.7394l0.0012,0.432c0.403-0.1188,0.6965,0.0789,0.6978,0.5111l-0.5318,0.307      c-0.0005-0.1833-0.1985-0.2222-0.4302-0.0884c-0.2317,0.1338-0.425,0.3986-0.4245,0.5819      c0.0005,0.1833,0.1947,0.2242,0.4264,0.0904c0.5318-0.307,0.9623-0.1314,0.9637,0.3924      c0.0012,0.432-0.2902,0.9632-0.6926,1.3136l0.0012,0.4322l-0.5318,0.307L47.54,36.5864      c-0.3992,0.1124-0.6927-0.0811-0.694-0.5131l0.5318-0.307c0.0005,0.1833,0.1947,0.2242,0.4264,0.0904      c0.2317-0.1338,0.4288-0.4006,0.4283-0.5839c-0.0005-0.1833-0.1985-0.2222-0.4302-0.0885      c-0.528,0.3049-0.9585,0.1295-0.96-0.3943c-0.0012-0.4322,0.2902-0.9677,0.6888-1.3116l-0.0012-0.432L48.0618,32.7394z" fill="#9EB5DF"/></g></g></g><g><g><g><path d="M68.9322,76.2967c-0.2091,0.397-1.0226,2.2497-1.9571,1.7574c0,0-1.1672,2.3352-2.7358,3.0135      c-0.2405,0.1038-0.7076,0.1911-0.8555,0.2762c-0.4027,0.2315-0.1351,0.4961,0.3199,0.6902      c0.8044,0.3434,1.9453,0.2902,3.7809-0.8885l-0.0165,0.1357c0,0.1783,0.1968,0.3017,0.347,0.2183l1.5087-0.5098      c0.0676-0.0379,0.1072-0.1102,0.1041-0.1906L68.9322,76.2967z" fill="#2A2A5E"/><path d="M65.9338,61.9659c0.0099-0.255,0.2843-1.1054,0.3439-1.6422c0.0173-0.1552,4.1842-0.3844,4.1842-0.3844      c0.7231,2.6669-0.8128,18.0324-1.018,18.7281c-0.0368,0.1012-0.1102,0.1743-0.2208,0.2106      c-1.4983,0.5195-2.9274,0.0107-2.9274,0.0107c0.2618-0.5616,0.0854-7.788-0.171-9.7425      C65.9188,67.5763,65.9096,62.5877,65.9338,61.9659z" fill="#3A3A77"/><path d="M73.3719,79.5404c-0.1521,0.4281-1.0216,1.0646-1.701,0.7119c0,0-2.2662,2.965-3.1247,3.4594      c-0.1839,0.1055-0.3247,0.2162-0.4323,0.3225c-0.2927,0.2919,1.3797,0.7634,1.7323,0.7323      c0.838-0.0745,1.1796-0.3221,2.195-1.4991c0,0,0.2418,0.2949,0.3487,0.2689c0.4466-0.1098,1.1296-0.7795,1.1296-0.7795      c0.0491-0.0477,0.078-0.126,0.0757-0.2059L73.3719,79.5404z" fill="#2A2A5E"/><path d="M74.7366,61.1344c-0.6128,0.2608-3.4778-0.7902-5.2859-0.9578      c-0.2344-0.0213-0.4765-0.0749-0.7175-0.1234c0.0265,0.0987-0.1204,1.2668,0,1.6459c0.5391,1.6957,0.8037,3.1739,0.9142,4.9274      c0.0494,0.7846,0.1012,1.4859,0.129,1.7633c0.0663,0.7238,1.5003,11.4667,1.3032,12.4663      c-0.0276,0.3119,2.401,0.4664,2.4816-0.1877C73.7279,79.9991,75.8847,65.1798,74.7366,61.1344z" fill="#4C4A8B"/></g><g><g><g><g><g><g><g><path d="M71.4876,45.3044c-0.5936-0.1203-2.805-0.4743-2.9403,0.8884            c-0.1564,1.5747,1.0841,2.9314,1.0841,2.9314c1.0829,0,1.6062-0.5971,1.8562-1.2569V45.3044z" fill="#E0A4B2"/><path d="M66.2006,47.2996c-1.2775,1.4067-1.7635,5.0542-2.3163,6.7061            c-0.2185,0.6519-0.7943,0.9378-1.4598,1.1165l-3.8242,0.0736c-0.3097,0.2804-0.5315,0.9434,0.0469,1.5289l5.2297,0.4485            c0.5284-0.0213,1.0104-0.2928,1.2947-0.7459c0.4239-0.6761,1.0254-1.7182,1.627-2.8029v-4.8811            C66.3933,48.3553,66.2092,47.837,66.2006,47.2996z" fill="#4C4A8B"/><path d="M68.8845,45.7015c0,0-0.6599,1.4968,0.7466,1.9421c0,0,1.6088,0.5015,2.0562-1.5004            c0,0,0.9391,2.1372,0.6596,3.2681c-0.2795,1.1309-0.9898,13.8103-0.9898,13.8103s-1.6659,0.7193-4.126-0.5409            c0,0-0.3982-9.7797-0.3659-9.9412S67.699,46.8103,68.8845,45.7015z" fill="#FFFFFF"/><g><path d="M75.0729,62.073c0.061,0.2617,0.0504,0.644-0.2091,0.7234             c-7.7223,2.3605-8.9324-0.8276-8.9324-0.8276c0.5577-3.233-0.1482-8.2439-0.305-12.2352             c-0.1481-3.9913,3.1808-3.425,3.1808-3.425c-0.1743,0.2438-0.2614,0.7234-0.4096,1.3331             c-0.4618,1.9089,0.2091,5.3508,0.7059,7.5733c0.0785-1.5599,0.3224-2.9633,0.8279-3.8432             c1.9085-3.3377,1.4728-5.4466,1.4728-5.4466c0.8453,0.6012,2.9107,1.6297,3.4073,2.1437             c1.6122,1.6646,0.2702,3.2939-0.3485,5.7342C73.8529,56.1822,74.7679,60.6875,75.0729,62.073z" fill="#6262AA"/></g><path d="M71.2014,45.4252c0,0-0.0029,0.0169-0.0089,0.0469c-0.0653,0.3266-0.3663,1.9193-1.5614,2.1714            l0.5891,0.685c0,0,1.6889-1.002,1.5681-1.8929L71.2014,45.4252z" fill="#DEE7F8"/><g><path d="M72.3989,47.9463c-0.0509-0.5215-0.66-1.7666-0.9837-2.1529             c-0.1205,0.2328-0.2004,0.2965-0.3921,0.4697c0.1633,0.5698,0.4679,2.3782-1.0949,5.107             c-0.5024,0.8774-0.7345,2.2799-0.8179,3.8258c1.0171-3.1267,3.1171-5.9452,3.1171-5.9452l-0.5735-0.7561L72.3989,47.9463             z" fill="#4C4A8B"/></g><path d="M68.8538,45.9265l-0.6239,0.8984c0.1892,0.8829,0.6352,1.5037,0.6352,1.5037l0.7661-0.6849            C68.5986,46.9484,68.8538,45.9265,68.8538,45.9265z" fill="#DEE7F8"/><path d="M69.0947,55.1693c-0.4973-2.2215-1.1594-5.6271-0.6985-7.5282            c0.1477-0.6091,0.239-1.0859,0.4067-1.3306c0,0-0.1754-0.0276-0.4373-0.0266l-0.9186,1.2885l0.4798,0.7335l-0.6419,0.6517            C67.2849,48.9576,67.6275,52.8907,69.0947,55.1693z" fill="#4C4A8B"/></g></g></g></g></g></g></g><g><g enable-background="new    "><g><path d="M67.2652,63.1572L66.8838,63.53c0.0459-0.0458,0.0545-0.1347,0.0086-0.2609l-1.5228-4.2759        c-0.109-0.3011-0.4732-0.7084-0.8087-0.9005l-8.265-4.7719c-0.195-0.1148-0.3384-0.1319-0.4044-0.0661l0.3814-0.3756        c0.066-0.0632,0.2093-0.0459,0.4044,0.066l8.265,4.7721c0.3384,0.1949,0.6997,0.5993,0.8087,0.9033l1.5228,4.273        C67.3197,63.0196,67.3139,63.1085,67.2652,63.1572z" fill="#6262AA"/></g><g><g enable-background="new    "><g><path d="M67.2652,63.1572L66.8838,63.53c-0.0631,0.0661-0.2093,0.0487-0.4072-0.066l-8.265-4.7719          c-0.3355-0.1951-0.6969-0.5995-0.8059-0.9005l-1.5228-4.2759c-0.0487-0.1319-0.0402-0.2236,0.0143-0.2666l0.3757-0.37          c0.066-0.0632,0.2093-0.0459,0.4044,0.066l8.265,4.7721c0.3384,0.1949,0.6997,0.5993,0.8087,0.9033l1.5228,4.273          C67.3197,63.0196,67.3139,63.1085,67.2652,63.1572z" fill="#6262AA"/></g></g></g><g><path d="M64.5609,58.0915c0.3369,0.1945,0.6995,0.5999,0.8075,0.9025l1.524,4.2742        c0.1079,0.3027-0.0787,0.3909-0.4156,0.1964l-8.2651-4.7719c-0.3369-0.1945-0.6977-0.5988-0.8056-0.9015l-1.524-4.2742        c-0.1079-0.3027,0.0769-0.3919,0.4138-0.1974L64.5609,58.0915z" fill="#3A3A77"/></g></g></g><g><g><path d="M68.7287,60.6352l-0.1569,0.0349c-0.183,0.0523-0.3399,0.1745-0.427,0.3485       c-0.305,0.6187-1.4379,1.0195-1.8998,1.1417c-0.1307,0.0264-0.2005,0.0174-0.244,0c-0.0958-0.0608,0.2789-0.2962,0.3399-0.3834       c-0.3224,0.1481-0.2963,0.1481-0.5577,0.2353c-0.122,0.026-0.1917,0-0.2004-0.0349c-0.0262-0.0783,0.1656-0.2442,0.2876-0.34       c-0.1917,0.1221-0.4271,0.2094-0.4271,0.2094c-0.1481,0.0434-0.1917,0.026-0.2265,0c-0.2005-0.1136,0.4008-0.4447,0.427-0.4621       c-0.3573,0.1485-0.5316,0.1306-0.61,0.0787c-0.0697-0.0438-0.0262-0.1481-0.0262-0.1481       c0.0174-0.0179,0.2266-0.2966,0.9673-0.5578c0.488-0.157,0.366-0.4881,0.366-0.4881l-0.183-0.514       c0.9151-0.1136,1.464,0.2528,1.6296,0.2787c0.1656,0.0349,0.4532-0.1132,0.4706-0.1221L68.7287,60.6352z" fill="#ECB4BF"/><path d="M71.1937,57.4604c0.6117-0.2765,0.9831-0.8889,0.9465-1.5756       c-0.1271-2.3603-0.2416-7.8752,1.5392-8.0264c2.0269-0.1721,1.7958,2.1505,1.7958,2.1505       c0.0639,1.0194-0.6484,5.6369-1.034,7.7199c-0.0974,0.5262-0.4458,0.9559-0.9294,1.17l-5.2521,2.1996       c-0.7535-0.3323-0.9338-0.9938-0.749-1.3684L71.1937,57.4604z" fill="#4C4A8B"/></g></g><g><path d="M68.0921,44.8577c0.0546-0.1318,0.0617-0.2828,0.0036-0.4133      c-0.1588-0.3565-0.3198-1.1246-0.3221-1.4908c-0.0031-0.4946,2.3304-0.9881,2.3304-0.9881l2.1817,1.0848l0.0969,1.519      c0,0,0.0161,0.1011-0.7454,1.3007c-0.102,0.1606-1.639,1.5879-2.5484,1.2756c0,0-0.3446-0.0162-0.493-0.5397      c-0.0918-0.3238-0.3004-0.5952-0.5343-0.8361C67.9321,45.6365,67.8787,45.3729,68.0921,44.8577z" fill="#ECB4BF"/></g><path d="M57.6709,56.6843c0.0981-0.0268,0.1057-0.0625,0.0981-0.1055c0-0.1979-0.4377-0.2702-0.5283-0.2864     c0.2566-0.0183,0.3171-0.1089,0.3095-0.2042c0-0.1319-0.2566-0.2059-0.2566-0.2059c-0.0151-0.0068-0.234-0.0757-0.5886-0.057     l-0.1139-0.3225c-0.2065,0.0813-0.188,0.3064-0.1804,0.3825v0.0064c0.0151,0.2642,0.6265,1.5642,0.7623,1.5616     c0.166-0.0149,0.3094-0.0404,0.4-0.0638c0.0755-0.0374,0.0981-0.0796,0.0981-0.1187c0-0.1055-0.3471-0.1821-0.4377-0.2438     c0.2491,0.0038,0.2415,0.0204,0.4227-0.0136c0.0679-0.0272,0.083-0.0864,0.0528-0.1268     c-0.0453-0.0936-0.2565-0.1791-0.3848-0.2259C57.5049,56.6992,57.6709,56.6843,57.6709,56.6843z" fill="#ECB4BF"/><path d="M56.2441,55.5858" fill="#ECB4BF"/></g><path d="M72.8715,43.8064c-0.0281,0.8724-0.5416,1.2664-0.7456,1.006c-0.1969-0.2672-0.0281-0.5485-0.0281-0.5485    c0.1196-0.2394,0.0914-0.4012,0.0914-0.4012c-0.0704-0.2531-0.2181-0.3167-0.3517-0.3095    c-0.1266,0.0072-0.2392,0.0773-0.3095,0.1831l-0.0352,0.893c0,0,0.0774,1.2592-0.5909,1.8853    c-0.5486,0.408-1.2873,0.8161-1.8148,0.633c0,0-0.3481-0.0096-0.4958-0.5303c-0.0352-0.1336-0.0985-0.26-0.1689-0.3795    l-0.0035-0.0186c0.422,0.1405,0.9285,0.1127,1.3154,0.0491c0.7527-0.1123,1.3787-0.7385,1.3998-1.4982v-0.021    c0,0-0.1407-0.8442-0.6542-1.3364c-0.2462-0.2394-0.7456-0.373-1.0692-0.2676c-2.7926,0.9074-2.3564-0.9425-0.7667-2.2298    c1.6952-1.3787,2.7785-0.1267,2.7785-0.1267C73.1458,41.1122,72.8715,43.8064,72.8715,43.8064z" fill="#A0533F"/></g><g><g><path d="M85.5811,90.3719c0.2294-0.2008,0.7731-0.8425,0.7731-0.8425c0.9461-0.0118,1.3985-2.9689,2.5159-2.8363     c1.1175,0.1324,0.5578,1.7581,0.3098,2.076c-0.248,0.3177-0.1949,1.2392-0.1949,1.2392h-0.3813c0,0,0.0969-0.8102,0.083-1.0327     c-0.0139-0.2225-0.3416-0.5481-0.5516,0.4386s-0.2265,0.8421-1.3267,1.2871c-0.8205,0.3316-1.1443,0.0173-1.2558-0.1638     C85.5188,90.4826,85.5326,90.4146,85.5811,90.3719z" fill="#4C4A8B"/><path d="M88.7314,84.771h-1.7245c0.3052,1.2967,0.3644,1.6131,0.1634,2.4116     c-0.2488,0.9887-0.4408,1.8949-0.816,2.3467c0,0,1.0161,0.5774,1.552-0.4675c0.5358-1.0452,0.3154-0.5518,0.8126-1.1168     c0.4973-0.5646,0.1513-1.252,0.1513-1.252S88.6454,85.6062,88.7314,84.771z" fill="#ECB4BF"/></g><g><path d="M82.3942,87.9336c0.2294-0.2008,0.7731-0.8425,0.7731-0.8425c0.9461-0.0118,1.3985-2.9689,2.5159-2.8363     c1.1175,0.1324,0.5578,1.7581,0.3098,2.076c-0.248,0.3177-0.1949,1.2392-0.1949,1.2392h-0.3813c0,0,0.0969-0.8102,0.083-1.0327     c-0.0139-0.2225-0.3416-0.5481-0.5516,0.4386s-0.2265,0.8421-1.3267,1.2871c-0.8205,0.3316-1.1443,0.0173-1.2558-0.1638     C82.3318,88.0442,82.3457,87.9762,82.3942,87.9336z" fill="#4C4A8B"/><path d="M85.5444,82.3326h-1.7245c0.3052,1.2967,0.3644,1.6131,0.1634,2.4116     c-0.2488,0.9887-0.4408,1.8949-0.816,2.3467c0,0,1.0161,0.5774,1.552-0.4675c0.5358-1.0452,0.3154-0.5518,0.8126-1.1168     c0.4973-0.5646,0.1513-1.252,0.1513-1.252S85.4584,83.1679,85.5444,82.3326z" fill="#ECB4BF"/></g><g><g><g><g><path d="M77.5463,57.8095c-0.1643-0.3514-0.767-1.5995-0.857-1.2569        c0.0286,0.2683-0.0124,0.4815-0.1707,0.6029c0,0-0.4642-0.5628-0.8221-0.8735c-0.3319-0.2887-0.4339,0.7638-0.2635,1.6471        c0,0-0.0017,0.6848,0.8416,0.8596c0.8431,0.1742,1.2668,0.4368,1.2668,0.4368l0.6013-0.8514        C78.1426,58.3741,77.7737,58.2957,77.5463,57.8095z" fill="#ECB4BF"/><path d="M83.1762,54.2651c-1.5534,0.4106-1.8483,3.3439-1.9223,4.7047        c-0.0169,0.3113-0.3453,0.5024-0.6243,0.3636c-0.8807-0.4373-2.4611-1.2632-2.9045-1.7674c0,0-0.654,0.9211-0.5136,1.7633        c0,0,2.4468,2.189,4.227,2.8407c0.5985,0.219,1.2475-0.169,1.3696-0.7945l1.2776-3.7246        C84.0858,57.6509,85.698,53.5989,83.1762,54.2651z" fill="#6B9EF9"/><path d="M89.3752,64.7261c-1.7976-2.4825-0.098-5.0127-0.098-5.0127        c1.4001-1.9569,0.6881-3.0618,0.6881-3.0618c-0.391-0.2912-0.9747-0.4242-1.2925-0.7616        c-0.7564-0.8033-0.8146-1.1334-0.8146-1.1334s-2.1704-0.8401-3.5403-0.6611c-0.5652,0.0738-1.5413,0.1083-1.7894,0.8439        c-0.3837,1.1376,0.2119,2.6768-0.1112,3.052c-1.5116,1.7559-0.2533,2.5071,0.4487,3.6326        c0.14,0.2243,0.2085,0.4863,0.1982,0.7506l-0.172,4.4068c-0.7872,5.2316,7.3266,2.7704,7.3266,2.7704        C91.0903,68.0368,90.8999,66.8315,89.3752,64.7261z" fill="#A6C2FF"/><path d="M86.7056,70.0627c-0.0381-0.0224-0.0622-0.0371-0.0799-0.0483        c-0.0069-0.0016-0.0191-0.0057-0.0469-0.0176c-0.243-0.1019-0.4913-0.1914-0.7352-0.2911        c-0.7345-0.3007-1.6939-0.2748-2.1155-0.9564c-1.0441-1.6878-0.8359-1.9683-0.8359-1.9683        c-1.2748,9.0801,1.019,17.0868,1.019,17.0868c0.8345,0.5218,1.8736,0,1.8736,0l0.4188-9.2792        c0.0075-1.4974,0.2549-2.9801,0.6972-4.41C86.8354,70.141,86.771,70.1014,86.7056,70.0627z" fill="#3A3A77"/><path d="M90.7279,68.0554c-6.7858,2.7059-7.8357-1.274-7.8357-1.274c0.1642,2.256,1.0364,3.0667,1.9918,3.6818        c0.4221,0.2716,0.6429,0.7564,0.5816,1.2545c-0.4345,3.5332,1.5855,14.5574,1.5855,14.5574c0.8345,0.5218,1.8736,0,1.8736,0        l0.4188-9.2792c0.008-1.598,0.3087-3.1724,0.7808-4.6995C90.9283,69.6959,90.7279,68.0554,90.7279,68.0554z" fill="#6262AA"/></g></g><g><g><path d="M88.1724,55.2928c-0.3763,0.3137-0.8959,0.5105-1.4872,0.5105c-0.3747,0-0.6559-0.4119-0.9566-0.5485        c-0.598-0.2718-1.0682-0.4409-1.0682-1.0193c0-0.0534,0.009-0.1072,0.0179-0.161c0.1613,0,0.4301-0.2419,0.3942-0.3942        c-0.2688-1.2183,2.5444-1.0035,2.5444-1.0035s0.1702,1.4782,0.2419,2.0784C87.8588,54.7551,87.8946,54.9258,88.1724,55.2928z" fill="#EDC3D2"/></g></g><g><g><path d="M86.0508,56.2579c0,0,1.415-0.4071,2.1334-0.941c-0.2681-0.3803-0.3572-0.8306-0.3572-0.8306        s-1.074,0.7896-2.0984,0.7685L86.0508,56.2579z" fill="#6B9EF9"/></g><g><path d="M84.9396,55.9836c0,0-0.4115-1.0231-0.3606-1.9131c0.2024-0.2939,0.7479-0.3933,0.7479-0.3933        s-0.3714,1.2687,0.4017,1.5771L84.9396,55.9836z" fill="#6B9EF9"/></g></g><g><path d="M86.3555,50.1745c-0.7618,0.0199-1.288-0.475-1.6003-0.2533       c-0.8446,0.5992-0.4632,1.9868-0.2821,2.8672c0.1951,0.9487,0.8207,1.8571,1.2165,2.0998       c0.3083,0.1891,0.6925,0.1887,1.0117,0.0029c2.4501-1.4261,2.4731-2.7019,2.4731-2.7019S89.1771,50.1007,86.3555,50.1745z" fill="#ECB4BF"/></g></g><path d="M88.3929,59.2257c-2.9693,4.482-3.9086,0.2399-3.9086,0.2399c0.2842,3.7868,4.0723,1.743,4.0723,1.743     L88.3929,59.2257z" fill="#6B9EF9"/></g><path d="M90.0901,51.4126c-0.0851-0.3534-0.445-0.5889-0.5497-0.9359c-0.0501-0.1614-0.1142-0.3425-0.1952-0.5256    c-0.0005-0.0016-0.0006-0.0029-0.0011-0.0045c-0.0065-0.0262-0.0196-0.0588-0.0393-0.0917    c-0.0196-0.0521-0.0523-0.1112-0.0785-0.1636c-0.1243-0.2288-0.2814-0.4384-0.4843-0.5889c0,0-0.0065,0-0.0065-0.0064    c-0.9162-0.8835-2.67-1.6559-4.1883,0.5039c0,0-1.034,1.0468-0.0851,3.1609c-0.0589-0.3339-0.5563-3.4095,1.1452-2.2317    c2.0156,1.3875,2.1727,1.5182,2.4214,1.0864c0.1832-0.3077,0.6852-0.3659,0.7898,0.1438    c-0.0915,0.588-0.3644,0.5825-0.5869,0.9292c-0.1571,0.2422-0.3403,0.4713-0.4778,0.7199    c-0.1243,0.2227-0.2094,0.4646-0.3272,0.6806c-0.2683,0.5039-0.7002,0.9228-0.8376,1.4725    c-0.0589,0.2486-0.0589,0.5103-0.1636,0.7394c-0.1178,0.2489-0.3403,0.4189-0.5563,0.5761    c-0.2225,0.1569-0.445,0.3205-0.5759,0.556c-0.1243,0.2422-0.1178,0.5758,0.0982,0.7394c0.2879,0.216,0.7068,0.0134,1.0536,0.1115    c0.2618,0.0655,0.4516,0.301,0.5497,0.5496c0.0981,0.2553,0.1243,0.5237,0.1767,0.7918c0.0262,0.1374,0.0654,0.2946,0.1832,0.3729    c0.1112,0.0853,0.2618,0.0786,0.4057,0.0722c0.0982-0.0131,0.2225-0.0262,0.2748-0.1179    c0.0262-0.0524,0.0262-0.1179,0.0197-0.1831c-0.0262-0.2291-0.0589-0.4582-0.0262-0.6806c0.0262-0.2291,0.144-0.4582,0.3403-0.563    c0.1636-0.085,0.4057-0.1176,0.4385-0.301c0.0131-0.0783-0.0197-0.1569-0.0524-0.2288c-0.1963-0.5368-0.0916-1.1714,0.2748-1.6099    c0.0654-0.0786,0.1374-0.1572,0.1833-0.2489c0.229-0.4515-0.3403-1.0273-0.1047-1.4788c0.1178-0.2227,0.3796-0.3272,0.4974-0.5432    c0.1702-0.3141-0.0524-0.6937-0.0393-1.0535C89.5797,52.4725,90.221,51.9884,90.0901,51.4126z" fill="#4C4A8B"/><g><g><g enable-background="new    "><polygon fill="#B6CBEA" points="86.4724,59.173 86.1707,59.3788 86.6658,65.8793 86.9675,65.6738      "/><polygon fill="#DEE7F8" points="86.1707,59.3788 82.2809,57.1328 82.776,63.6335 86.6658,65.8793      "/><polygon fill="#FFFFFF" points="82.5826,56.9273 82.2809,57.1328 86.1707,59.3788 86.4724,59.173      "/></g></g><path d="M83.886,60.9689c-0.0366-0.5153-1.0539-2.297-0.767-0.8001c0,0-0.46-0.343-0.6655-0.7699     c-0.1557-0.3233-0.5239,0.8154-0.5503,1.3454c0,0-0.1251,0.6733,0.6737,0.996c0.7988,0.3233,1.1687,0.6576,1.1687,0.6576     l0.7772-0.7621C84.5228,61.6357,83.9226,61.4836,83.886,60.9689z" fill="#ECB4BF"/><path d="M89.2147,56.5433c0,0-2.3676,0.5332-1.4821,5.632l0.1167,1.0263c0,0-2.8068-1.2383-3.5475-1.9242     c0,0-0.6918,0.2567-0.8674,1.0681c0,0,2.8123,2.4777,4.7628,3.0231c0.651,0.1818,1.2922-0.3264,1.3432-1.0007     c0.031-0.4095,0.0543-0.8968,0.0423-1.3544C89.5539,61.9268,91.472,55.8522,89.2147,56.5433z" fill="#6B9EF9"/></g></g></g></svg>