<?xml version="1.0" encoding="utf-8"?>
<!-- Generator: Adobe Illustrator 22.0.0, SVG Export Plug-In . SVG Version: 6.00 Build 0)  -->
<svg version="1.1" id="图层_1" xmlns="http://www.w3.org/2000/svg" xmlns:xlink="http://www.w3.org/1999/xlink" x="0px" y="0px"
	 viewBox="0 0 1024 1024" style="enable-background:new 0 0 1024 1024;" xml:space="preserve">
<style type="text/css">
	.st0{fill:#274DA0;}
	.st1{fill:#CCDAFE;}
	.st2{fill:#A8BEEF;}
	.st3{fill:url(#SVGID_1_);}
	.st4{fill:url(#SVGID_2_);}
	.st5{fill:#3B6CE4;}
	.st6{fill:url(#SVGID_3_);}
	.st7{fill:#FF7F2A;}
	.st8{fill:url(#SVGID_4_);}
	.st9{fill:#5D94FA;}
	.st10{fill:#FFFFFF;}
	.st11{fill:#353535;}
	.st12{fill:#FDCACA;}
	.st13{fill:#63393F;}
	.st14{fill:#DBEEFE;}
	.st15{fill:#B9D8ED;}
	.st16{fill:#173872;}
</style>
<g>
	<g>
		<path class="st0" d="M609.6,595.9h-195c-3.3,0-6-2.7-6-6l0,0c0-3.3,2.7-6,6-6h195c3.3,0,6,2.7,6,6l0,0
			C615.6,593.2,612.9,595.9,609.6,595.9z"/>
		
			<rect x="417.6" y="611.9" transform="matrix(-1.836970e-16 1 -1 -1.836970e-16 1058.5253 177.3328)" class="st0" width="46" height="12"/>
		
			<rect x="559.6" y="611.9" transform="matrix(-1.836970e-16 1 -1 -1.836970e-16 1200.5253 35.3328)" class="st0" width="46" height="12"/>
	</g>
	<g>
		<g>
			<polygon class="st1" points="163.1,716.4 163.1,510.6 245.5,510.6 245.5,362.4 386.2,362.4 386.2,716.4 			"/>
			<g>
				<rect x="259.5" y="386.9" class="st2" width="28.8" height="23"/>
				<rect x="302.7" y="386.9" class="st2" width="28.8" height="23"/>
				<rect x="345.9" y="386.9" class="st2" width="28.8" height="23"/>
				<rect x="259.5" y="422.9" class="st2" width="28.8" height="23"/>
				<rect x="302.7" y="422.9" class="st2" width="28.8" height="23"/>
				<rect x="345.9" y="422.9" class="st2" width="28.8" height="23"/>
				<rect x="259.5" y="458.8" class="st2" width="28.8" height="23"/>
				<rect x="302.7" y="458.8" class="st2" width="28.8" height="23"/>
				<rect x="345.9" y="458.8" class="st2" width="28.8" height="23"/>
				<rect x="259.5" y="494.8" class="st2" width="28.8" height="23"/>
				<rect x="302.7" y="494.8" class="st2" width="28.8" height="23"/>
				<rect x="345.9" y="494.8" class="st2" width="28.8" height="23"/>
				<rect x="259.5" y="530.8" class="st2" width="28.8" height="23"/>
				<rect x="216.4" y="530.8" class="st2" width="28.8" height="23"/>
				<rect x="173.2" y="530.8" class="st2" width="28.8" height="23"/>
				<rect x="302.7" y="530.8" class="st2" width="28.8" height="23"/>
				<rect x="345.9" y="530.8" class="st2" width="28.8" height="23"/>
				<rect x="259.5" y="566.8" class="st2" width="28.8" height="23"/>
				<rect x="216.4" y="566.8" class="st2" width="28.8" height="23"/>
				<rect x="173.2" y="566.8" class="st2" width="28.8" height="23"/>
				<rect x="302.7" y="566.8" class="st2" width="28.8" height="23"/>
				<rect x="345.9" y="566.8" class="st2" width="28.8" height="23"/>
				<rect x="259.5" y="602.8" class="st2" width="28.8" height="23"/>
				<rect x="216.4" y="602.8" class="st2" width="28.8" height="23"/>
				<rect x="173.2" y="602.8" class="st2" width="28.8" height="23"/>
				<rect x="302.7" y="602.8" class="st2" width="28.8" height="23"/>
				<rect x="345.9" y="602.8" class="st2" width="28.8" height="23"/>
				<rect x="259.5" y="638.7" class="st2" width="28.8" height="23"/>
				<rect x="216.4" y="638.7" class="st2" width="28.8" height="23"/>
				<rect x="173.2" y="638.7" class="st2" width="28.8" height="23"/>
				<rect x="302.7" y="638.7" class="st2" width="28.8" height="23"/>
				<rect x="345.9" y="638.7" class="st2" width="28.8" height="23"/>
			</g>
		</g>
		<g>
			<polygon class="st1" points="635.1,713.6 635.1,584 698.5,584 698.5,434.4 794.9,434.4 794.9,504.9 851,504.9 851,713.6 			"/>
			<g>
				<rect x="712.9" y="453.1" class="st2" width="28.8" height="23"/>
				<rect x="753.1" y="453.1" class="st2" width="28.8" height="23"/>
				<rect x="712.9" y="597" class="st2" width="28.8" height="23"/>
				<rect x="672.6" y="597" class="st2" width="28.8" height="23"/>
				<rect x="672.6" y="633" class="st2" width="28.8" height="23"/>
				<rect x="753.1" y="597" class="st2" width="28.8" height="23"/>
				<rect x="712.9" y="489.1" class="st2" width="28.8" height="23"/>
				<rect x="753.1" y="489.1" class="st2" width="28.8" height="23"/>
				<rect x="712.9" y="525" class="st2" width="28.8" height="23"/>
				<rect x="753.1" y="525" class="st2" width="28.8" height="23"/>
				<rect x="793.4" y="525" class="st2" width="28.8" height="23"/>
				<rect x="793.4" y="561" class="st2" width="28.8" height="23"/>
				<rect x="793.4" y="597" class="st2" width="28.8" height="23"/>
				<rect x="793.4" y="633" class="st2" width="28.8" height="23"/>
				<rect x="712.9" y="561" class="st2" width="28.8" height="23"/>
				<rect x="753.1" y="561" class="st2" width="28.8" height="23"/>
				<rect x="712.9" y="633" class="st2" width="28.8" height="23"/>
				<rect x="753.1" y="633" class="st2" width="28.8" height="23"/>
			</g>
		</g>
		<g>
			<g>
				<linearGradient id="SVGID_1_" gradientUnits="userSpaceOnUse" x1="503.8834" y1="621.5539" x2="512.2406" y2="753.2529">
					<stop  offset="0" style="stop-color:#91B3FF"/>
					<stop  offset="0.4022" style="stop-color:#6791F2"/>
					<stop  offset="0.7939" style="stop-color:#3B6CE4"/>
				</linearGradient>
				<path class="st3" d="M92.6,751c0,0,164.1-131,411.6-131c233.1,0,427.4,131,427.4,131s-65.5-24.7-204.4-27.3
					c-76.3-1.4-132.4,24.5-225.9,24.5c-87.8,0-149.8-12.1-243.2-15.8C171.6,728.8,92.6,751,92.6,751z"/>
				<linearGradient id="SVGID_2_" gradientUnits="userSpaceOnUse" x1="519.5884" y1="618.5692" x2="523.5714" y2="681.3364">
					<stop  offset="0" style="stop-color:#91B3FF"/>
					<stop  offset="0.2484" style="stop-color:#6795EC"/>
					<stop  offset="0.7939" style="stop-color:#004CBF"/>
				</linearGradient>
				<path class="st4" d="M429.3,624c-5.5,3.8-8.6,8.1-8.6,12.5c0,17.1,44.8,30.9,100,30.9s100-13.9,100-30.9c0-2.2-0.8-4.4-2.3-6.6
					c-36.5-6.2-74.8-10-114.3-10C478.3,620,453.3,621.5,429.3,624z"/>
				
					<ellipse transform="matrix(0.9596 -0.2814 0.2814 0.9596 -180.4586 124.1975)" class="st5" cx="342.3" cy="690.5" rx="46.8" ry="15.8"/>
				
					<ellipse transform="matrix(0.2923 -0.9563 0.9563 0.2923 -284.8122 1037.9479)" class="st5" cx="558.9" cy="711.4" rx="12.2" ry="30.2"/>
			</g>
			<g>
				<g>
					<linearGradient id="SVGID_3_" gradientUnits="userSpaceOnUse" x1="744.0632" y1="649.3394" x2="707.1105" y2="599.0541">
						<stop  offset="0" style="stop-color:#EFBB81"/>
						<stop  offset="0.5011" style="stop-color:#F79E57"/>
						<stop  offset="1" style="stop-color:#FF7F2A"/>
					</linearGradient>
					<path class="st6" d="M749.8,628c4.9-5.1,7.4-11.8,6.4-18.6c-1.2-8.2-7.1-14.6-15.2-17.8c0.2-1.8,0.2-3.7-0.2-5.6
						c-1.9-9.1-10.8-15-19.8-13.1c-9,1.9-14.8,10.8-12.9,19.9c0.2,1.2,0.6,2.3,1.1,3.3c-6.9,5.4-10.9,13.4-9.7,21.6
						c0.6,3.8,2.1,7.2,4.5,10.1c-5.2,3.4-8.4,8-8.4,13c0,10.5,14,19,31.2,19c17.2,0,31.2-8.5,31.2-19
						C758,635.9,754.9,631.4,749.8,628z"/>
					<g>
						<g>
							<path class="st7" d="M726.2,686.3L726.2,686.3c-0.9-0.5-1.5-2.5-1.2-4.3c4.4-35.6,1.3-54.8-0.2-61.3
								c-0.4-1.6-0.1-3.4,0.6-4.4l0,0c0.9-1.3,2.1-0.7,2.6,1.4c1.8,8,5.1,28.9,0.4,66.1C728.1,685.7,727.1,686.9,726.2,686.3z"/>
						</g>
					</g>
				</g>
				<g>
					<linearGradient id="SVGID_4_" gradientUnits="userSpaceOnUse" x1="802.3936" y1="686.8685" x2="781.3106" y2="658.1788">
						<stop  offset="0" style="stop-color:#EFBB81"/>
						<stop  offset="0.5011" style="stop-color:#F79E57"/>
						<stop  offset="1" style="stop-color:#FF7F2A"/>
					</linearGradient>
					<path class="st8" d="M805.7,674.7c2.8-2.9,4.2-6.7,3.7-10.6c-0.7-4.7-4.1-8.3-8.7-10.2c0.1-1,0.1-2.1-0.1-3.2
						c-1.1-5.2-6.2-8.5-11.3-7.5c-5.2,1.1-8.4,6.2-7.3,11.4c0.1,0.7,0.3,1.3,0.6,1.9c-4,3.1-6.2,7.6-5.5,12.3
						c0.3,2.2,1.2,4.1,2.6,5.8c-3,1.9-4.8,4.5-4.8,7.4c0,6,8,10.8,17.8,10.8s17.8-4.9,17.8-10.8
						C810.3,679.2,808.6,676.6,805.7,674.7z"/>
					<g>
						<g>
							<path class="st7" d="M792.2,708L792.2,708c-0.5-0.3-0.8-1.4-0.7-2.5c2.5-20.3,0.8-31.2-0.1-35c-0.2-0.9-0.1-1.9,0.3-2.5l0,0
								c0.5-0.8,1.2-0.4,1.5,0.8c1,4.5,2.9,16.5,0.2,37.7C793.3,707.6,792.7,708.3,792.2,708z"/>
						</g>
					</g>
				</g>
			</g>
		</g>
	</g>
	<path class="st5" d="M717,552.1H307.2c-5.6,0-10.1-4.5-10.1-10.1V282.2c0-5.6,4.5-10.1,10.1-10.1H717c5.6,0,10.1,4.5,10.1,10.1V542
		C727.1,547.6,722.6,552.1,717,552.1z"/>
	<path class="st9" d="M727.1,322.1h-430v-40c0-5.5,4.5-10,10-10h410c5.5,0,10,4.5,10,10V322.1z"/>
	<path class="st10" d="M339.1,306.1h-14c-4.4,0-8-3.6-8-8v0c0-4.4,3.6-8,8-8h14c4.4,0,8,3.6,8,8v0
		C347.1,302.5,343.5,306.1,339.1,306.1z"/>
	<path class="st10" d="M635.2,306.1H365.1c-4.4,0-8-3.6-8-8v0c0-4.4,3.6-8,8-8h270.1c4.4,0,8,3.6,8,8v0
		C643.2,302.5,639.6,306.1,635.2,306.1z"/>
	<g>
		<circle class="st10" cx="685" cy="281.1" r="5"/>
		<circle class="st10" cx="701" cy="281.1" r="5"/>
		<circle class="st10" cx="717" cy="281.1" r="5"/>
	</g>
	<g>
		<path class="st11" d="M550.1,575.7h-76.1c-1.1,0-2-0.9-2-2v-42.1c0-1.1,0.9-2,2-2h76.1c1.1,0,2,0.9,2,2v42.1
			C552.1,574.8,551.2,575.7,550.1,575.7z"/>
		<rect x="474.1" y="532.7" class="st10" width="76" height="40"/>
	</g>
	<g>
		<polygon class="st12" points="509.3,559.2 518.3,559.2 518.3,574.6 508.5,574.6 		"/>
		<path class="st12" d="M502.2,549.8c0,0-2.4-0.3-2.6,1.3s0.5,5,1.1,5.5c1,1.1,3.2-1,3.2-1L502.2,549.8z"/>
		<path class="st12" d="M521.1,555.7c0,0,2.6,1.6,3.7,0.8s1.8-3.4,1.8-4.5s0.3-2.1-1.1-2.1s-2.1-0.3-2.4,0
			C523,550.1,521.1,555.7,521.1,555.7z"/>
		<path class="st0" d="M491.4,617.1c0,0-12.2-6.1-16.9-2.6c-4.8,3.4-5.8,4.5-6.3,6.6c-0.5,2.1,5.3,17.2,7.4,19.8
			c2.1,2.6,7.4,8.5,8.5,12.2c1.1,3.7,4.8,15.6,10.6,16.4c5.8,0.8,29.8,4.2,35.1,1.3c5.3-2.9,8.2-7.1,9-8.7s1.3-5.5,3.7-9
			c2.4-3.4,7.1-9.8,8.5-12.9s3.7-11.6,3.7-13.7c0-2.1-4-7.9-5.5-9s-9,2.6-10,4.2c-1.1,1.6-47.8,1.6-47.8,1.6L491.4,617.1z"/>
		<path class="st13" d="M527.1,526.2c-4.4-7.2-13.1,0.4-13.7,1c-0.6,0.6-3.6-2.4-10.4,1.3c-4.6,2.5-4.5,4.1-5.1,12.3
			c-0.6,8.2,3.1,9.6,3.1,9.6s0.5,0,1.3,0.1c0,1.7,0,3.6,0.1,4.9c0,0,0.4,4.7,3.8,7.3c2.5,1.8,4,2.3,6.2,2.5c3,0.2,6.6-0.7,9.1-4.6
			c0.7-1.1,0.9-3.7,0.9-3.7l1.4-7.2C527.1,548.5,531.4,533.3,527.1,526.2z"/>
		<path class="st14" d="M555.9,613.2c-1.3-4.5-4.8-14.7-4.8-14.7l0,0c-1.2-4.7-4.4-11-4.8-11.5c-0.5-0.8-2.7-8-5.9-9.3
			c-6.1-2.5-11.8-4.7-13.4-6.8c-1.6-2.1-5.2-4-5.2-4s-5.4,1-9.9,0.7c-4.3-0.3-5.8-1.3-6.8-0.9c-0.3,0.1-1.5,2.6-3.6,3.7
			c-2.1,1.1-4.2-0.5-18,8.7c0,0-3.4,1.3-6.1,9.2c-0.7,2.2-1.1,3.8-1.4,4.9l0,0c0,0-4.5,14.7-5.8,19.1c-0.7,2.3,0.1,3.7,1,4.5
			c0.8-0.7,1.9-1.5,3.2-2.4c3.4-2.4,10.4-0.1,14.3,1.5c0,3.9,1.3,8.7-2.1,15.7c-3.4,7.1-1.1,24,2.1,28.3c3.2,4.2,7.7,7.9,8.7,7.9
			c0,0,21.1,2.6,27.7,1.1c6.6-1.6,11.6-12.7,12.4-14.3c0.8-1.6,5.5-10.3,3.7-15.1c-1.8-4.8-5-6.9-5-6.9s0.5-4.9,1-10.7
			c0.9-0.1,1.5-0.3,1.6-0.4c1.1-1.6,8.5-5.3,10-4.2c0.5,0.3,1.1,1,1.9,2l2.3-0.6C553.1,618.7,557.2,617.7,555.9,613.2z M486.7,603.8
			c0.3,1.2,1.2,4.6,1.6,8l-4-2.1L486.7,603.8z M538.2,612.4c0.4-4.3,0.7-7.8,0.7-8.2c0-0.2,0-0.3,0.1-0.3l2.7,6.7L538.2,612.4z"/>
		<path class="st15" d="M512.9,571.4c0,0,5.8,0.1,8.2-0.6c2.4-0.7,3.9-1.8,3.9-1.8l-3.2-2c0,0-4.6,0.8-8.2,0.7
			c-3.6,0-8.5-1.4-8.5-1.2s-2.7,3.1-2.7,3.1S509.4,571.3,512.9,571.4z"/>
		<polygon class="st16" points="483.9,616.7 488.9,622.7 489,621.1 488.8,618.6 		"/>
		<polygon class="st16" points="537,625.2 540,623.2 536.8,627.2 		"/>
		<polygon class="st15" points="484.7,608.9 480.2,611 485.9,610.5 484.4,609.7 		"/>
		<polygon class="st15" points="541,608.9 545,611.1 540.5,611.1 541.7,610.5 		"/>
		<polygon class="st15" points="486.5,604.5 486.7,603.8 486.9,604.5 486.5,595.7 		"/>
		<polygon class="st15" points="538.8,605.1 538.2,592.4 539.6,605.4 539,603.9 		"/>
	</g>
	<path class="st0" d="M683.7,351.6l-45.3,12.1c-3.6,1-4.8,5.4-2.2,8l10.7,10.7L588,440.3c-2.2,2.2-5.8,2.3-8.1,0.1l-50.6-47.2
		c-2.9-2.8-7.6-2.6-10.3,0.4l-59.1,63.6c-2.2,2.3-5.8,2.5-8.2,0.4l-43.1-38.2c-3.1-2.7-7.8-2.4-10.4,0.8l-68,81.1
		c-3.2,3.8-2.7,9.5,1.1,12.7l0,0c3.8,3.2,9.5,2.7,12.7-1.1l57-68.1c2.1-2.5,5.9-2.8,8.4-0.6l42.5,37.7c3,2.6,7.5,2.4,10.2-0.5
		l58.8-63.3c2.2-2.4,6-2.5,8.3-0.3l50,46.7c2.9,2.7,7.3,2.6,10.1-0.1l70.3-69l9.7,9.7c2.6,2.6,7.1,1.4,8-2.2l12.1-45.3
		C690.5,354,687.2,350.7,683.7,351.6z"/>
	<path class="st10" d="M683.7,345.6l-45.3,12.1c-3.6,1-4.8,5.4-2.2,8l10.7,10.7L588,434.3c-2.2,2.2-5.8,2.3-8.1,0.1l-50.6-47.2
		c-2.9-2.8-7.6-2.6-10.3,0.4l-59.1,63.6c-2.2,2.3-5.8,2.5-8.2,0.4l-43.1-38.2c-3.1-2.7-7.8-2.4-10.4,0.8l-68,81.1
		c-3.2,3.8-2.7,9.5,1.1,12.7l0,0c3.8,3.2,9.5,2.7,12.7-1.1l57-68.1c2.1-2.5,5.9-2.8,8.4-0.6l42.5,37.7c3,2.6,7.5,2.4,10.2-0.5
		l58.8-63.3c2.2-2.4,6-2.5,8.3-0.3l50,46.7c2.9,2.7,7.3,2.6,10.1-0.1l70.3-69l9.7,9.7c2.6,2.6,7.1,1.4,8-2.2l12.1-45.3
		C690.5,348,687.2,344.7,683.7,345.6z"/>
</g>
</svg>
